<svg width="160" height="160" viewBox="0 0 160 160" fill="none" xmlns="http://www.w3.org/2000/svg">
<g clip-path="url(#clip0_1267_14486)">
<rect width="160" height="160" rx="16" fill="white"/>
<g clip-path="url(#clip1_1267_14486)">
<path d="M120.88 -18.99C120.94 -19.5 120.97 -20.02 120.97 -20.55C120.97 -28.53 114.28 -35 106.03 -35C97.78 -35 91.09 -28.53 91.09 -20.55C91.09 -20.02 91.1199 -19.5 91.1799 -18.99C85.8999 -16.76 82.2 -11.67 82.2 -5.74C82.2 2.24 88.89 8.71 97.14 8.71C100.47 8.71 103.54 7.66 106.03 5.87C108.51 7.65 111.59 8.71 114.92 8.71C123.17 8.71 129.86 2.24 129.86 -5.74C129.86 -11.67 126.16 -16.76 120.88 -18.99Z" fill="#DBFFF1"/>
<path d="M123 -16.1399C123.06 -16.6499 123.09 -17.1699 123.09 -17.6999C123.09 -25.6799 116.4 -32.1499 108.15 -32.1499C99.9001 -32.1499 93.2001 -25.6799 93.2001 -17.6999C93.2001 -17.1699 93.2301 -16.6499 93.2901 -16.1399C88.0101 -13.9099 84.3101 -8.8199 84.3101 -2.8899C84.3101 5.0901 91.0001 11.5601 99.2501 11.5601C102.58 11.5601 105.65 10.5101 108.14 8.7201C110.62 10.5001 113.7 11.5601 117.03 11.5601C125.28 11.5601 131.97 5.0901 131.97 -2.8899C131.97 -8.8199 128.28 -13.9099 123 -16.1399Z" fill="#DAFFF0"/>
<path d="M125.01 -13.2698C125.07 -13.7798 125.1 -14.2998 125.1 -14.8298C125.1 -22.8098 118.41 -29.2798 110.16 -29.2798C101.91 -29.2798 95.22 -22.8098 95.22 -14.8298C95.22 -14.2998 95.25 -13.7798 95.31 -13.2698C90.03 -11.0398 86.33 -5.94979 86.33 -0.0197849C86.33 7.96022 93.02 14.4302 101.27 14.4302C104.6 14.4302 107.67 13.3802 110.16 11.5902C112.64 13.3702 115.72 14.4302 119.05 14.4302C127.3 14.4302 133.99 7.96022 133.99 -0.0197849C133.98 -5.94979 130.29 -11.0398 125.01 -13.2698Z" fill="#D9FEF0"/>
<path d="M126.9 -10.3899C126.96 -10.8999 126.99 -11.4199 126.99 -11.9499C126.99 -19.9299 120.3 -26.3999 112.05 -26.3999C103.8 -26.3999 97.11 -19.9299 97.11 -11.9499C97.11 -11.4199 97.14 -10.8999 97.2 -10.3899C91.92 -8.1599 88.22 -3.0699 88.22 2.8601C88.22 10.8401 94.91 17.3101 103.16 17.3101C106.49 17.3101 109.56 16.2601 112.05 14.4701C114.53 16.2501 117.61 17.3101 120.94 17.3101C129.19 17.3101 135.88 10.8401 135.88 2.8601C135.87 -3.0699 132.18 -8.1599 126.9 -10.3899Z" fill="#D8FEEF"/>
<path d="M128.64 -7.51002C128.7 -8.02002 128.73 -8.54002 128.73 -9.07002C128.73 -17.05 122.04 -23.52 113.79 -23.52C105.54 -23.52 98.85 -17.05 98.85 -9.07002C98.85 -8.54002 98.88 -8.02002 98.94 -7.51002C93.66 -5.28002 89.96 -0.190018 89.96 5.73998C89.96 13.72 96.6499 20.19 104.9 20.19C108.23 20.19 111.3 19.14 113.79 17.35C116.27 19.13 119.35 20.19 122.68 20.19C130.93 20.19 137.62 13.72 137.62 5.73998C137.62 -0.190018 133.92 -5.29002 128.64 -7.51002Z" fill="#D7FEEF"/>
<path d="M130.22 -4.65016C130.28 -5.16016 130.31 -5.68016 130.31 -6.21016C130.31 -14.1902 123.62 -20.6602 115.37 -20.6602C107.12 -20.6602 100.43 -14.1902 100.43 -6.21016C100.43 -5.68016 100.46 -5.16016 100.52 -4.65016C95.24 -2.42016 91.54 2.66984 91.54 8.59984C91.54 16.5798 98.23 23.0498 106.48 23.0498C109.81 23.0498 112.88 21.9998 115.37 20.2098C117.85 21.9898 120.93 23.0498 124.26 23.0498C132.51 23.0498 139.2 16.5798 139.2 8.59984C139.19 2.66984 135.5 -2.42016 130.22 -4.65016Z" fill="#D6FDEE"/>
<path d="M131.6 -1.82008C131.66 -2.33008 131.69 -2.85008 131.69 -3.38008C131.69 -11.3601 125 -17.8301 116.75 -17.8301C108.5 -17.8301 101.81 -11.3601 101.81 -3.38008C101.81 -2.85008 101.84 -2.33008 101.9 -1.82008C96.62 0.409922 92.92 5.49992 92.92 11.4299C92.92 19.4099 99.61 25.8799 107.86 25.8799C111.19 25.8799 114.26 24.8299 116.75 23.0399C119.23 24.8199 122.31 25.8799 125.64 25.8799C133.89 25.8799 140.58 19.4099 140.58 11.4299C140.58 5.50992 136.89 0.409922 131.6 -1.82008Z" fill="#D5FDEE"/>
<path d="M132.78 0.980215C132.84 0.470215 132.87 -0.0497866 132.87 -0.579786C132.87 -8.55979 126.18 -15.0298 117.93 -15.0298C109.68 -15.0298 102.99 -8.55979 102.99 -0.579786C102.99 -0.0497866 103.02 0.470215 103.08 0.980215C97.8 3.21021 94.1 8.30021 94.1 14.2302C94.1 22.2102 100.79 28.6802 109.04 28.6802C112.37 28.6802 115.44 27.6302 117.93 25.8402C120.41 27.6202 123.49 28.6802 126.82 28.6802C135.07 28.6802 141.76 22.2102 141.76 14.2302C141.75 8.30021 138.06 3.21021 132.78 0.980215Z" fill="#D4FDED"/>
<path d="M133.71 3.71996C133.77 3.20996 133.8 2.68996 133.8 2.15996C133.8 -5.82004 127.11 -12.29 118.86 -12.29C110.61 -12.29 103.92 -5.82004 103.92 2.15996C103.92 2.68996 103.95 3.20996 104.01 3.71996C98.73 5.94996 95.03 11.04 95.03 16.97C95.03 24.95 101.72 31.42 109.97 31.42C113.3 31.42 116.37 30.37 118.86 28.58C121.34 30.36 124.42 31.42 127.75 31.42C136 31.42 142.69 24.95 142.69 16.97C142.69 11.05 139 5.94996 133.71 3.71996Z" fill="#D3FCEC"/>
<path d="M134.39 6.40014C134.45 5.89014 134.48 5.37014 134.48 4.84014C134.48 -3.13986 127.79 -9.60986 119.54 -9.60986C111.29 -9.60986 104.6 -3.13986 104.6 4.84014C104.6 5.37014 104.63 5.89014 104.69 6.40014C99.41 8.63014 95.71 13.7201 95.71 19.6501C95.71 27.6301 102.4 34.1001 110.65 34.1001C113.98 34.1001 117.05 33.0501 119.54 31.2601C122.02 33.0401 125.1 34.1001 128.43 34.1001C136.68 34.1001 143.37 27.6301 143.37 19.6501C143.37 13.7301 139.68 8.63014 134.39 6.40014Z" fill="#D2FCEC"/>
<path d="M134.79 9.01C134.85 8.5 134.88 7.98 134.88 7.45C134.88 -0.529999 128.19 -7 119.94 -7C111.69 -7 105 -0.529999 105 7.45C105 7.98 105.03 8.5 105.09 9.01C99.81 11.24 96.11 16.33 96.11 22.26C96.11 30.24 102.8 36.71 111.05 36.71C114.38 36.71 117.45 35.66 119.94 33.87C122.42 35.65 125.5 36.71 128.83 36.71C137.08 36.71 143.77 30.24 143.77 22.26C143.77 16.33 140.08 11.24 134.79 9.01Z" fill="#D1FCEB"/>
<path d="M134.89 11.5198C134.95 11.0098 134.98 10.4898 134.98 9.95976C134.98 1.97976 128.29 -4.49023 120.04 -4.49023C111.79 -4.49023 105.1 1.97976 105.1 9.95976C105.1 10.4898 105.13 11.0098 105.19 11.5198C99.91 13.7498 96.21 18.8398 96.21 24.7698C96.21 32.7498 102.9 39.2198 111.15 39.2198C114.48 39.2198 117.55 38.1698 120.04 36.3798C122.52 38.1598 125.6 39.2198 128.93 39.2198C137.18 39.2198 143.87 32.7498 143.87 24.7698C143.87 18.8498 140.17 13.7498 134.89 11.5198Z" fill="#D0FBEB"/>
<path d="M134.66 13.9402C134.72 13.4302 134.75 12.9102 134.75 12.3802C134.75 4.40018 128.06 -2.06982 119.81 -2.06982C111.56 -2.06982 104.87 4.40018 104.87 12.3802C104.87 12.9102 104.9 13.4302 104.96 13.9402C99.68 16.1702 95.98 21.2602 95.98 27.1902C95.98 35.1702 102.67 41.6402 110.92 41.6402C114.25 41.6402 117.32 40.5902 119.81 38.8002C122.29 40.5802 125.37 41.6402 128.7 41.6402C136.95 41.6402 143.64 35.1702 143.64 27.1902C143.64 21.2602 139.94 16.1702 134.66 13.9402Z" fill="#CFFBEA"/>
<path d="M134.08 16.24C134.14 15.73 134.17 15.21 134.17 14.68C134.17 6.69998 127.48 0.22998 119.23 0.22998C110.98 0.22998 104.29 6.69998 104.29 14.68C104.29 15.21 104.32 15.73 104.38 16.24C99.1 18.47 95.4 23.56 95.4 29.49C95.4 37.47 102.09 43.94 110.34 43.94C113.67 43.94 116.74 42.89 119.23 41.1C121.71 42.88 124.79 43.94 128.12 43.94C136.37 43.94 143.06 37.47 143.06 29.49C143.06 23.56 139.37 18.47 134.08 16.24Z" fill="#CEFBEA"/>
<path d="M133.14 18.4099C133.2 17.8999 133.23 17.3799 133.23 16.8499C133.23 8.8699 126.54 2.3999 118.29 2.3999C110.04 2.3999 103.35 8.8699 103.35 16.8499C103.35 17.3799 103.38 17.8999 103.44 18.4099C98.16 20.6399 94.46 25.7299 94.46 31.6599C94.46 39.6399 101.15 46.1099 109.4 46.1099C112.73 46.1099 115.8 45.0599 118.29 43.2699C120.77 45.0499 123.85 46.1099 127.18 46.1099C135.43 46.1099 142.12 39.6399 142.12 31.6599C142.11 25.7399 138.42 20.6399 133.14 18.4099Z" fill="#CDFAE9"/>
<path d="M131.86 20.3699C131.92 19.8599 131.95 19.3399 131.95 18.8099C131.95 10.8299 125.26 4.35986 117.01 4.35986C108.76 4.35986 102.07 10.8299 102.07 18.8099C102.07 19.3399 102.1 19.8599 102.16 20.3699C96.8799 22.5999 93.1799 27.6899 93.1799 33.6199C93.1799 41.5999 99.8699 48.0699 108.12 48.0699C111.45 48.0699 114.52 47.0199 117.01 45.2299C119.49 47.0099 122.57 48.0699 125.9 48.0699C134.15 48.0699 140.84 41.5999 140.84 33.6199C140.84 27.6899 137.15 22.5899 131.86 20.3699Z" fill="#CDFAE8"/>
<path d="M130.28 22.0998C130.34 21.5898 130.37 21.0698 130.37 20.5398C130.37 12.5598 123.68 6.08984 115.43 6.08984C107.18 6.08984 100.49 12.5598 100.49 20.5398C100.49 21.0698 100.52 21.5898 100.58 22.0998C95.3 24.3298 91.6 29.4198 91.6 35.3498C91.6 43.3298 98.29 49.7998 106.54 49.7998C109.87 49.7998 112.94 48.7498 115.43 46.9598C117.91 48.7398 120.99 49.7998 124.32 49.7998C132.57 49.7998 139.26 43.3298 139.26 35.3498C139.26 29.4198 135.57 24.3198 130.28 22.0998Z" fill="#CCFAE8"/>
<path d="M128.42 23.6101C128.48 23.1001 128.51 22.5801 128.51 22.0501C128.51 14.0701 121.82 7.6001 113.57 7.6001C105.32 7.6001 98.63 14.0701 98.63 22.0501C98.63 22.5801 98.66 23.1001 98.72 23.6101C93.44 25.8401 89.74 30.9301 89.74 36.8601C89.74 44.8401 96.43 51.3101 104.68 51.3101C108.01 51.3101 111.08 50.2601 113.57 48.4701C116.05 50.2501 119.13 51.3101 122.46 51.3101C130.71 51.3101 137.4 44.8401 137.4 36.8601C137.4 30.9401 133.7 25.8401 128.42 23.6101Z" fill="#CBFAE7"/>
<path d="M126.29 24.9299C126.35 24.4199 126.38 23.8999 126.38 23.3699C126.38 15.3899 119.69 8.91992 111.44 8.91992C103.19 8.91992 96.5 15.3899 96.5 23.3699C96.5 23.8999 96.53 24.4199 96.59 24.9299C91.31 27.1599 87.61 32.2499 87.61 38.1799C87.61 46.1599 94.3 52.6299 102.55 52.6299C105.88 52.6299 108.95 51.5799 111.44 49.7899C113.92 51.5699 117 52.6299 120.33 52.6299C128.58 52.6299 135.27 46.1599 135.27 38.1799C135.27 32.2599 131.57 27.1599 126.29 24.9299Z" fill="#CAF9E7"/>
<path d="M123.92 26.0701C123.98 25.5601 124.01 25.0401 124.01 24.5101C124.01 16.5301 117.32 10.0601 109.07 10.0601C100.82 10.0601 94.13 16.5301 94.13 24.5101C94.13 25.0401 94.16 25.5601 94.22 26.0701C88.94 28.3001 85.24 33.3901 85.24 39.3201C85.24 47.3001 91.93 53.7701 100.18 53.7701C103.51 53.7701 106.58 52.7201 109.07 50.9301C111.55 52.7101 114.63 53.7701 117.96 53.7701C126.21 53.7701 132.9 47.3001 132.9 39.3201C132.89 33.3901 129.2 28.2901 123.92 26.0701Z" fill="#C9F9E6"/>
<path d="M121.32 27.03C121.38 26.52 121.41 26 121.41 25.47C121.41 17.49 114.72 11.02 106.47 11.02C98.22 11.02 91.53 17.49 91.53 25.47C91.53 26 91.56 26.52 91.62 27.03C86.34 29.26 82.64 34.35 82.64 40.28C82.64 48.26 89.33 54.73 97.58 54.73C100.91 54.73 103.98 53.68 106.47 51.89C108.95 53.67 112.03 54.73 115.36 54.73C123.61 54.73 130.3 48.26 130.3 40.28C130.29 34.35 126.6 29.25 121.32 27.03Z" fill="#C8F9E6"/>
<path d="M118.51 27.8201C118.57 27.3101 118.6 26.7901 118.6 26.2601C118.6 18.2801 111.91 11.8101 103.66 11.8101C95.41 11.8101 88.72 18.2801 88.72 26.2601C88.72 26.7901 88.75 27.3101 88.81 27.8201C83.53 30.0501 79.83 35.1401 79.83 41.0701C79.83 49.0501 86.52 55.5201 94.77 55.5201C98.1 55.5201 101.17 54.4701 103.66 52.6801C106.14 54.4601 109.22 55.5201 112.55 55.5201C120.8 55.5201 127.49 49.0501 127.49 41.0701C127.49 35.1401 123.79 30.0501 118.51 27.8201Z" fill="#C7F8E5"/>
<path d="M115.52 28.47C115.58 27.96 115.61 27.44 115.61 26.91C115.61 18.93 108.92 12.46 100.67 12.46C92.42 12.46 85.73 18.93 85.73 26.91C85.73 27.44 85.76 27.96 85.82 28.47C80.54 30.7 76.84 35.79 76.84 41.72C76.84 49.7 83.53 56.17 91.78 56.17C95.11 56.17 98.18 55.12 100.67 53.33C103.15 55.11 106.23 56.17 109.56 56.17C117.81 56.17 124.5 49.7 124.5 41.72C124.49 35.79 120.8 30.7 115.52 28.47Z" fill="#C6F8E4"/>
<path d="M112.35 28.9802C112.41 28.4702 112.44 27.9502 112.44 27.4202C112.44 19.4402 105.75 12.9702 97.5 12.9702C89.25 12.9702 82.56 19.4402 82.56 27.4202C82.56 27.9502 82.59 28.4702 82.65 28.9802C77.37 31.2102 73.67 36.3002 73.67 42.2302C73.67 50.2102 80.36 56.6802 88.61 56.6802C91.94 56.6802 95.01 55.6302 97.5 53.8402C99.98 55.6202 103.06 56.6802 106.39 56.6802C114.64 56.6802 121.33 50.2102 121.33 42.2302C121.33 36.3002 117.64 31.2102 112.35 28.9802Z" fill="#C5F8E4"/>
<path d="M109.05 29.3601C109.11 28.8501 109.14 28.3301 109.14 27.8001C109.14 19.8201 102.45 13.3501 94.2 13.3501C85.95 13.3501 79.26 19.8201 79.26 27.8001C79.26 28.3301 79.29 28.8501 79.35 29.3601C74.07 31.5901 70.37 36.6801 70.37 42.6101C70.37 50.5901 77.06 57.0601 85.31 57.0601C88.64 57.0601 91.71 56.0101 94.2 54.2201C96.68 56.0001 99.76 57.0601 103.09 57.0601C111.34 57.0601 118.03 50.5901 118.03 42.6101C118.02 36.6801 114.33 31.5901 109.05 29.3601Z" fill="#C4F7E3"/>
<path d="M105.61 29.6301C105.67 29.1201 105.7 28.6001 105.7 28.0701C105.7 20.0901 99.01 13.6201 90.76 13.6201C82.51 13.6201 75.8201 20.0901 75.8201 28.0701C75.8201 28.6001 75.8501 29.1201 75.9101 29.6301C70.6301 31.8601 66.9301 36.9501 66.9301 42.8801C66.9301 50.8601 73.6201 57.3301 81.8701 57.3301C85.2001 57.3301 88.27 56.2801 90.76 54.4901C93.24 56.2701 96.32 57.3301 99.65 57.3301C107.9 57.3301 114.59 50.8601 114.59 42.8801C114.58 36.9501 110.89 31.8601 105.61 29.6301Z" fill="#C3F7E3"/>
<path d="M102.06 29.8C102.12 29.29 102.15 28.77 102.15 28.24C102.15 20.26 95.46 13.79 87.21 13.79C78.96 13.79 72.27 20.26 72.27 28.24C72.27 28.77 72.3 29.29 72.36 29.8C67.08 32.03 63.38 37.12 63.38 43.05C63.38 51.03 70.07 57.5 78.32 57.5C81.65 57.5 84.72 56.45 87.21 54.66C89.69 56.44 92.77 57.5 96.1 57.5C104.35 57.5 111.04 51.03 111.04 43.05C111.03 37.12 107.34 32.03 102.06 29.8Z" fill="#C2F7E2"/>
<path d="M98.42 29.8801C98.48 29.3701 98.51 28.8501 98.51 28.3201C98.51 20.3401 91.82 13.8701 83.57 13.8701C75.32 13.8701 68.63 20.3401 68.63 28.3201C68.63 28.8501 68.66 29.3701 68.72 29.8801C63.44 32.1101 59.74 37.2001 59.74 43.1301C59.74 51.1101 66.43 57.5801 74.68 57.5801C78.01 57.5801 81.08 56.5301 83.57 54.7401C86.05 56.5201 89.13 57.5801 92.46 57.5801C100.71 57.5801 107.4 51.1101 107.4 43.1301C107.4 37.2001 103.7 32.1101 98.42 29.8801Z" fill="#C1F6E2"/>
<path d="M94.71 29.8899C94.77 29.3799 94.8 28.8599 94.8 28.3299C94.8 20.3499 88.11 13.8799 79.86 13.8799C71.61 13.8799 64.92 20.3499 64.92 28.3299C64.92 28.8599 64.95 29.3799 65.01 29.8899C59.73 32.1199 56.03 37.2099 56.03 43.1399C56.03 51.1199 62.72 57.5899 70.97 57.5899C74.3 57.5899 77.37 56.5399 79.86 54.7499C82.34 56.5299 85.42 57.5899 88.75 57.5899C97 57.5899 103.69 51.1199 103.69 43.1399C103.69 37.2099 100 32.1099 94.71 29.8899Z" fill="#C0F6E1"/>
<path d="M90.96 29.8298C91.02 29.3198 91.05 28.7998 91.05 28.2698C91.05 20.2898 84.36 13.8198 76.11 13.8198C67.86 13.8198 61.17 20.2898 61.17 28.2698C61.17 28.7998 61.2 29.3198 61.26 29.8298C55.98 32.0598 52.28 37.1498 52.28 43.0798C52.28 51.0598 58.97 57.5298 67.22 57.5298C70.55 57.5298 73.62 56.4798 76.11 54.6898C78.59 56.4698 81.67 57.5298 85 57.5298C93.25 57.5298 99.94 51.0598 99.94 43.0798C99.93 37.1498 96.24 32.0498 90.96 29.8298Z" fill="#BFF6E0"/>
<path d="M87.17 29.7102C87.23 29.2002 87.26 28.6802 87.26 28.1502C87.26 20.1702 80.57 13.7002 72.32 13.7002C64.07 13.7002 57.38 20.1702 57.38 28.1502C57.38 28.6802 57.41 29.2002 57.47 29.7102C52.19 31.9402 48.49 37.0302 48.49 42.9602C48.49 50.9402 55.18 57.4102 63.43 57.4102C66.76 57.4102 69.83 56.3602 72.32 54.5702C74.8 56.3502 77.88 57.4102 81.21 57.4102C89.46 57.4102 96.15 50.9402 96.15 42.9602C96.14 37.0402 92.45 31.9402 87.17 29.7102Z" fill="#BEF5E0"/>
<path d="M83.3699 29.5598C83.4299 29.0498 83.4599 28.5298 83.4599 27.9998C83.4599 20.0198 76.7699 13.5498 68.5199 13.5498C60.2699 13.5498 53.5799 20.0198 53.5799 27.9998C53.5799 28.5298 53.6099 29.0498 53.6699 29.5598C48.3899 31.7898 44.6899 36.8798 44.6899 42.8098C44.6899 50.7898 51.3799 57.2598 59.6299 57.2598C62.9599 57.2598 66.0299 56.2098 68.5199 54.4198C70.9999 56.1998 74.0799 57.2598 77.4099 57.2598C85.6599 57.2598 92.3499 50.7898 92.3499 42.8098C92.3399 36.8798 88.6499 31.7898 83.3699 29.5598Z" fill="#BDF5DF"/>
<path d="M79.57 29.3801C79.63 28.8701 79.66 28.3501 79.66 27.8201C79.66 19.8401 72.97 13.3701 64.72 13.3701C56.47 13.3701 49.78 19.8401 49.78 27.8201C49.78 28.3501 49.81 28.8701 49.87 29.3801C44.59 31.6101 40.89 36.7001 40.89 42.6301C40.89 50.6101 47.58 57.0801 55.83 57.0801C59.16 57.0801 62.23 56.0301 64.72 54.2401C67.2 56.0201 70.28 57.0801 73.61 57.0801C81.86 57.0801 88.55 50.6101 88.55 42.6301C88.55 36.7101 84.85 31.6101 79.57 29.3801Z" fill="#BCF5DF"/>
<path d="M75.81 29.1902C75.87 28.6802 75.9 28.1602 75.9 27.6302C75.9 19.6502 69.21 13.1802 60.96 13.1802C52.71 13.1802 46.02 19.6502 46.02 27.6302C46.02 28.1602 46.05 28.6802 46.11 29.1902C40.83 31.4202 37.13 36.5102 37.13 42.4402C37.13 50.4202 43.82 56.8902 52.07 56.8902C55.4 56.8902 58.47 55.8402 60.96 54.0502C63.44 55.8302 66.52 56.8902 69.85 56.8902C78.1 56.8902 84.79 50.4202 84.79 42.4402C84.78 36.5102 81.09 31.4202 75.81 29.1902Z" fill="#BBF4DE"/>
<path d="M72.09 28.99C72.15 28.48 72.18 27.96 72.18 27.43C72.18 19.45 65.49 12.98 57.24 12.98C48.99 12.98 42.3 19.45 42.3 27.43C42.3 27.96 42.33 28.48 42.39 28.99C37.11 31.22 33.41 36.31 33.41 42.24C33.41 50.22 40.1 56.69 48.35 56.69C51.68 56.69 54.75 55.64 57.24 53.85C59.72 55.63 62.8 56.69 66.13 56.69C74.38 56.69 81.07 50.22 81.07 42.24C81.06 36.31 77.37 31.22 72.09 28.99Z" fill="#BAF4DE"/>
<path d="M68.43 28.8C68.49 28.29 68.52 27.77 68.52 27.24C68.52 19.26 61.83 12.79 53.58 12.79C45.33 12.79 38.64 19.26 38.64 27.24C38.64 27.77 38.67 28.29 38.73 28.8C33.45 31.03 29.75 36.12 29.75 42.05C29.75 50.03 36.44 56.5 44.69 56.5C48.02 56.5 51.09 55.45 53.58 53.66C56.06 55.44 59.14 56.5 62.47 56.5C70.72 56.5 77.41 50.03 77.41 42.05C77.41 36.12 73.71 31.03 68.43 28.8Z" fill="#B9F4DD"/>
<path d="M64.8601 28.6301C64.9201 28.1201 64.9501 27.6001 64.9501 27.0701C64.9501 19.0901 58.2601 12.6201 50.0101 12.6201C41.7601 12.6201 35.0701 19.0901 35.0701 27.0701C35.0701 27.6001 35.1001 28.1201 35.1601 28.6301C29.8801 30.8601 26.1801 35.9501 26.1801 41.8801C26.1801 49.8601 32.8701 56.3301 41.1201 56.3301C44.4501 56.3301 47.5201 55.2801 50.0101 53.4901C52.4901 55.2701 55.5701 56.3301 58.9001 56.3301C67.1501 56.3301 73.84 49.8601 73.84 41.8801C73.84 35.9601 70.1501 30.8601 64.8601 28.6301Z" fill="#B8F3DC"/>
<path d="M61.4 28.5002C61.46 27.9902 61.49 27.4702 61.49 26.9402C61.49 18.9602 54.8 12.4902 46.55 12.4902C38.3 12.4902 31.61 18.9602 31.61 26.9402C31.61 27.4702 31.64 27.9902 31.7 28.5002C26.42 30.7302 22.72 35.8202 22.72 41.7502C22.72 49.7302 29.41 56.2002 37.66 56.2002C40.99 56.2002 44.06 55.1502 46.55 53.3602C49.03 55.1402 52.11 56.2002 55.44 56.2002C63.69 56.2002 70.38 49.7302 70.38 41.7502C70.38 35.8202 66.68 30.7302 61.4 28.5002Z" fill="#B7F3DC"/>
<path d="M58.06 28.4099C58.12 27.8999 58.15 27.3799 58.15 26.8499C58.15 18.8699 51.46 12.3999 43.21 12.3999C34.96 12.3999 28.27 18.8699 28.27 26.8499C28.27 27.3799 28.3 27.8999 28.36 28.4099C23.08 30.6399 19.38 35.7299 19.38 41.6599C19.38 49.6399 26.07 56.1099 34.32 56.1099C37.65 56.1099 40.72 55.0599 43.21 53.2699C45.69 55.0499 48.77 56.1099 52.1 56.1099C60.35 56.1099 67.04 49.6399 67.04 41.6599C67.04 35.7399 63.34 30.6399 58.06 28.4099Z" fill="#B6F3DB"/>
<path d="M54.8699 28.3801C54.9299 27.8701 54.9599 27.3501 54.9599 26.8201C54.9599 18.8401 48.2699 12.3701 40.0199 12.3701C31.7699 12.3701 25.0799 18.8401 25.0799 26.8201C25.0799 27.3501 25.1099 27.8701 25.1699 28.3801C19.8899 30.6101 16.1899 35.7001 16.1899 41.6301C16.1899 49.6101 22.8799 56.0801 31.1299 56.0801C34.4599 56.0801 37.5299 55.0301 40.0199 53.2401C42.4999 55.0201 45.5799 56.0801 48.9099 56.0801C57.1599 56.0801 63.8499 49.6101 63.8499 41.6301C63.8399 35.7101 60.1499 30.6101 54.8699 28.3801Z" fill="#B5F2DB"/>
<path d="M51.83 28.4202C51.89 27.9102 51.92 27.3902 51.92 26.8602C51.92 18.8802 45.23 12.4102 36.98 12.4102C28.73 12.4102 22.04 18.8802 22.04 26.8602C22.04 27.3902 22.07 27.9102 22.13 28.4202C16.85 30.6502 13.15 35.7402 13.15 41.6702C13.15 49.6502 19.84 56.1202 28.09 56.1202C31.42 56.1202 34.49 55.0702 36.98 53.2802C39.46 55.0602 42.54 56.1202 45.87 56.1202C54.12 56.1202 60.81 49.6502 60.81 41.6702C60.81 35.7502 57.12 30.6502 51.83 28.4202Z" fill="#B4F2DA"/>
<path d="M48.99 28.55C49.05 28.04 49.0801 27.52 49.0801 26.99C49.0801 19.01 42.39 12.54 34.14 12.54C25.89 12.54 19.2 19.01 19.2 26.99C19.2 27.52 19.2301 28.04 19.2901 28.55C14.0001 30.78 10.3 35.87 10.3 41.8C10.3 49.78 16.99 56.25 25.24 56.25C28.57 56.25 31.64 55.2 34.13 53.41C36.61 55.19 39.69 56.25 43.02 56.25C51.27 56.25 57.96 49.78 57.96 41.8C57.96 35.87 54.27 30.78 48.99 28.55Z" fill="#B3F2DA"/>
<path d="M46.34 28.76C46.4 28.25 46.43 27.73 46.43 27.2C46.43 19.22 39.74 12.75 31.49 12.75C23.24 12.75 16.55 19.22 16.55 27.2C16.55 27.73 16.58 28.25 16.64 28.76C11.36 30.99 7.66003 36.08 7.66003 42.01C7.66003 49.99 14.35 56.46 22.6 56.46C25.93 56.46 29 55.41 31.49 53.62C33.97 55.4 37.05 56.46 40.38 56.46C48.63 56.46 55.32 49.99 55.32 42.01C55.32 36.09 51.62 30.99 46.34 28.76Z" fill="#B2F1D9"/>
<path d="M43.92 29.0901C43.98 28.5801 44.01 28.0601 44.01 27.5301C44.01 19.5501 37.32 13.0801 29.07 13.0801C20.82 13.0801 14.13 19.5501 14.13 27.5301C14.13 28.0601 14.16 28.5801 14.22 29.0901C8.93999 31.3201 5.23999 36.4101 5.23999 42.3401C5.23999 50.3201 11.93 56.7901 20.18 56.7901C23.51 56.7901 26.58 55.7401 29.07 53.9501C31.55 55.7301 34.63 56.7901 37.96 56.7901C46.21 56.7901 52.9 50.3201 52.9 42.3401C52.89 36.4101 49.2 31.3201 43.92 29.0901Z" fill="#B1F1D8"/>
<path d="M41.7301 29.53C41.7901 29.02 41.82 28.5 41.82 27.97C41.82 19.99 35.13 13.52 26.88 13.52C18.63 13.52 11.94 19.99 11.94 27.97C11.94 28.5 11.97 29.02 12.03 29.53C6.75005 31.76 3.05005 36.85 3.05005 42.78C3.05005 50.76 9.74005 57.23 17.9901 57.23C21.3201 57.23 24.39 56.18 26.88 54.39C29.36 56.17 32.44 57.23 35.77 57.23C44.02 57.23 50.71 50.76 50.71 42.78C50.71 36.86 47.0101 31.76 41.7301 29.53Z" fill="#B1F1D8"/>
<path d="M39.81 30.1101C39.87 29.6001 39.9 29.0801 39.9 28.5501C39.9 20.5701 33.21 14.1001 24.96 14.1001C16.71 14.1001 10.02 20.5701 10.02 28.5501C10.02 29.0801 10.05 29.6001 10.11 30.1101C4.83 32.3401 1.13 37.4301 1.13 43.3601C1.13 51.3401 7.82 57.8101 16.07 57.8101C19.4 57.8101 22.47 56.7601 24.96 54.9701C27.44 56.7501 30.52 57.8101 33.85 57.8101C42.1 57.8101 48.79 51.3401 48.79 43.3601C48.79 37.4301 45.09 32.3401 39.81 30.1101Z" fill="#B0F0D7"/>
<path d="M38.17 30.8298C38.23 30.3198 38.26 29.7998 38.26 29.2698C38.26 21.2898 31.57 14.8198 23.32 14.8198C15.07 14.8198 8.37999 21.2898 8.37999 29.2698C8.37999 29.7998 8.40999 30.3198 8.46999 30.8298C3.18999 33.0598 -0.51001 38.1498 -0.51001 44.0798C-0.51001 52.0598 6.17999 58.5298 14.43 58.5298C17.76 58.5298 20.83 57.4798 23.32 55.6898C25.8 57.4698 28.88 58.5298 32.21 58.5298C40.46 58.5298 47.15 52.0598 47.15 44.0798C47.14 38.1498 43.45 33.0598 38.17 30.8298Z" fill="#AFF0D7"/>
<path d="M36.83 31.6999C36.89 31.1899 36.92 30.6699 36.92 30.1399C36.92 22.1599 30.23 15.6899 21.98 15.6899C13.73 15.6899 7.04002 22.1599 7.04002 30.1399C7.04002 30.6699 7.07002 31.1899 7.13002 31.6999C1.85002 33.9299 -1.84998 39.0199 -1.84998 44.9499C-1.84998 52.9299 4.84002 59.3999 13.09 59.3999C16.42 59.3999 19.49 58.3499 21.98 56.5599C24.46 58.3399 27.54 59.3999 30.87 59.3999C39.12 59.3999 45.81 52.9299 45.81 44.9499C45.8 39.0299 42.11 33.9299 36.83 31.6999Z" fill="#AEF0D6"/>
<path d="M35.8 32.7502C35.86 32.2402 35.89 31.7202 35.89 31.1902C35.89 23.2102 29.2 16.7402 20.95 16.7402C12.7 16.7402 6.00999 23.2102 6.00999 31.1902C6.00999 31.7202 6.03999 32.2402 6.09999 32.7502C0.819994 34.9802 -2.88 40.0702 -2.88 46.0002C-2.88 53.9802 3.81 60.4502 12.06 60.4502C15.39 60.4502 18.46 59.4002 20.95 57.6102C23.43 59.3902 26.51 60.4502 29.84 60.4502C38.09 60.4502 44.78 53.9802 44.78 46.0002C44.78 40.0702 41.08 34.9802 35.8 32.7502Z" fill="#ADEFD6"/>
<path d="M35.16 33.8699C35.22 33.3599 35.25 32.8399 35.25 32.3099C35.25 24.3299 28.56 17.8599 20.31 17.8599C12.06 17.8599 5.36998 24.3299 5.36998 32.3099C5.36998 32.8399 5.39998 33.3599 5.45998 33.8699C0.17998 36.0999 -3.52002 41.1899 -3.52002 47.1199C-3.52002 55.0999 3.16998 61.5699 11.42 61.5699C14.75 61.5699 17.82 60.5199 20.31 58.7299C22.79 60.5099 25.87 61.5699 29.2 61.5699C37.45 61.5699 44.14 55.0999 44.14 47.1199C44.14 41.1899 40.44 36.0899 35.16 33.8699Z" fill="#ACEFD5"/>
<path d="M34.95 34.4802C35.01 33.9702 35.04 33.4502 35.04 32.9202C35.04 24.9402 28.35 18.4702 20.1 18.4702C11.85 18.4702 5.16002 24.9402 5.16002 32.9202C5.16002 33.4502 5.19002 33.9702 5.25002 34.4802C-0.0299811 36.7102 -3.72998 41.8002 -3.72998 47.7302C-3.72998 55.7102 2.96002 62.1802 11.21 62.1802C14.54 62.1802 17.61 61.1302 20.1 59.3402C22.58 61.1202 25.66 62.1802 28.99 62.1802C37.24 62.1802 43.93 55.7102 43.93 47.7302C43.93 41.8002 40.24 36.7102 34.95 34.4802Z" fill="#ABEFD4"/>
<path d="M34.83 35.1199C34.89 34.6099 34.92 34.0899 34.92 33.5599C34.92 25.5799 28.23 19.1099 19.98 19.1099C11.73 19.1099 5.04002 25.5799 5.04002 33.5599C5.04002 34.0899 5.07002 34.6099 5.13002 35.1199C-0.149976 37.3499 -3.84998 42.4399 -3.84998 48.3699C-3.84998 56.3499 2.84002 62.8199 11.09 62.8199C14.42 62.8199 17.49 61.7699 19.98 59.9799C22.46 61.7599 25.54 62.8199 28.87 62.8199C37.12 62.8199 43.81 56.3499 43.81 48.3699C43.8 42.4499 40.11 37.3499 34.83 35.1199Z" fill="#AAEFD4"/>
<path d="M34.78 35.8098C34.84 35.2998 34.87 34.7798 34.87 34.2498C34.87 26.2698 28.18 19.7998 19.93 19.7998C11.68 19.7998 4.98998 26.2698 4.98998 34.2498C4.98998 34.7798 5.01998 35.2998 5.07998 35.8098C-0.200021 38.0398 -3.90002 43.1298 -3.90002 49.0598C-3.90002 57.0398 2.78998 63.5098 11.04 63.5098C14.37 63.5098 17.44 62.4598 19.93 60.6698C22.41 62.4498 25.49 63.5098 28.82 63.5098C37.07 63.5098 43.76 57.0398 43.76 49.0598C43.75 43.1298 40.06 38.0398 34.78 35.8098Z" fill="#A9EED3"/>
<path d="M34.81 36.53C34.87 36.02 34.9 35.5 34.9 34.97C34.9 26.99 28.21 20.52 19.96 20.52C11.71 20.52 5.02 26.99 5.02 34.97C5.02 35.5 5.05 36.02 5.11 36.53C-0.169996 38.76 -3.87 43.85 -3.87 49.78C-3.87 57.76 2.82 64.23 11.07 64.23C14.4 64.23 17.47 63.18 19.96 61.39C22.44 63.17 25.52 64.23 28.85 64.23C37.1 64.23 43.79 57.76 43.79 49.78C43.78 43.85 40.09 38.76 34.81 36.53Z" fill="#A8EED3"/>
<path d="M34.92 37.2898C34.98 36.7798 35.01 36.2598 35.01 35.7298C35.01 27.7498 28.32 21.2798 20.07 21.2798C11.82 21.2798 5.12999 27.7498 5.12999 35.7298C5.12999 36.2598 5.15999 36.7798 5.21999 37.2898C-0.0600104 39.5198 -3.76001 44.6098 -3.76001 50.5398C-3.76001 58.5198 2.92999 64.9898 11.18 64.9898C14.51 64.9898 17.58 63.9398 20.07 62.1498C22.55 63.9298 25.63 64.9898 28.96 64.9898C37.21 64.9898 43.9 58.5198 43.9 50.5398C43.89 44.6098 40.2 39.5198 34.92 37.2898Z" fill="#A7EED2"/>
<path d="M35.1199 38.0901C35.1799 37.5801 35.2099 37.0601 35.2099 36.5301C35.2099 28.5501 28.5199 22.0801 20.2699 22.0801C12.0199 22.0801 5.32994 28.5501 5.32994 36.5301C5.32994 37.0601 5.35994 37.5801 5.41994 38.0901C0.139941 40.3201 -3.56006 45.4101 -3.56006 51.3401C-3.56006 59.3201 3.12994 65.7901 11.3799 65.7901C14.7099 65.7901 17.7799 64.7401 20.2699 62.9501C22.7499 64.7301 25.8299 65.7901 29.1599 65.7901C37.4099 65.7901 44.0999 59.3201 44.0999 51.3401C44.0899 45.4101 40.3999 40.3201 35.1199 38.0901Z" fill="#A6EDD2"/>
<path d="M35.4 38.9299C35.46 38.4199 35.49 37.8999 35.49 37.3699C35.49 29.3899 28.8 22.9199 20.55 22.9199C12.3 22.9199 5.60997 29.3899 5.60997 37.3699C5.60997 37.8999 5.63997 38.4199 5.69997 38.9299C0.41997 41.1599 -3.28003 46.2499 -3.28003 52.1799C-3.28003 60.1599 3.40997 66.6299 11.66 66.6299C14.99 66.6299 18.06 65.5799 20.55 63.7899C23.03 65.5699 26.11 66.6299 29.44 66.6299C37.69 66.6299 44.38 60.1599 44.38 52.1799C44.38 46.2499 40.68 41.1599 35.4 38.9299Z" fill="#A5EDD1"/>
<path d="M35.77 39.8098C35.83 39.2998 35.86 38.7798 35.86 38.2498C35.86 30.2698 29.17 23.7998 20.92 23.7998C12.67 23.7998 5.97997 30.2698 5.97997 38.2498C5.97997 38.7798 6.00996 39.2998 6.06997 39.8098C0.789965 42.0398 -2.91003 47.1298 -2.91003 53.0598C-2.91003 61.0398 3.77996 67.5098 12.03 67.5098C15.36 67.5098 18.43 66.4598 20.92 64.6698C23.4 66.4498 26.48 67.5098 29.81 67.5098C38.06 67.5098 44.75 61.0398 44.75 53.0598C44.75 47.1298 41.05 42.0398 35.77 39.8098Z" fill="#A4EDD0"/>
<path d="M36.2301 40.7302C36.2901 40.2202 36.32 39.7002 36.32 39.1702C36.32 31.1902 29.63 24.7202 21.38 24.7202C13.13 24.7202 6.44005 31.1902 6.44005 39.1702C6.44005 39.7002 6.47005 40.2202 6.53005 40.7302C1.25005 42.9602 -2.44995 48.0502 -2.44995 53.9802C-2.44995 61.9602 4.24005 68.4302 12.4901 68.4302C15.8201 68.4302 18.89 67.3802 21.38 65.5902C23.86 67.3702 26.94 68.4302 30.27 68.4302C38.52 68.4302 45.21 61.9602 45.21 53.9802C45.21 48.0502 41.5101 42.9602 36.2301 40.7302Z" fill="#A3ECD0"/>
<path d="M36.78 41.6999C36.84 41.1899 36.87 40.6699 36.87 40.1399C36.87 32.1599 30.18 25.6899 21.93 25.6899C13.68 25.6899 6.98998 32.1599 6.98998 40.1399C6.98998 40.6699 7.01998 41.1899 7.07998 41.6999C1.79998 43.9299 -1.90002 49.0199 -1.90002 54.9499C-1.90002 62.9299 4.78998 69.3999 13.04 69.3999C16.37 69.3999 19.44 68.3499 21.93 66.5599C24.41 68.3399 27.49 69.3999 30.82 69.3999C39.07 69.3999 45.76 62.9299 45.76 54.9499C45.76 49.0199 42.06 43.9199 36.78 41.6999Z" fill="#A2ECCF"/>
<path d="M37.43 42.6999C37.49 42.1899 37.52 41.6699 37.52 41.1399C37.52 33.1599 30.83 26.6899 22.58 26.6899C14.33 26.6899 7.64 33.1599 7.64 41.1399C7.64 41.6699 7.67 42.1899 7.73 42.6999C2.45 44.9299 -1.25 50.0199 -1.25 55.9499C-1.25 63.9299 5.44 70.3999 13.69 70.3999C17.02 70.3999 20.09 69.3499 22.58 67.5599C25.06 69.3399 28.14 70.3999 31.47 70.3999C39.72 70.3999 46.41 63.9299 46.41 55.9499C46.4 50.0199 42.71 44.9299 37.43 42.6999Z" fill="#A1ECCF"/>
<path d="M38.16 43.7502C38.22 43.2402 38.25 42.7202 38.25 42.1902C38.25 34.2102 31.56 27.7402 23.31 27.7402C15.06 27.7402 8.36998 34.2102 8.36998 42.1902C8.36998 42.7202 8.39998 43.2402 8.45998 43.7502C3.17998 45.9802 -0.52002 51.0702 -0.52002 57.0002C-0.52002 64.9802 6.16998 71.4502 14.42 71.4502C17.75 71.4502 20.82 70.4002 23.31 68.6102C25.79 70.3902 28.87 71.4502 32.2 71.4502C40.45 71.4502 47.14 64.9802 47.14 57.0002C47.14 51.0702 43.45 45.9802 38.16 43.7502Z" fill="#A0EBCE"/>
<path d="M39.0001 44.8401C39.0601 44.3301 39.0901 43.8101 39.0901 43.2801C39.0901 35.3001 32.4001 28.8301 24.1501 28.8301C15.9001 28.8301 9.20006 35.3001 9.20006 43.2801C9.20006 43.8101 9.23006 44.3301 9.29006 44.8401C4.01006 47.0701 0.310059 52.1601 0.310059 58.0901C0.310059 66.0701 7.00006 72.5401 15.2501 72.5401C18.5801 72.5401 21.6501 71.4901 24.1401 69.7001C26.6201 71.4801 29.7001 72.5401 33.0301 72.5401C41.2801 72.5401 47.9701 66.0701 47.9701 58.0901C47.9701 52.1601 44.2801 47.0701 39.0001 44.8401Z" fill="#9FEBCE"/>
<path d="M39.93 45.9802C39.99 45.4702 40.02 44.9502 40.02 44.4202C40.02 36.4402 33.33 29.9702 25.08 29.9702C16.83 29.9702 10.14 36.4402 10.14 44.4202C10.14 44.9502 10.17 45.4702 10.23 45.9802C4.95 48.2102 1.25 53.3002 1.25 59.2302C1.25 67.2102 7.94 73.6802 16.19 73.6802C19.52 73.6802 22.59 72.6302 25.08 70.8402C27.56 72.6202 30.64 73.6802 33.97 73.6802C42.22 73.6802 48.91 67.2102 48.91 59.2302C48.9 53.3002 45.21 48.2102 39.93 45.9802Z" fill="#9EEBCD"/>
<path d="M40.96 47.1599C41.02 46.6499 41.05 46.1299 41.05 45.5999C41.05 37.6199 34.36 31.1499 26.11 31.1499C17.86 31.1499 11.16 37.6199 11.16 45.5999C11.16 46.1299 11.19 46.6499 11.25 47.1599C5.97002 49.3899 2.27002 54.4799 2.27002 60.4099C2.27002 68.3899 8.96002 74.8599 17.21 74.8599C20.54 74.8599 23.61 73.8099 26.1 72.0199C28.58 73.7999 31.66 74.8599 34.99 74.8599C43.24 74.8599 49.93 68.3899 49.93 60.4099C49.93 54.4799 46.24 49.3899 40.96 47.1599Z" fill="#9DEACC"/>
<path d="M42.09 48.3899C42.15 47.8799 42.18 47.3599 42.18 46.8299C42.18 38.8499 35.49 32.3799 27.24 32.3799C18.99 32.3799 12.3 38.8499 12.3 46.8299C12.3 47.3599 12.33 47.8799 12.39 48.3899C7.11003 50.6199 3.41003 55.7099 3.41003 61.6399C3.41003 69.6199 10.1 76.0899 18.35 76.0899C21.68 76.0899 24.75 75.0399 27.24 73.2499C29.72 75.0299 32.8 76.0899 36.13 76.0899C44.38 76.0899 51.07 69.6199 51.07 61.6399C51.06 55.7099 47.37 50.6099 42.09 48.3899Z" fill="#9CEACC"/>
<path d="M43.32 49.6599C43.38 49.1499 43.41 48.6299 43.41 48.0999C43.41 40.1199 36.72 33.6499 28.47 33.6499C20.22 33.6499 13.53 40.1199 13.53 48.0999C13.53 48.6299 13.56 49.1499 13.62 49.6599C8.34001 51.8899 4.64001 56.9799 4.64001 62.9099C4.64001 70.8899 11.33 77.3599 19.58 77.3599C22.91 77.3599 25.98 76.3099 28.47 74.5199C30.95 76.2999 34.03 77.3599 37.36 77.3599C45.61 77.3599 52.3 70.8899 52.3 62.9099C52.3 56.9799 48.61 51.8899 43.32 49.6599Z" fill="#9BEACB"/>
<path d="M44.66 50.9802C44.72 50.4702 44.75 49.9502 44.75 49.4202C44.75 41.4402 38.06 34.9702 29.81 34.9702C21.56 34.9702 14.87 41.4402 14.87 49.4202C14.87 49.9502 14.9 50.4702 14.96 50.9802C9.67998 53.2102 5.97998 58.3002 5.97998 64.2302C5.97998 72.2102 12.67 78.6802 20.92 78.6802C24.25 78.6802 27.32 77.6302 29.81 75.8402C32.29 77.6202 35.37 78.6802 38.7 78.6802C46.95 78.6802 53.64 72.2102 53.64 64.2302C53.64 58.3002 49.94 53.2102 44.66 50.9802Z" fill="#9AE9CB"/>
<path d="M46.1101 52.3498C46.1701 51.8398 46.2001 51.3198 46.2001 50.7898C46.2001 42.8098 39.5101 36.3398 31.2601 36.3398C23.0101 36.3398 16.3201 42.8098 16.3201 50.7898C16.3201 51.3198 16.3501 51.8398 16.4101 52.3498C11.1301 54.5798 7.43005 59.6698 7.43005 65.5998C7.43005 73.5798 14.1201 80.0499 22.3701 80.0499C25.7001 80.0499 28.7701 78.9998 31.2601 77.2098C33.7401 78.9898 36.8201 80.0499 40.1501 80.0499C48.4001 80.0499 55.09 73.5798 55.09 65.5998C55.0801 59.6698 51.3901 54.5798 46.1101 52.3498Z" fill="#99E9CA"/>
<path d="M47.66 53.7698C47.72 53.2598 47.75 52.7398 47.75 52.2098C47.75 44.2298 41.06 37.7598 32.81 37.7598C24.56 37.7598 17.87 44.2298 17.87 52.2098C17.87 52.7398 17.9 53.2598 17.96 53.7698C12.68 55.9998 8.97998 61.0898 8.97998 67.0198C8.97998 74.9998 15.67 81.4698 23.92 81.4698C27.25 81.4698 30.32 80.4198 32.81 78.6298C35.29 80.4098 38.37 81.4698 41.7 81.4698C49.95 81.4698 56.64 74.9998 56.64 67.0198C56.63 61.0898 52.94 55.9898 47.66 53.7698Z" fill="#98E9CA"/>
<path d="M49.32 55.2302C49.38 54.7202 49.41 54.2002 49.41 53.6702C49.41 45.6902 42.72 39.2202 34.47 39.2202C26.22 39.2202 19.53 45.6902 19.53 53.6702C19.53 54.2002 19.56 54.7202 19.62 55.2302C14.34 57.4602 10.64 62.5502 10.64 68.4802C10.64 76.4602 17.33 82.9302 25.58 82.9302C28.91 82.9302 31.98 81.8802 34.47 80.0902C36.95 81.8702 40.03 82.9302 43.36 82.9302C51.61 82.9302 58.3 76.4602 58.3 68.4802C58.29 62.5502 54.6 57.4602 49.32 55.2302Z" fill="#97E8C9"/>
<path d="M51.09 56.7502C51.15 56.2402 51.18 55.7202 51.18 55.1902C51.18 47.2102 44.49 40.7402 36.24 40.7402C27.99 40.7402 21.3 47.2102 21.3 55.1902C21.3 55.7202 21.33 56.2402 21.39 56.7502C16.11 58.9802 12.41 64.0702 12.41 70.0002C12.41 77.9802 19.1 84.4502 27.35 84.4502C30.68 84.4502 33.75 83.4002 36.24 81.6102C38.72 83.3902 41.8 84.4502 45.13 84.4502C53.38 84.4502 60.07 77.9802 60.07 70.0002C60.07 64.0702 56.37 58.9802 51.09 56.7502Z" fill="#96E8C8"/>
<path d="M52.97 58.3098C53.03 57.7998 53.06 57.2798 53.06 56.7498C53.06 48.7698 46.37 42.2998 38.12 42.2998C29.87 42.2998 23.18 48.7698 23.18 56.7498C23.18 57.2798 23.21 57.7998 23.27 58.3098C17.99 60.5398 14.29 65.6298 14.29 71.5598C14.29 79.5398 20.98 86.0098 29.23 86.0098C32.56 86.0098 35.63 84.9598 38.12 83.1698C40.6 84.9498 43.68 86.0098 47.01 86.0098C55.26 86.0098 61.95 79.5398 61.95 71.5598C61.95 65.6398 58.26 60.5398 52.97 58.3098Z" fill="#96E8C8"/>
<path d="M54.97 59.9299C55.03 59.4199 55.06 58.8999 55.06 58.3699C55.06 50.3899 48.37 43.9199 40.12 43.9199C31.87 43.9199 25.18 50.3899 25.18 58.3699C25.18 58.8999 25.21 59.4199 25.27 59.9299C19.99 62.1599 16.29 67.2499 16.29 73.1799C16.29 81.1599 22.98 87.6299 31.23 87.6299C34.56 87.6299 37.63 86.5799 40.12 84.7899C42.6 86.5699 45.68 87.6299 49.01 87.6299C57.26 87.6299 63.95 81.1599 63.95 73.1799C63.95 67.2499 60.26 62.1599 54.97 59.9299Z" fill="#95E7C7"/>
<path d="M57.09 61.5998C57.15 61.0898 57.18 60.5698 57.18 60.0398C57.18 52.0598 50.49 45.5898 42.24 45.5898C33.99 45.5898 27.3 52.0598 27.3 60.0398C27.3 60.5698 27.33 61.0898 27.39 61.5998C22.11 63.8298 18.41 68.9198 18.41 74.8498C18.41 82.8298 25.1 89.2999 33.35 89.2999C36.68 89.2999 39.75 88.2498 42.24 86.4598C44.72 88.2398 47.8 89.2999 51.13 89.2999C59.38 89.2999 66.07 82.8298 66.07 74.8498C66.06 68.9198 62.37 63.8298 57.09 61.5998Z" fill="#94E7C7"/>
<path d="M59.32 63.3201C59.38 62.8101 59.41 62.2901 59.41 61.7601C59.41 53.7801 52.72 47.3101 44.47 47.3101C36.22 47.3101 29.53 53.7801 29.53 61.7601C29.53 62.2901 29.56 62.8101 29.62 63.3201C24.34 65.5501 20.64 70.6401 20.64 76.5701C20.64 84.5501 27.33 91.0201 35.58 91.0201C38.91 91.0201 41.98 89.9701 44.47 88.1801C46.95 89.9601 50.03 91.0201 53.36 91.0201C61.61 91.0201 68.3 84.5501 68.3 76.5701C68.3 70.6401 64.6 65.5501 59.32 63.3201Z" fill="#93E7C6"/>
<path d="M61.67 65.0998C61.73 64.5898 61.76 64.0698 61.76 63.5398C61.76 55.5598 55.07 49.0898 46.82 49.0898C38.57 49.0898 31.88 55.5598 31.88 63.5398C31.88 64.0698 31.91 64.5898 31.97 65.0998C26.69 67.3298 22.99 72.4198 22.99 78.3498C22.99 86.3298 29.68 92.7999 37.93 92.7999C41.26 92.7999 44.33 91.7498 46.82 89.9598C49.3 91.7398 52.38 92.7999 55.71 92.7999C63.96 92.7999 70.65 86.3298 70.65 78.3498C70.65 72.4198 66.96 67.3198 61.67 65.0998Z" fill="#92E6C6"/>
<path d="M64.15 66.9202C64.21 66.4102 64.24 65.8902 64.24 65.3602C64.24 57.3802 57.55 50.9102 49.3 50.9102C41.05 50.9102 34.36 57.3802 34.36 65.3602C34.36 65.8902 34.39 66.4102 34.45 66.9202C29.17 69.1502 25.47 74.2402 25.47 80.1702C25.47 88.1502 32.16 94.6201 40.41 94.6201C43.74 94.6201 46.81 93.5702 49.3 91.7802C51.78 93.5602 54.86 94.6201 58.19 94.6201C66.44 94.6201 73.13 88.1502 73.13 80.1702C73.12 74.2502 69.43 69.1502 64.15 66.9202Z" fill="#91E6C5"/>
<path d="M66.7401 68.8098C66.8001 68.2998 66.8301 67.7798 66.8301 67.2498C66.8301 59.2698 60.1401 52.7998 51.8901 52.7998C43.6401 52.7998 36.9501 59.2698 36.9501 67.2498C36.9501 67.7798 36.9801 68.2998 37.0401 68.8098C31.7601 71.0398 28.0601 76.1298 28.0601 82.0598C28.0601 90.0398 34.7501 96.5098 43.0001 96.5098C46.3301 96.5098 49.4001 95.4598 51.8901 93.6698C54.3701 95.4498 57.4501 96.5098 60.7801 96.5098C69.0301 96.5098 75.7201 90.0398 75.7201 82.0598C75.7201 76.1298 72.0201 71.0298 66.7401 68.8098Z" fill="#90E6C4"/>
<path d="M69.46 70.74C69.52 70.23 69.55 69.71 69.55 69.18C69.55 61.2 62.86 54.73 54.61 54.73C46.36 54.73 39.67 61.2 39.67 69.18C39.67 69.71 39.7 70.23 39.76 70.74C34.48 72.97 30.78 78.06 30.78 83.99C30.78 91.97 37.47 98.44 45.72 98.44C49.05 98.44 52.12 97.39 54.61 95.6C57.09 97.38 60.17 98.44 63.5 98.44C71.75 98.44 78.44 91.97 78.44 83.99C78.44 78.07 74.74 72.97 69.46 70.74Z" fill="#8FE5C4"/>
<path d="M72.31 72.74C72.37 72.23 72.4 71.71 72.4 71.18C72.4 63.2 65.71 56.73 57.46 56.73C49.21 56.73 42.52 63.2 42.52 71.18C42.52 71.71 42.55 72.23 42.61 72.74C37.33 74.97 33.63 80.06 33.63 85.99C33.63 93.97 40.32 100.44 48.57 100.44C51.9 100.44 54.97 99.39 57.46 97.6C59.94 99.38 63.02 100.44 66.35 100.44C74.6 100.44 81.29 93.97 81.29 85.99C81.28 80.06 77.59 74.96 72.31 72.74Z" fill="#8EE5C3"/>
<path d="M75.28 74.7898C75.34 74.2798 75.37 73.7598 75.37 73.2298C75.37 65.2498 68.68 58.7798 60.43 58.7798C52.18 58.7798 45.49 65.2498 45.49 73.2298C45.49 73.7598 45.52 74.2798 45.58 74.7898C40.3 77.0198 36.6 82.1098 36.6 88.0398C36.6 96.0198 43.29 102.49 51.54 102.49C54.87 102.49 57.94 101.44 60.43 99.6498C62.91 101.43 65.99 102.49 69.32 102.49C77.57 102.49 84.26 96.0198 84.26 88.0398C84.26 82.1098 80.56 77.0098 75.28 74.7898Z" fill="#8DE5C3"/>
<path d="M78.39 76.8899C78.45 76.3799 78.48 75.8599 78.48 75.3299C78.48 67.3499 71.79 60.8799 63.54 60.8799C55.29 60.8799 48.6 67.3499 48.6 75.3299C48.6 75.8599 48.63 76.3799 48.69 76.8899C43.41 79.1199 39.71 84.2099 39.71 90.1399C39.71 98.1199 46.4 104.59 54.65 104.59C57.98 104.59 61.05 103.54 63.54 101.75C66.02 103.53 69.1 104.59 72.43 104.59C80.68 104.59 87.37 98.1199 87.37 90.1399C87.36 84.2099 83.67 79.1199 78.39 76.8899Z" fill="#8CE4C2"/>
<path d="M81.6199 79.0598C81.6799 78.5498 81.7099 78.0298 81.7099 77.4998C81.7099 69.5198 75.0199 63.0498 66.7699 63.0498C58.5199 63.0498 51.8299 69.5198 51.8299 77.4998C51.8299 78.0298 51.8599 78.5498 51.9199 79.0598C46.6399 81.2898 42.9399 86.3798 42.9399 92.3098C42.9399 100.29 49.6299 106.76 57.8799 106.76C61.2099 106.76 64.2799 105.71 66.7699 103.92C69.2499 105.7 72.3299 106.76 75.6599 106.76C83.9099 106.76 90.5999 100.29 90.5999 92.3098C90.5999 86.3798 86.8999 81.2898 81.6199 79.0598Z" fill="#8BE4C2"/>
<path d="M84.9901 81.28C85.0501 80.77 85.0801 80.25 85.0801 79.72C85.0801 71.74 78.3901 65.27 70.1401 65.27C61.8901 65.27 55.2001 71.74 55.2001 79.72C55.2001 80.25 55.2301 80.77 55.2901 81.28C50.0101 83.51 46.3101 88.6 46.3101 94.53C46.3101 102.51 53.0001 108.98 61.2501 108.98C64.5801 108.98 67.6501 107.93 70.1401 106.14C72.6201 107.92 75.7001 108.98 79.0301 108.98C87.2801 108.98 93.9701 102.51 93.9701 94.53C93.9601 88.6 90.2701 83.51 84.9901 81.28Z" fill="#8AE4C1"/>
<path d="M88.4901 83.5598C88.5501 83.0498 88.5801 82.5298 88.5801 81.9998C88.5801 74.0198 81.8901 67.5498 73.6401 67.5498C65.3901 67.5498 58.7001 74.0198 58.7001 81.9998C58.7001 82.5298 58.7301 83.0498 58.7901 83.5598C53.5101 85.7898 49.8101 90.8798 49.8101 96.8098C49.8101 104.79 56.5001 111.26 64.7501 111.26C68.0801 111.26 71.1501 110.21 73.6401 108.42C76.1201 110.2 79.2001 111.26 82.5301 111.26C90.7801 111.26 97.4701 104.79 97.4701 96.8098C97.4601 90.8798 93.7701 85.7898 88.4901 83.5598Z" fill="#89E4C0"/>
<path d="M92.13 85.9001C92.19 85.3901 92.22 84.8701 92.22 84.3401C92.22 76.3601 85.53 69.8901 77.28 69.8901C69.03 69.8901 62.34 76.3601 62.34 84.3401C62.34 84.8701 62.37 85.3901 62.43 85.9001C57.15 88.1301 53.45 93.2201 53.45 99.1501C53.45 107.13 60.14 113.6 68.39 113.6C71.72 113.6 74.79 112.55 77.28 110.76C79.76 112.54 82.84 113.6 86.17 113.6C94.42 113.6 101.11 107.13 101.11 99.1501C101.1 93.2301 97.41 88.1301 92.13 85.9001Z" fill="#88E3C0"/>
<path d="M95.9 88.3C95.96 87.79 95.99 87.27 95.99 86.74C95.99 78.76 89.3 72.29 81.05 72.29C72.8 72.29 66.11 78.76 66.11 86.74C66.11 87.27 66.14 87.79 66.2 88.3C60.92 90.53 57.22 95.62 57.22 101.55C57.22 109.53 63.91 116 72.16 116C75.49 116 78.56 114.95 81.05 113.16C83.53 114.94 86.61 116 89.94 116C98.19 116 104.88 109.53 104.88 101.55C104.88 95.63 101.18 90.53 95.9 88.3Z" fill="#87E3BF"/>
<path d="M99.82 90.7698C99.88 90.2598 99.91 89.7398 99.91 89.2098C99.91 81.2298 93.22 74.7598 84.97 74.7598C76.72 74.7598 70.03 81.2298 70.03 89.2098C70.03 89.7398 70.06 90.2598 70.12 90.7698C64.84 92.9998 61.14 98.0898 61.14 104.02C61.14 112 67.83 118.47 76.08 118.47C79.41 118.47 82.48 117.42 84.97 115.63C87.45 117.41 90.53 118.47 93.86 118.47C102.11 118.47 108.8 112 108.8 104.02C108.79 98.0898 105.1 92.9998 99.82 90.7698Z" fill="#86E3BF"/>
<path d="M103.87 93.2898C103.93 92.7798 103.96 92.2598 103.96 91.7298C103.96 83.7498 97.2699 77.2798 89.0199 77.2798C80.7699 77.2798 74.0799 83.7498 74.0799 91.7298C74.0799 92.2598 74.1099 92.7798 74.1699 93.2898C68.8899 95.5198 65.1899 100.61 65.1899 106.54C65.1899 114.52 71.8799 120.99 80.1299 120.99C83.4599 120.99 86.5299 119.94 89.0199 118.15C91.4999 119.93 94.5799 120.99 97.9099 120.99C106.16 120.99 112.85 114.52 112.85 106.54C112.85 100.61 109.16 95.5198 103.87 93.2898Z" fill="#85E2BE"/>
<path d="M108.07 95.8801C108.13 95.3701 108.16 94.8501 108.16 94.3201C108.16 86.3401 101.47 79.8701 93.22 79.8701C84.97 79.8701 78.28 86.3401 78.28 94.3201C78.28 94.8501 78.31 95.3701 78.37 95.8801C73.09 98.1101 69.39 103.2 69.39 109.13C69.39 117.11 76.08 123.58 84.33 123.58C87.66 123.58 90.73 122.53 93.22 120.74C95.7 122.52 98.78 123.58 102.11 123.58C110.36 123.58 117.05 117.11 117.05 109.13C117.05 103.2 113.35 98.1101 108.07 95.8801Z" fill="#84E2BE"/>
<path d="M112.42 98.53C112.48 98.02 112.51 97.5 112.51 96.97C112.51 88.99 105.82 82.52 97.57 82.52C89.32 82.52 82.63 88.99 82.63 96.97C82.63 97.5 82.66 98.02 82.72 98.53C77.44 100.76 73.74 105.85 73.74 111.78C73.74 119.76 80.43 126.23 88.68 126.23C92.01 126.23 95.08 125.18 97.57 123.39C100.05 125.17 103.13 126.23 106.46 126.23C114.71 126.23 121.4 119.76 121.4 111.78C121.39 105.85 117.7 100.76 112.42 98.53Z" fill="#83E2BD"/>
<path d="M116.91 101.24C116.97 100.73 117 100.21 117 99.68C117 91.7 110.31 85.23 102.06 85.23C93.81 85.23 87.12 91.7 87.12 99.68C87.12 100.21 87.15 100.73 87.21 101.24C81.93 103.47 78.23 108.56 78.23 114.49C78.23 122.47 84.92 128.94 93.17 128.94C96.5 128.94 99.57 127.89 102.06 126.1C104.54 127.88 107.62 128.94 110.95 128.94C119.2 128.94 125.89 122.47 125.89 114.49C125.88 108.57 122.19 103.47 116.91 101.24Z" fill="#82E1BC"/>
<path d="M121.54 104.02C121.6 103.51 121.63 102.99 121.63 102.46C121.63 94.4798 114.94 88.0098 106.69 88.0098C98.44 88.0098 91.75 94.4798 91.75 102.46C91.75 102.99 91.78 103.51 91.84 104.02C86.56 106.25 82.86 111.34 82.86 117.27C82.86 125.25 89.55 131.72 97.8 131.72C101.13 131.72 104.2 130.67 106.69 128.88C109.17 130.66 112.25 131.72 115.58 131.72C123.83 131.72 130.52 125.25 130.52 117.27C130.52 111.34 126.83 106.25 121.54 104.02Z" fill="#81E1BC"/>
<path d="M126.33 106.86C126.39 106.35 126.42 105.83 126.42 105.3C126.42 97.3201 119.73 90.8501 111.48 90.8501C103.23 90.8501 96.54 97.3201 96.54 105.3C96.54 105.83 96.57 106.35 96.63 106.86C91.35 109.09 87.65 114.18 87.65 120.11C87.65 128.09 94.34 134.56 102.59 134.56C105.92 134.56 108.99 133.51 111.48 131.72C113.96 133.5 117.04 134.56 120.37 134.56C128.62 134.56 135.31 128.09 135.31 120.11C135.31 114.19 131.61 109.09 126.33 106.86Z" fill="#80E1BB"/>
<path d="M131.27 109.77C131.33 109.26 131.36 108.74 131.36 108.21C131.36 100.23 124.67 93.7598 116.42 93.7598C108.17 93.7598 101.48 100.23 101.48 108.21C101.48 108.74 101.51 109.26 101.57 109.77C96.29 112 92.59 117.09 92.59 123.02C92.59 131 99.28 137.47 107.53 137.47C110.86 137.47 113.93 136.42 116.42 134.63C118.9 136.41 121.98 137.47 125.31 137.47C133.56 137.47 140.25 131 140.25 123.02C140.24 117.1 136.55 112 131.27 109.77Z" fill="#7FE0BB"/>
<path d="M136.36 112.75C136.42 112.24 136.45 111.72 136.45 111.19C136.45 103.21 129.76 96.7402 121.51 96.7402C113.26 96.7402 106.57 103.21 106.57 111.19C106.57 111.72 106.6 112.24 106.66 112.75C101.38 114.98 97.6799 120.07 97.6799 126C97.6799 133.98 104.37 140.45 112.62 140.45C115.95 140.45 119.02 139.4 121.51 137.61C123.99 139.39 127.07 140.45 130.4 140.45C138.65 140.45 145.34 133.98 145.34 126C145.34 120.07 141.64 114.98 136.36 112.75Z" fill="#7EE0BA"/>
<path d="M141.61 115.79C141.67 115.28 141.7 114.76 141.7 114.23C141.7 106.25 135.01 99.7798 126.76 99.7798C118.51 99.7798 111.82 106.25 111.82 114.23C111.82 114.76 111.85 115.28 111.91 115.79C106.63 118.02 102.93 123.11 102.93 129.04C102.93 137.02 109.62 143.49 117.87 143.49C121.2 143.49 124.27 142.44 126.76 140.65C129.24 142.43 132.32 143.49 135.65 143.49C143.9 143.49 150.59 137.02 150.59 129.04C150.58 123.11 146.89 118.02 141.61 115.79Z" fill="#7DE0BA"/>
<path d="M147.01 118.9C147.07 118.39 147.1 117.87 147.1 117.34C147.1 109.36 140.41 102.89 132.16 102.89C123.91 102.89 117.22 109.36 117.22 117.34C117.22 117.87 117.25 118.39 117.31 118.9C112.03 121.13 108.33 126.22 108.33 132.15C108.33 140.13 115.02 146.6 123.27 146.6C126.6 146.6 129.67 145.55 132.16 143.76C134.64 145.54 137.72 146.6 141.05 146.6C149.3 146.6 155.99 140.13 155.99 132.15C155.98 126.22 152.29 121.13 147.01 118.9Z" fill="#7CDFB9"/>
<path d="M146.53 118.2C146.59 117.69 146.62 117.17 146.62 116.64C146.62 108.66 139.93 102.19 131.68 102.19C123.43 102.19 116.74 108.66 116.74 116.64C116.74 117.17 116.77 117.69 116.83 118.2C111.55 120.43 107.85 125.52 107.85 131.45C107.85 139.43 114.54 145.9 122.79 145.9C126.12 145.9 129.19 144.85 131.68 143.06C134.16 144.84 137.24 145.9 140.57 145.9C148.82 145.9 155.51 139.43 155.51 131.45C155.5 125.52 151.81 120.43 146.53 118.2Z" fill="#7BDFB8"/>
<path d="M141.21 114.45C141.27 113.94 141.3 113.42 141.3 112.89C141.3 104.91 134.61 98.4399 126.36 98.4399C118.11 98.4399 111.42 104.91 111.42 112.89C111.42 113.42 111.45 113.94 111.51 114.45C106.23 116.68 102.53 121.77 102.53 127.7C102.53 135.68 109.22 142.15 117.47 142.15C120.8 142.15 123.87 141.1 126.36 139.31C128.84 141.09 131.92 142.15 135.25 142.15C143.5 142.15 150.19 135.68 150.19 127.7C150.18 121.78 146.49 116.68 141.21 114.45Z" fill="#7ADFB8"/>
<path d="M136.24 111.01C136.3 110.5 136.33 109.98 136.33 109.45C136.33 101.47 129.64 95 121.39 95C113.14 95 106.45 101.47 106.45 109.45C106.45 109.98 106.48 110.5 106.54 111.01C101.26 113.24 97.5601 118.33 97.5601 124.26C97.5601 132.24 104.25 138.71 112.5 138.71C115.83 138.71 118.9 137.66 121.39 135.87C123.87 137.65 126.95 138.71 130.28 138.71C138.53 138.71 145.22 132.24 145.22 124.26C145.21 118.34 141.52 113.24 136.24 111.01Z" fill="#7ADEB7"/>
<path d="M131.61 107.87C131.67 107.36 131.7 106.84 131.7 106.31C131.7 98.3299 125.01 91.8599 116.76 91.8599C108.51 91.8599 101.82 98.3299 101.82 106.31C101.82 106.84 101.85 107.36 101.91 107.87C96.6299 110.1 92.9299 115.19 92.9299 121.12C92.9299 129.1 99.6199 135.57 107.87 135.57C111.2 135.57 114.27 134.52 116.76 132.73C119.24 134.51 122.32 135.57 125.65 135.57C133.9 135.57 140.59 129.1 140.59 121.12C140.59 115.19 136.89 110.1 131.61 107.87Z" fill="#79DEB7"/>
<path d="M127.32 105.01C127.38 104.5 127.41 103.98 127.41 103.45C127.41 95.47 120.72 89 112.47 89C104.22 89 97.53 95.47 97.53 103.45C97.53 103.98 97.56 104.5 97.62 105.01C92.34 107.24 88.64 112.33 88.64 118.26C88.64 126.24 95.33 132.71 103.58 132.71C106.91 132.71 109.98 131.66 112.47 129.87C114.95 131.65 118.03 132.71 121.36 132.71C129.61 132.71 136.3 126.24 136.3 118.26C136.29 112.34 132.6 107.24 127.32 105.01Z" fill="#78DEB6"/>
<path d="M123.34 102.43C123.4 101.92 123.43 101.4 123.43 100.87C123.43 92.8899 116.74 86.4199 108.49 86.4199C100.24 86.4199 93.55 92.8899 93.55 100.87C93.55 101.4 93.58 101.92 93.64 102.43C88.36 104.66 84.66 109.75 84.66 115.68C84.66 123.66 91.35 130.13 99.6 130.13C102.93 130.13 106 129.08 108.49 127.29C110.97 129.07 114.05 130.13 117.38 130.13C125.63 130.13 132.32 123.66 132.32 115.68C132.32 109.75 128.62 104.66 123.34 102.43Z" fill="#77DDB5"/>
<path d="M119.67 100.11C119.73 99.6001 119.76 99.0801 119.76 98.5501C119.76 90.5701 113.07 84.1001 104.82 84.1001C96.57 84.1001 89.88 90.5701 89.88 98.5501C89.88 99.0801 89.91 99.6001 89.97 100.11C84.69 102.34 80.99 107.43 80.99 113.36C80.99 121.34 87.68 127.81 95.93 127.81C99.26 127.81 102.33 126.76 104.82 124.97C107.3 126.75 110.38 127.81 113.71 127.81C121.96 127.81 128.65 121.34 128.65 113.36C128.64 107.43 124.95 102.34 119.67 100.11Z" fill="#76DDB5"/>
<path d="M116.29 98.0398C116.35 97.5298 116.38 97.0098 116.38 96.4798C116.38 88.4998 109.69 82.0298 101.44 82.0298C93.19 82.0298 86.5 88.4998 86.5 96.4798C86.5 97.0098 86.53 97.5298 86.59 98.0398C81.31 100.27 77.61 105.36 77.61 111.29C77.61 119.27 84.3 125.74 92.55 125.74C95.88 125.74 98.95 124.69 101.44 122.9C103.92 124.68 107 125.74 110.33 125.74C118.58 125.74 125.27 119.27 125.27 111.29C125.27 105.37 121.58 100.27 116.29 98.0398Z" fill="#75DDB4"/>
<path d="M113.2 96.2102C113.26 95.7002 113.29 95.1802 113.29 94.6502C113.29 86.6702 106.6 80.2002 98.35 80.2002C90.1 80.2002 83.41 86.6702 83.41 94.6502C83.41 95.1802 83.44 95.7002 83.5 96.2102C78.22 98.4402 74.52 103.53 74.52 109.46C74.52 117.44 81.21 123.91 89.46 123.91C92.79 123.91 95.86 122.86 98.35 121.07C100.83 122.85 103.91 123.91 107.24 123.91C115.49 123.91 122.18 117.44 122.18 109.46C122.18 103.54 118.48 98.4402 113.2 96.2102Z" fill="#74DCB4"/>
<path d="M110.38 94.6199C110.44 94.1099 110.47 93.5899 110.47 93.0599C110.47 85.0799 103.78 78.6099 95.53 78.6099C87.28 78.6099 80.59 85.0799 80.59 93.0599C80.59 93.5899 80.62 94.1099 80.68 94.6199C75.4 96.8499 71.7 101.94 71.7 107.87C71.7 115.85 78.39 122.32 86.64 122.32C89.97 122.32 93.04 121.27 95.53 119.48C98.01 121.26 101.09 122.32 104.42 122.32C112.67 122.32 119.36 115.85 119.36 107.87C119.35 101.94 115.66 96.8399 110.38 94.6199Z" fill="#73DCB3"/>
<path d="M107.82 93.2302C107.88 92.7202 107.91 92.2002 107.91 91.6702C107.91 83.6902 101.22 77.2202 92.97 77.2202C84.72 77.2202 78.03 83.6902 78.03 91.6702C78.03 92.2002 78.06 92.7202 78.12 93.2302C72.84 95.4602 69.14 100.55 69.14 106.48C69.14 114.46 75.83 120.93 84.08 120.93C87.41 120.93 90.48 119.88 92.97 118.09C95.45 119.87 98.53 120.93 101.86 120.93C110.11 120.93 116.8 114.46 116.8 106.48C116.79 100.56 113.1 95.4602 107.82 93.2302Z" fill="#72DCB3"/>
<path d="M105.5 92.0598C105.56 91.5498 105.59 91.0298 105.59 90.4998C105.59 82.5198 98.8999 76.0498 90.6499 76.0498C82.3999 76.0498 75.7099 82.5198 75.7099 90.4998C75.7099 91.0298 75.7399 91.5498 75.7999 92.0598C70.5199 94.2898 66.8199 99.3798 66.8199 105.31C66.8199 113.29 73.5099 119.76 81.7599 119.76C85.0899 119.76 88.1599 118.71 90.6499 116.92C93.1299 118.7 96.2099 119.76 99.5399 119.76C107.79 119.76 114.48 113.29 114.48 105.31C114.48 99.3798 110.78 94.2898 105.5 92.0598Z" fill="#71DBB2"/>
<path d="M103.42 91.0798C103.48 90.5698 103.51 90.0498 103.51 89.5198C103.51 81.5398 96.82 75.0698 88.57 75.0698C80.32 75.0698 73.63 81.5398 73.63 89.5198C73.63 90.0498 73.66 90.5698 73.72 91.0798C68.44 93.3098 64.74 98.3998 64.74 104.33C64.74 112.31 71.43 118.78 79.68 118.78C83.01 118.78 86.08 117.73 88.57 115.94C91.05 117.72 94.13 118.78 97.46 118.78C105.71 118.78 112.4 112.31 112.4 104.33C112.4 98.3998 108.7 93.3098 103.42 91.0798Z" fill="#70DBB1"/>
<path d="M101.57 90.28C101.63 89.77 101.66 89.25 101.66 88.72C101.66 80.74 94.97 74.27 86.72 74.27C78.47 74.27 71.78 80.74 71.78 88.72C71.78 89.25 71.81 89.77 71.87 90.28C66.59 92.51 62.89 97.6 62.89 103.53C62.89 111.51 69.58 117.98 77.83 117.98C81.16 117.98 84.23 116.93 86.72 115.14C89.2 116.92 92.28 117.98 95.61 117.98C103.86 117.98 110.55 111.51 110.55 103.53C110.54 97.61 106.85 92.51 101.57 90.28Z" fill="#6FDBB1"/>
<path d="M99.92 89.6599C99.98 89.1499 100.01 88.6299 100.01 88.0999C100.01 80.1199 93.32 73.6499 85.07 73.6499C76.82 73.6499 70.13 80.1199 70.13 88.0999C70.13 88.6299 70.16 89.1499 70.22 89.6599C64.94 91.8899 61.24 96.9799 61.24 102.91C61.24 110.89 67.93 117.36 76.18 117.36C79.51 117.36 82.58 116.31 85.07 114.52C87.55 116.3 90.63 117.36 93.96 117.36C102.21 117.36 108.9 110.89 108.9 102.91C108.9 96.9799 105.2 91.8899 99.92 89.6599Z" fill="#6EDAB0"/>
<path d="M98.48 89.1999C98.54 88.6899 98.5701 88.1699 98.5701 87.6399C98.5701 79.6599 91.8801 73.1899 83.6301 73.1899C75.3801 73.1899 68.69 79.6599 68.69 87.6399C68.69 88.1699 68.72 88.6899 68.78 89.1999C63.5 91.4299 59.8 96.5199 59.8 102.45C59.8 110.43 66.49 116.9 74.74 116.9C78.07 116.9 81.1401 115.85 83.6301 114.06C86.1101 115.84 89.1901 116.9 92.5201 116.9C100.77 116.9 107.46 110.43 107.46 102.45C107.45 96.5199 103.76 91.4199 98.48 89.1999Z" fill="#6DDAB0"/>
<path d="M97.22 88.8801C97.28 88.3701 97.31 87.8501 97.31 87.3201C97.31 79.3401 90.62 72.8701 82.37 72.8701C74.12 72.8701 67.43 79.3401 67.43 87.3201C67.43 87.8501 67.46 88.3701 67.52 88.8801C62.24 91.1101 58.54 96.2001 58.54 102.13C58.54 110.11 65.23 116.58 73.48 116.58C76.81 116.58 79.88 115.53 82.37 113.74C84.85 115.52 87.93 116.58 91.26 116.58C99.51 116.58 106.2 110.11 106.2 102.13C106.2 96.2101 102.5 91.1101 97.22 88.8801Z" fill="#6CDAAF"/>
<path d="M96.14 88.7102C96.2 88.2002 96.23 87.6802 96.23 87.1502C96.23 79.1702 89.54 72.7002 81.29 72.7002C73.04 72.7002 66.35 79.1702 66.35 87.1502C66.35 87.6802 66.38 88.2002 66.44 88.7102C61.16 90.9402 57.46 96.0302 57.46 101.96C57.46 109.94 64.15 116.41 72.4 116.41C75.73 116.41 78.8 115.36 81.29 113.57C83.77 115.35 86.85 116.41 90.18 116.41C98.43 116.41 105.12 109.94 105.12 101.96C105.12 96.0302 101.42 90.9402 96.14 88.7102Z" fill="#6BD9AF"/>
<path d="M95.23 88.6599C95.29 88.1499 95.3201 87.6299 95.3201 87.0999C95.3201 79.1199 88.63 72.6499 80.38 72.6499C72.13 72.6499 65.44 79.1199 65.44 87.0999C65.44 87.6299 65.47 88.1499 65.53 88.6599C60.25 90.8899 56.55 95.9799 56.55 101.91C56.55 109.89 63.24 116.36 71.49 116.36C74.82 116.36 77.89 115.31 80.38 113.52C82.86 115.3 85.9401 116.36 89.2701 116.36C97.5201 116.36 104.21 109.89 104.21 101.91C104.2 95.9799 100.51 90.8899 95.23 88.6599Z" fill="#6AD9AE"/>
<path d="M94.46 88.7302C94.52 88.2202 94.55 87.7002 94.55 87.1702C94.55 79.1902 87.86 72.7202 79.61 72.7202C71.36 72.7202 64.67 79.1902 64.67 87.1702C64.67 87.7002 64.7 88.2202 64.76 88.7302C59.48 90.9602 55.78 96.0502 55.78 101.98C55.78 109.96 62.47 116.43 70.72 116.43C74.05 116.43 77.12 115.38 79.61 113.59C82.09 115.37 85.17 116.43 88.5 116.43C96.75 116.43 103.44 109.96 103.44 101.98C103.44 96.0502 99.75 90.9602 94.46 88.7302Z" fill="#69D9AD"/>
<path d="M93.84 88.9001C93.9 88.3901 93.93 87.8701 93.93 87.3401C93.93 79.3601 87.24 72.8901 78.99 72.8901C70.74 72.8901 64.05 79.3601 64.05 87.3401C64.05 87.8701 64.08 88.3901 64.14 88.9001C58.86 91.1301 55.16 96.2201 55.16 102.15C55.16 110.13 61.85 116.6 70.1 116.6C73.43 116.6 76.5 115.55 78.99 113.76C81.47 115.54 84.55 116.6 87.88 116.6C96.13 116.6 102.82 110.13 102.82 102.15C102.82 96.2201 99.12 91.1301 93.84 88.9001Z" fill="#68D9AD"/>
<path d="M93.3501 89.1599C93.4101 88.6499 93.44 88.1299 93.44 87.5999C93.44 79.6199 86.75 73.1499 78.5 73.1499C70.25 73.1499 63.56 79.6199 63.56 87.5999C63.56 88.1299 63.59 88.6499 63.65 89.1599C58.37 91.3899 54.67 96.4799 54.67 102.41C54.67 110.39 61.36 116.86 69.61 116.86C72.94 116.86 76.01 115.81 78.5 114.02C80.98 115.8 84.06 116.86 87.39 116.86C95.64 116.86 102.33 110.39 102.33 102.41C102.32 96.4899 98.6301 91.3899 93.3501 89.1599Z" fill="#67D8AC"/>
<path d="M92.89 89.6101C92.95 89.1001 92.98 88.5801 92.98 88.0501C92.98 80.0701 86.29 73.6001 78.04 73.6001C69.79 73.6001 63.1 80.0701 63.1 88.0501C63.1 88.5801 63.13 89.1001 63.19 89.6101C57.91 91.8401 54.21 96.9301 54.21 102.86C54.21 110.84 60.9 117.31 69.15 117.31C72.48 117.31 75.55 116.26 78.04 114.47C80.52 116.25 83.6 117.31 86.93 117.31C95.18 117.31 101.87 110.84 101.87 102.86C101.87 96.9401 98.18 91.8401 92.89 89.6101Z" fill="#66D8AC"/>
<path d="M92.56 90.4402C92.62 89.9302 92.65 89.4102 92.65 88.8802C92.65 80.9002 85.96 74.4302 77.71 74.4302C69.46 74.4302 62.77 80.9002 62.77 88.8802C62.77 89.4102 62.8 89.9302 62.86 90.4402C57.58 92.6702 53.88 97.7602 53.88 103.69C53.88 111.67 60.57 118.14 68.82 118.14C72.15 118.14 75.22 117.09 77.71 115.3C80.19 117.08 83.27 118.14 86.6 118.14C94.85 118.14 101.54 111.67 101.54 103.69C101.53 97.7602 97.84 92.6602 92.56 90.4402Z" fill="#65D8AB"/>
<path d="M92.55 91.4602C92.61 90.9502 92.64 90.4302 92.64 89.9002C92.64 81.9202 85.95 75.4502 77.7 75.4502C69.45 75.4502 62.76 81.9202 62.76 89.9002C62.76 90.4302 62.79 90.9502 62.85 91.4602C57.57 93.6902 53.87 98.7802 53.87 104.71C53.87 112.69 60.56 119.16 68.81 119.16C72.14 119.16 75.21 118.11 77.7 116.32C80.18 118.1 83.26 119.16 86.59 119.16C94.84 119.16 101.53 112.69 101.53 104.71C101.53 98.7902 97.84 93.6902 92.55 91.4602Z" fill="#64D7AB"/>
<path d="M92.8601 92.6902C92.9201 92.1802 92.9501 91.6602 92.9501 91.1302C92.9501 83.1502 86.2601 76.6802 78.0101 76.6802C69.7601 76.6802 63.0701 83.1502 63.0701 91.1302C63.0701 91.6602 63.1001 92.1802 63.1601 92.6902C57.8801 94.9202 54.1801 100.01 54.1801 105.94C54.1801 113.92 60.8701 120.39 69.1201 120.39C72.4501 120.39 75.5201 119.34 78.0101 117.55C80.4901 119.33 83.57 120.39 86.9 120.39C95.15 120.39 101.84 113.92 101.84 105.94C101.84 100.01 98.1401 94.9202 92.8601 92.6902Z" fill="#63D7AA"/>
<path d="M93.45 94.1101C93.51 93.6001 93.54 93.0801 93.54 92.5501C93.54 84.5701 86.85 78.1001 78.6 78.1001C70.35 78.1001 63.66 84.5701 63.66 92.5501C63.66 93.0801 63.69 93.6001 63.75 94.1101C58.47 96.3401 54.77 101.43 54.77 107.36C54.77 115.34 61.46 121.81 69.71 121.81C73.04 121.81 76.11 120.76 78.6 118.97C81.08 120.75 84.16 121.81 87.49 121.81C95.74 121.81 102.43 115.34 102.43 107.36C102.42 101.43 98.73 96.3401 93.45 94.1101Z" fill="#62D7A9"/>
<path d="M94.28 95.7102C94.34 95.2002 94.37 94.6802 94.37 94.1502C94.37 86.1702 87.68 79.7002 79.43 79.7002C71.18 79.7002 64.49 86.1702 64.49 94.1502C64.49 94.6802 64.52 95.2002 64.58 95.7102C59.3 97.9402 55.6 103.03 55.6 108.96C55.6 116.94 62.29 123.41 70.54 123.41C73.87 123.41 76.94 122.36 79.43 120.57C81.91 122.35 84.99 123.41 88.32 123.41C96.57 123.41 103.26 116.94 103.26 108.96C103.26 103.03 99.57 97.9402 94.28 95.7102Z" fill="#61D6A9"/>
<path d="M95.34 97.5002C95.4 96.9902 95.43 96.4702 95.43 95.9402C95.43 87.9602 88.74 81.4902 80.49 81.4902C72.24 81.4902 65.55 87.9602 65.55 95.9402C65.55 96.4702 65.58 96.9902 65.64 97.5002C60.36 99.7302 56.66 104.82 56.66 110.75C56.66 118.73 63.35 125.2 71.6 125.2C74.93 125.2 78 124.15 80.49 122.36C82.97 124.14 86.05 125.2 89.38 125.2C97.63 125.2 104.32 118.73 104.32 110.75C104.32 104.82 100.62 99.7302 95.34 97.5002Z" fill="#60D6A8"/>
<path d="M96.59 99.4499C96.65 98.9399 96.68 98.4199 96.68 97.8899C96.68 89.9099 89.99 83.4399 81.74 83.4399C73.49 83.4399 66.8 89.9099 66.8 97.8899C66.8 98.4199 66.83 98.9399 66.89 99.4499C61.61 101.68 57.91 106.77 57.91 112.7C57.91 120.68 64.6 127.15 72.85 127.15C76.18 127.15 79.25 126.1 81.74 124.31C84.22 126.09 87.3 127.15 90.63 127.15C98.88 127.15 105.57 120.68 105.57 112.7C105.56 106.78 101.87 101.68 96.59 99.4499Z" fill="#5FD6A8"/>
<path d="M97.9901 101.58C98.0501 101.07 98.0801 100.55 98.0801 100.02C98.0801 92.0398 91.3901 85.5698 83.1401 85.5698C74.8901 85.5698 68.2001 92.0398 68.2001 100.02C68.2001 100.55 68.2301 101.07 68.2901 101.58C63.0101 103.81 59.3101 108.9 59.3101 114.83C59.3101 122.81 66.0001 129.28 74.2501 129.28C77.5801 129.28 80.6501 128.23 83.1401 126.44C85.6201 128.22 88.7001 129.28 92.0301 129.28C100.28 129.28 106.97 122.81 106.97 114.83C106.97 108.9 103.28 103.81 97.9901 101.58Z" fill="#5ED5A7"/>
<path d="M99.53 103.86C99.59 103.35 99.62 102.83 99.62 102.3C99.62 94.3201 92.93 87.8501 84.68 87.8501C76.43 87.8501 69.74 94.3201 69.74 102.3C69.74 102.83 69.77 103.35 69.83 103.86C64.55 106.09 60.85 111.18 60.85 117.11C60.85 125.09 67.54 131.56 75.79 131.56C79.12 131.56 82.19 130.51 84.68 128.72C87.16 130.5 90.24 131.56 93.57 131.56C101.82 131.56 108.51 125.09 108.51 117.11C108.51 111.19 104.82 106.09 99.53 103.86Z" fill="#5ED5A7"/>
<path d="M101.17 106.3C101.23 105.79 101.26 105.27 101.26 104.74C101.26 96.76 94.57 90.29 86.32 90.29C78.07 90.29 71.38 96.76 71.38 104.74C71.38 105.27 71.41 105.79 71.47 106.3C66.19 108.53 62.49 113.62 62.49 119.55C62.49 127.53 69.18 134 77.43 134C80.76 134 83.83 132.95 86.32 131.16C88.8 132.94 91.88 134 95.21 134C103.46 134 110.15 127.53 110.15 119.55C110.15 113.63 106.46 108.53 101.17 106.3Z" fill="#5DD5A6"/>
<path d="M102.89 108.89C102.95 108.38 102.98 107.86 102.98 107.33C102.98 99.3499 96.29 92.8799 88.04 92.8799C79.79 92.8799 73.1 99.3499 73.1 107.33C73.1 107.86 73.13 108.38 73.19 108.89C67.91 111.12 64.21 116.21 64.21 122.14C64.21 130.12 70.9 136.59 79.15 136.59C82.48 136.59 85.55 135.54 88.04 133.75C90.52 135.53 93.6 136.59 96.93 136.59C105.18 136.59 111.87 130.12 111.87 122.14C111.86 116.21 108.17 111.12 102.89 108.89Z" fill="#5CD4A5"/>
<path d="M104.65 111.62C104.71 111.11 104.74 110.59 104.74 110.06C104.74 102.08 98.05 95.6099 89.8 95.6099C81.55 95.6099 74.86 102.08 74.86 110.06C74.86 110.59 74.89 111.11 74.95 111.62C69.67 113.85 65.97 118.94 65.97 124.87C65.97 132.85 72.66 139.32 80.91 139.32C84.24 139.32 87.31 138.27 89.8 136.48C92.28 138.26 95.36 139.32 98.69 139.32C106.94 139.32 113.63 132.85 113.63 124.87C113.62 118.94 109.93 113.85 104.65 111.62Z" fill="#5BD4A5"/>
<path d="M106.42 114.48C106.48 113.97 106.51 113.45 106.51 112.92C106.51 104.94 99.82 98.4702 91.57 98.4702C83.32 98.4702 76.63 104.94 76.63 112.92C76.63 113.45 76.66 113.97 76.72 114.48C71.44 116.71 67.74 121.8 67.74 127.73C67.74 135.71 74.43 142.18 82.68 142.18C86.01 142.18 89.08 141.13 91.57 139.34C94.05 141.12 97.13 142.18 100.46 142.18C108.71 142.18 115.4 135.71 115.4 127.73C115.39 121.8 111.7 116.71 106.42 114.48Z" fill="#5AD4A4"/>
<path d="M108.17 117.47C108.23 116.96 108.26 116.44 108.26 115.91C108.26 107.93 101.57 101.46 93.32 101.46C85.07 101.46 78.38 107.93 78.38 115.91C78.38 116.44 78.41 116.96 78.47 117.47C73.19 119.7 69.49 124.79 69.49 130.72C69.49 138.7 76.18 145.17 84.43 145.17C87.76 145.17 90.83 144.12 93.32 142.33C95.8 144.11 98.88 145.17 102.21 145.17C110.46 145.17 117.15 138.7 117.15 130.72C117.15 124.8 113.45 119.7 108.17 117.47Z" fill="#59D3A4"/>
<path d="M109.88 120.59C109.94 120.08 109.97 119.56 109.97 119.03C109.97 111.05 103.28 104.58 95.03 104.58C86.78 104.58 80.09 111.05 80.09 119.03C80.09 119.56 80.12 120.08 80.18 120.59C74.9 122.82 71.2 127.91 71.2 133.84C71.2 141.82 77.89 148.29 86.14 148.29C89.47 148.29 92.54 147.24 95.03 145.45C97.51 147.23 100.59 148.29 103.92 148.29C112.17 148.29 118.86 141.82 118.86 133.84C118.86 127.91 115.16 122.82 109.88 120.59Z" fill="#58D3A3"/>
<path d="M111.52 123.82C111.58 123.31 111.61 122.79 111.61 122.26C111.61 114.28 104.92 107.81 96.67 107.81C88.42 107.81 81.73 114.28 81.73 122.26C81.73 122.79 81.76 123.31 81.82 123.82C76.54 126.05 72.84 131.14 72.84 137.07C72.84 145.05 79.53 151.52 87.78 151.52C91.11 151.52 94.18 150.47 96.67 148.68C99.15 150.46 102.23 151.52 105.56 151.52C113.81 151.52 120.5 145.05 120.5 137.07C120.49 131.14 116.8 126.05 111.52 123.82Z" fill="#57D3A3"/>
<path d="M113.05 127.15C113.11 126.64 113.14 126.12 113.14 125.59C113.14 117.61 106.45 111.14 98.2 111.14C89.95 111.14 83.26 117.61 83.26 125.59C83.26 126.12 83.29 126.64 83.35 127.15C78.07 129.38 74.37 134.47 74.37 140.4C74.37 148.38 81.06 154.85 89.31 154.85C92.64 154.85 95.71 153.8 98.2 152.01C100.68 153.79 103.76 154.85 107.09 154.85C115.34 154.85 122.03 148.38 122.03 140.4C122.02 134.48 118.33 129.38 113.05 127.15Z" fill="#56D2A2"/>
<path d="M114.45 130.6C114.51 130.09 114.54 129.57 114.54 129.04C114.54 121.06 107.85 114.59 99.6 114.59C91.35 114.59 84.66 121.06 84.66 129.04C84.66 129.57 84.69 130.09 84.75 130.6C79.47 132.83 75.77 137.92 75.77 143.85C75.77 151.83 82.46 158.3 90.71 158.3C94.04 158.3 97.11 157.25 99.6 155.46C102.08 157.24 105.16 158.3 108.49 158.3C116.74 158.3 123.43 151.83 123.43 143.85C123.42 137.92 119.73 132.82 114.45 130.6Z" fill="#55D2A1"/>
<path d="M115.68 134.13C115.74 133.62 115.77 133.1 115.77 132.57C115.77 124.59 109.08 118.12 100.83 118.12C92.58 118.12 85.89 124.59 85.89 132.57C85.89 133.1 85.92 133.62 85.98 134.13C80.7 136.36 77 141.45 77 147.38C77 155.36 83.69 161.83 91.94 161.83C95.27 161.83 98.34 160.78 100.83 158.99C103.31 160.77 106.39 161.83 109.72 161.83C117.97 161.83 124.66 155.36 124.66 147.38C124.66 141.46 120.96 136.36 115.68 134.13Z" fill="#54D2A1"/>
<path d="M116.72 137.76C116.78 137.25 116.81 136.73 116.81 136.2C116.81 128.22 110.12 121.75 101.87 121.75C93.62 121.75 86.93 128.22 86.93 136.2C86.93 136.73 86.96 137.25 87.02 137.76C81.74 139.99 78.04 145.08 78.04 151.01C78.04 158.99 84.73 165.46 92.98 165.46C96.31 165.46 99.38 164.41 101.87 162.62C104.35 164.4 107.43 165.46 110.76 165.46C119.01 165.46 125.7 158.99 125.7 151.01C125.7 145.08 122 139.99 116.72 137.76Z" fill="#53D1A0"/>
<path d="M117.54 141.47C117.6 140.96 117.63 140.44 117.63 139.91C117.63 131.93 110.94 125.46 102.69 125.46C94.44 125.46 87.75 131.93 87.75 139.91C87.75 140.44 87.78 140.96 87.84 141.47C82.56 143.7 78.86 148.79 78.86 154.72C78.86 162.7 85.55 169.17 93.8 169.17C97.13 169.17 100.2 168.12 102.69 166.33C105.17 168.11 108.25 169.17 111.58 169.17C119.83 169.17 126.52 162.7 126.52 154.72C126.52 148.79 122.82 143.7 117.54 141.47Z" fill="#52D1A0"/>
<path d="M118.11 145.26C118.17 144.75 118.2 144.23 118.2 143.7C118.2 135.72 111.51 129.25 103.26 129.25C95.01 129.25 88.3201 135.72 88.3201 143.7C88.3201 144.23 88.3501 144.75 88.4101 145.26C83.1301 147.49 79.4301 152.58 79.4301 158.51C79.4301 166.49 86.12 172.96 94.37 172.96C97.7 172.96 100.77 171.91 103.26 170.12C105.74 171.9 108.82 172.96 112.15 172.96C120.4 172.96 127.09 166.49 127.09 158.51C127.09 152.58 123.39 147.49 118.11 145.26Z" fill="#51D19F"/>
<path d="M118.4 149.12C118.46 148.61 118.49 148.09 118.49 147.56C118.49 139.58 111.8 133.11 103.55 133.11C95.3 133.11 88.61 139.58 88.61 147.56C88.61 148.09 88.64 148.61 88.7 149.12C83.42 151.35 79.72 156.44 79.72 162.37C79.72 170.35 86.41 176.82 94.66 176.82C97.99 176.82 101.06 175.77 103.55 173.98C106.03 175.76 109.11 176.82 112.44 176.82C120.69 176.82 127.38 170.35 127.38 162.37C127.37 156.44 123.68 151.35 118.4 149.12Z" fill="#50D09F"/>
<path d="M118.38 153.04C118.44 152.53 118.47 152.01 118.47 151.48C118.47 143.5 111.78 137.03 103.53 137.03C95.28 137.03 88.59 143.5 88.59 151.48C88.59 152.01 88.6199 152.53 88.6799 153.04C83.3999 155.27 79.7 160.36 79.7 166.29C79.7 174.27 86.39 180.74 94.64 180.74C97.97 180.74 101.04 179.69 103.53 177.9C106.01 179.68 109.09 180.74 112.42 180.74C120.67 180.74 127.36 174.27 127.36 166.29C127.35 160.37 123.66 155.27 118.38 153.04Z" fill="#4FD09E"/>
<path d="M118.01 157.02C118.07 156.51 118.1 155.99 118.1 155.46C118.1 147.48 111.41 141.01 103.16 141.01C94.91 141.01 88.22 147.48 88.22 155.46C88.22 155.99 88.25 156.51 88.31 157.02C83.03 159.25 79.33 164.34 79.33 170.27C79.33 178.25 86.02 184.72 94.27 184.72C97.6 184.72 100.67 183.67 103.16 181.88C105.64 183.66 108.72 184.72 112.05 184.72C120.3 184.72 126.99 178.25 126.99 170.27C126.99 164.35 123.3 159.25 118.01 157.02Z" fill="#4ED09D"/>
<path d="M117.37 160.65C117.43 160.14 117.46 159.62 117.46 159.09C117.46 151.11 110.77 144.64 102.52 144.64C94.2699 144.64 87.5799 151.11 87.5799 159.09C87.5799 159.62 87.6099 160.14 87.6699 160.65C82.3899 162.88 78.6899 167.97 78.6899 173.9C78.6899 181.88 85.3799 188.35 93.6299 188.35C96.9599 188.35 100.03 187.3 102.52 185.51C105 187.29 108.08 188.35 111.41 188.35C119.66 188.35 126.35 181.88 126.35 173.9C126.35 167.97 122.65 162.88 117.37 160.65Z" fill="#4DCF9D"/>
<path d="M116.61 163.64C116.67 163.13 116.7 162.61 116.7 162.08C116.7 154.1 110.01 147.63 101.76 147.63C93.51 147.63 86.8201 154.1 86.8201 162.08C86.8201 162.61 86.8501 163.13 86.9101 163.64C81.6301 165.87 77.9301 170.96 77.9301 176.89C77.9301 184.87 84.62 191.34 92.87 191.34C96.2 191.34 99.27 190.29 101.76 188.5C104.24 190.28 107.32 191.34 110.65 191.34C118.9 191.34 125.59 184.87 125.59 176.89C125.59 170.97 121.89 165.87 116.61 163.64Z" fill="#4CCF9C"/>
<path d="M115.66 166.57C115.72 166.06 115.75 165.54 115.75 165.01C115.75 157.03 109.06 150.56 100.81 150.56C92.56 150.56 85.87 157.03 85.87 165.01C85.87 165.54 85.9 166.06 85.96 166.57C80.68 168.8 76.98 173.89 76.98 179.82C76.98 187.8 83.67 194.27 91.92 194.27C95.25 194.27 98.32 193.22 100.81 191.43C103.29 193.21 106.37 194.27 109.7 194.27C117.95 194.27 124.64 187.8 124.64 179.82C124.64 173.89 120.95 168.8 115.66 166.57Z" fill="#4BCF9C"/>
<path d="M114.54 169.41C114.6 168.9 114.63 168.38 114.63 167.85C114.63 159.87 107.94 153.4 99.69 153.4C91.44 153.4 84.75 159.87 84.75 167.85C84.75 168.38 84.78 168.9 84.84 169.41C79.56 171.64 75.86 176.73 75.86 182.66C75.86 190.64 82.55 197.11 90.8 197.11C94.13 197.11 97.2 196.06 99.69 194.27C102.17 196.05 105.25 197.11 108.58 197.11C116.83 197.11 123.52 190.64 123.52 182.66C123.51 176.74 119.82 171.64 114.54 169.41Z" fill="#4ACE9B"/>
<path d="M113.25 172.18C113.31 171.67 113.34 171.15 113.34 170.62C113.34 162.64 106.65 156.17 98.3999 156.17C90.1499 156.17 83.46 162.64 83.46 170.62C83.46 171.15 83.4899 171.67 83.5499 172.18C78.2699 174.41 74.5699 179.5 74.5699 185.43C74.5699 193.41 81.2599 199.88 89.5099 199.88C92.8399 199.88 95.9099 198.83 98.3999 197.04C100.88 198.82 103.96 199.88 107.29 199.88C115.54 199.88 122.23 193.41 122.23 185.43C122.22 179.5 118.53 174.4 113.25 172.18Z" fill="#49CE9B"/>
<path d="M111.8 174.85C111.86 174.34 111.89 173.82 111.89 173.29C111.89 165.31 105.2 158.84 96.95 158.84C88.7 158.84 82.01 165.31 82.01 173.29C82.01 173.82 82.04 174.34 82.1 174.85C76.82 177.08 73.12 182.17 73.12 188.1C73.12 196.08 79.81 202.55 88.06 202.55C91.39 202.55 94.46 201.5 96.95 199.71C99.43 201.49 102.51 202.55 105.84 202.55C114.09 202.55 120.78 196.08 120.78 188.1C120.77 182.17 117.08 177.07 111.8 174.85Z" fill="#48CE9A"/>
<path d="M8.91999 174.83C8.97999 174.32 9.00999 173.8 9.00999 173.27C9.00999 165.29 2.31999 158.82 -5.93001 158.82C-14.18 158.82 -20.87 165.29 -20.87 173.27C-20.87 173.8 -20.84 174.32 -20.78 174.83C-26.06 177.06 -29.76 182.15 -29.76 188.08C-29.76 196.06 -23.07 202.53 -14.82 202.53C-11.49 202.53 -8.42001 201.48 -5.93001 199.69C-3.45001 201.47 -0.370008 202.53 2.95999 202.53C11.21 202.53 17.9 196.06 17.9 188.08C17.89 182.16 14.2 177.06 8.91999 174.83Z" fill="#20C082"/>
<path d="M6.45002 172.45C6.51002 171.94 6.54002 171.42 6.54002 170.89C6.54002 162.91 -0.149982 156.44 -8.39998 156.44C-16.65 156.44 -23.34 162.91 -23.34 170.89C-23.34 171.42 -23.31 171.94 -23.25 172.45C-28.53 174.68 -32.23 179.77 -32.23 185.7C-32.23 193.68 -25.54 200.15 -17.29 200.15C-13.96 200.15 -10.89 199.1 -8.39998 197.31C-5.91998 199.09 -2.83998 200.15 0.490021 200.15C8.74002 200.15 15.43 193.68 15.43 185.7C15.42 179.78 11.73 174.68 6.45002 172.45Z" fill="#1FC081"/>
<path d="M4.02998 169.97C4.08998 169.46 4.11997 168.94 4.11997 168.41C4.11997 160.43 -2.57002 153.96 -10.82 153.96C-19.07 153.96 -25.76 160.43 -25.76 168.41C-25.76 168.94 -25.73 169.46 -25.67 169.97C-30.95 172.2 -34.65 177.29 -34.65 183.22C-34.65 191.2 -27.96 197.67 -19.71 197.67C-16.38 197.67 -13.31 196.62 -10.82 194.83C-8.34002 196.61 -5.26002 197.67 -1.93002 197.67C6.31998 197.67 13.01 191.2 13.01 183.22C13 177.29 9.30997 172.2 4.02998 169.97Z" fill="#1EC081"/>
<path d="M1.64997 167.39C1.70997 166.88 1.73997 166.36 1.73997 165.83C1.73997 157.85 -4.95003 151.38 -13.2 151.38C-21.45 151.38 -28.14 157.85 -28.14 165.83C-28.14 166.36 -28.11 166.88 -28.05 167.39C-33.33 169.62 -37.03 174.71 -37.03 180.64C-37.03 188.62 -30.34 195.09 -22.09 195.09C-18.76 195.09 -15.69 194.04 -13.2 192.25C-10.72 194.03 -7.64003 195.09 -4.31003 195.09C3.93997 195.09 10.63 188.62 10.63 180.64C10.62 174.71 6.92997 169.61 1.64997 167.39Z" fill="#1DBF80"/>
<path d="M-0.679985 164.7C-0.619984 164.19 -0.589985 163.67 -0.589985 163.14C-0.589985 155.16 -7.27998 148.69 -15.53 148.69C-23.78 148.69 -30.47 155.16 -30.47 163.14C-30.47 163.67 -30.44 164.19 -30.38 164.7C-35.66 166.93 -39.36 172.02 -39.36 177.95C-39.36 185.93 -32.67 192.4 -24.42 192.4C-21.09 192.4 -18.02 191.35 -15.53 189.56C-13.05 191.34 -9.96998 192.4 -6.63998 192.4C1.61002 192.4 8.30001 185.93 8.30001 177.95C8.30001 172.02 4.60001 166.93 -0.679985 164.7Z" fill="#1CBF80"/>
<path d="M-2.95 161.91C-2.89 161.4 -2.86 160.88 -2.86 160.35C-2.86 152.37 -9.55 145.9 -17.8 145.9C-26.05 145.9 -32.74 152.37 -32.74 160.35C-32.74 160.88 -32.71 161.4 -32.65 161.91C-37.93 164.14 -41.63 169.23 -41.63 175.16C-41.63 183.14 -34.94 189.61 -26.69 189.61C-23.36 189.61 -20.29 188.56 -17.8 186.77C-15.32 188.55 -12.24 189.61 -8.91 189.61C-0.660004 189.61 6.02999 183.14 6.02999 175.16C6.02999 169.23 2.32999 164.14 -2.95 161.91Z" fill="#1BBF7F"/>
<path d="M-5.15997 159.01C-5.09996 158.5 -5.06997 157.98 -5.06997 157.45C-5.06997 149.47 -11.76 143 -20.01 143C-28.26 143 -34.95 149.47 -34.95 157.45C-34.95 157.98 -34.92 158.5 -34.86 159.01C-40.14 161.24 -43.84 166.33 -43.84 172.26C-43.84 180.24 -37.15 186.71 -28.9 186.71C-25.57 186.71 -22.5 185.66 -20.01 183.87C-17.53 185.65 -14.45 186.71 -11.12 186.71C-2.86996 186.71 3.82003 180.24 3.82003 172.26C3.81004 166.34 0.120033 161.24 -5.15997 159.01Z" fill="#1ABE7F"/>
<path d="M-7.32 156.02C-7.26 155.51 -7.23 154.99 -7.23 154.46C-7.23 146.48 -13.92 140.01 -22.17 140.01C-30.42 140.01 -37.11 146.48 -37.11 154.46C-37.11 154.99 -37.08 155.51 -37.02 156.02C-42.31 158.25 -46 163.34 -46 169.27C-46 177.25 -39.31 183.72 -31.06 183.72C-27.73 183.72 -24.66 182.67 -22.17 180.88C-19.69 182.66 -16.61 183.72 -13.28 183.72C-5.03 183.72 1.66 177.25 1.66 169.27C1.66 163.34 -2.04 158.25 -7.32 156.02Z" fill="#19BE7E"/>
</g>
<path d="M57.8508 88.688C54.8988 88.688 53.3868 88.184 53.3868 87.032C53.3868 85.88 54.8988 85.352 57.8508 85.352C60.8028 85.352 62.3148 85.88 62.3148 87.032C62.3148 88.184 60.8028 88.688 57.8508 88.688ZM57.8508 82.952C53.0748 82.952 50.1948 84.416 50.1948 87.032C50.1948 89.624 53.0748 91.088 57.8508 91.088C62.6268 91.088 65.5308 89.624 65.5308 87.032C65.5308 84.416 62.6268 82.952 57.8508 82.952ZM59.5068 79.352V77.528H65.6508V75.008H53.5068V72.416H65.5308V69.896H50.3628V77.528H56.3388V79.352H47.9388V81.872H67.9308V79.352H59.5068ZM75.9209 83.408C74.2649 83.408 73.1609 81.656 73.1609 78.368C73.1609 75.104 74.2649 73.352 75.9209 73.352C77.5529 73.352 78.6809 75.104 78.6809 78.368C78.6809 81.656 77.5529 83.408 75.9209 83.408ZM75.9209 70.496C72.5609 70.496 70.1129 73.52 70.1129 78.368C70.1129 83.24 72.5609 86.288 75.9209 86.288C79.2569 86.288 81.7289 83.24 81.7289 78.368C81.7289 73.52 79.2569 70.496 75.9209 70.496ZM90.5129 77.288H87.2969V68.96H84.1289V91.064H87.2969V79.904H90.5129V77.288ZM96.4871 79.376H103.663V70.832H93.2231V73.352H100.423V76.88H93.2471V85.976H95.2391C99.2471 85.976 102.487 85.832 106.087 85.208L105.751 82.64C102.631 83.168 99.8471 83.336 96.4871 83.36V79.376ZM107.287 68.936V91.112H110.455V68.936H107.287Z" fill="#2A2A2A"/>
</g>
<rect x="0.5" y="0.5" width="159" height="159" rx="15.5" stroke="#E0E0E0"/>
<defs>
<clipPath id="clip0_1267_14486">
<rect width="160" height="160" rx="16" fill="white"/>
</clipPath>
<clipPath id="clip1_1267_14486">
<rect width="201.98" height="263.32" fill="white" transform="translate(-45 -35)"/>
</clipPath>
</defs>
</svg>
