<svg width="160" height="160" viewBox="0 0 160 160" fill="none" xmlns="http://www.w3.org/2000/svg">
<g clip-path="url(#clip0_1267_14279)">
<rect width="160" height="160" rx="16" fill="white"/>
<g clip-path="url(#clip1_1267_14279)">
<path d="M130.88 3.01C130.94 2.5 130.97 1.98 130.97 1.45C130.97 -6.53 124.28 -13 116.03 -13C107.78 -13 101.09 -6.53 101.09 1.45C101.09 1.98 101.12 2.5 101.18 3.01C95.8999 5.24 92.2 10.33 92.2 16.26C92.2 24.24 98.89 30.71 107.14 30.71C110.47 30.71 113.54 29.66 116.03 27.87C118.51 29.65 121.59 30.71 124.92 30.71C133.17 30.71 139.86 24.24 139.86 16.26C139.86 10.33 136.16 5.24 130.88 3.01Z" fill="#DBFFF1"/>
<path d="M133 5.8601C133.06 5.3501 133.09 4.8301 133.09 4.3001C133.09 -3.6799 126.4 -10.1499 118.15 -10.1499C109.9 -10.1499 103.2 -3.6799 103.2 4.3001C103.2 4.8301 103.23 5.3501 103.29 5.8601C98.0101 8.0901 94.3101 13.1801 94.3101 19.1101C94.3101 27.0901 101 33.5601 109.25 33.5601C112.58 33.5601 115.65 32.5101 118.14 30.7201C120.62 32.5001 123.7 33.5601 127.03 33.5601C135.28 33.5601 141.97 27.0901 141.97 19.1101C141.97 13.1801 138.28 8.0901 133 5.8601Z" fill="#DAFFF0"/>
<path d="M135.01 8.73022C135.07 8.22021 135.1 7.70022 135.1 7.17022C135.1 -0.809784 128.41 -7.27979 120.16 -7.27979C111.91 -7.27979 105.22 -0.809784 105.22 7.17022C105.22 7.70022 105.25 8.22021 105.31 8.73022C100.03 10.9602 96.33 16.0502 96.33 21.9802C96.33 29.9602 103.02 36.4302 111.27 36.4302C114.6 36.4302 117.67 35.3802 120.16 33.5902C122.64 35.3702 125.72 36.4302 129.05 36.4302C137.3 36.4302 143.99 29.9602 143.99 21.9802C143.98 16.0502 140.29 10.9602 135.01 8.73022Z" fill="#D9FEF0"/>
<path d="M136.9 11.6101C136.96 11.1001 136.99 10.5801 136.99 10.0501C136.99 2.0701 130.3 -4.3999 122.05 -4.3999C113.8 -4.3999 107.11 2.0701 107.11 10.0501C107.11 10.5801 107.14 11.1001 107.2 11.6101C101.92 13.8401 98.22 18.9301 98.22 24.8601C98.22 32.8401 104.91 39.3101 113.16 39.3101C116.49 39.3101 119.56 38.2601 122.05 36.4701C124.53 38.2501 127.61 39.3101 130.94 39.3101C139.19 39.3101 145.88 32.8401 145.88 24.8601C145.87 18.9301 142.18 13.8401 136.9 11.6101Z" fill="#D8FEEF"/>
<path d="M138.64 14.49C138.7 13.98 138.73 13.46 138.73 12.93C138.73 4.94998 132.04 -1.52002 123.79 -1.52002C115.54 -1.52002 108.85 4.94998 108.85 12.93C108.85 13.46 108.88 13.98 108.94 14.49C103.66 16.72 99.96 21.81 99.96 27.74C99.96 35.72 106.65 42.19 114.9 42.19C118.23 42.19 121.3 41.14 123.79 39.35C126.27 41.13 129.35 42.19 132.68 42.19C140.93 42.19 147.62 35.72 147.62 27.74C147.62 21.81 143.92 16.71 138.64 14.49Z" fill="#D7FEEF"/>
<path d="M140.22 17.3498C140.28 16.8398 140.31 16.3198 140.31 15.7898C140.31 7.80984 133.62 1.33984 125.37 1.33984C117.12 1.33984 110.43 7.80984 110.43 15.7898C110.43 16.3198 110.46 16.8398 110.52 17.3498C105.24 19.5798 101.54 24.6698 101.54 30.5998C101.54 38.5798 108.23 45.0498 116.48 45.0498C119.81 45.0498 122.88 43.9998 125.37 42.2098C127.85 43.9898 130.93 45.0498 134.26 45.0498C142.51 45.0498 149.2 38.5798 149.2 30.5998C149.19 24.6698 145.5 19.5798 140.22 17.3498Z" fill="#D6FDEE"/>
<path d="M141.6 20.1799C141.66 19.6699 141.69 19.1499 141.69 18.6199C141.69 10.6399 135 4.16992 126.75 4.16992C118.5 4.16992 111.81 10.6399 111.81 18.6199C111.81 19.1499 111.84 19.6699 111.9 20.1799C106.62 22.4099 102.92 27.4999 102.92 33.4299C102.92 41.4099 109.61 47.8799 117.86 47.8799C121.19 47.8799 124.26 46.8299 126.75 45.0399C129.23 46.8199 132.31 47.8799 135.64 47.8799C143.89 47.8799 150.58 41.4099 150.58 33.4299C150.58 27.5099 146.89 22.4099 141.6 20.1799Z" fill="#D5FDEE"/>
<path d="M142.78 22.9802C142.84 22.4702 142.87 21.9502 142.87 21.4202C142.87 13.4402 136.18 6.97021 127.93 6.97021C119.68 6.97021 112.99 13.4402 112.99 21.4202C112.99 21.9502 113.02 22.4702 113.08 22.9802C107.8 25.2102 104.1 30.3002 104.1 36.2302C104.1 44.2102 110.79 50.6802 119.04 50.6802C122.37 50.6802 125.44 49.6302 127.93 47.8402C130.41 49.6202 133.49 50.6802 136.82 50.6802C145.07 50.6802 151.76 44.2102 151.76 36.2302C151.75 30.3002 148.06 25.2102 142.78 22.9802Z" fill="#D4FDED"/>
<path d="M143.71 25.72C143.77 25.21 143.8 24.69 143.8 24.16C143.8 16.18 137.11 9.70996 128.86 9.70996C120.61 9.70996 113.92 16.18 113.92 24.16C113.92 24.69 113.95 25.21 114.01 25.72C108.73 27.95 105.03 33.04 105.03 38.97C105.03 46.95 111.72 53.42 119.97 53.42C123.3 53.42 126.37 52.37 128.86 50.58C131.34 52.36 134.42 53.42 137.75 53.42C146 53.42 152.69 46.95 152.69 38.97C152.69 33.05 149 27.95 143.71 25.72Z" fill="#D3FCEC"/>
<path d="M144.39 28.4001C144.45 27.8901 144.48 27.3701 144.48 26.8401C144.48 18.8601 137.79 12.3901 129.54 12.3901C121.29 12.3901 114.6 18.8601 114.6 26.8401C114.6 27.3701 114.63 27.8901 114.69 28.4001C109.41 30.6301 105.71 35.7201 105.71 41.6501C105.71 49.6301 112.4 56.1001 120.65 56.1001C123.98 56.1001 127.05 55.0501 129.54 53.2601C132.02 55.0401 135.1 56.1001 138.43 56.1001C146.68 56.1001 153.37 49.6301 153.37 41.6501C153.37 35.7301 149.68 30.6301 144.39 28.4001Z" fill="#D2FCEC"/>
<path d="M144.79 31.01C144.85 30.5 144.88 29.98 144.88 29.45C144.88 21.47 138.19 15 129.94 15C121.69 15 115 21.47 115 29.45C115 29.98 115.03 30.5 115.09 31.01C109.81 33.24 106.11 38.33 106.11 44.26C106.11 52.24 112.8 58.71 121.05 58.71C124.38 58.71 127.45 57.66 129.94 55.87C132.42 57.65 135.5 58.71 138.83 58.71C147.08 58.71 153.77 52.24 153.77 44.26C153.77 38.33 150.08 33.24 144.79 31.01Z" fill="#D1FCEB"/>
<path d="M144.89 33.5198C144.95 33.0098 144.98 32.4898 144.98 31.9598C144.98 23.9798 138.29 17.5098 130.04 17.5098C121.79 17.5098 115.1 23.9798 115.1 31.9598C115.1 32.4898 115.13 33.0098 115.19 33.5198C109.91 35.7498 106.21 40.8398 106.21 46.7698C106.21 54.7498 112.9 61.2198 121.15 61.2198C124.48 61.2198 127.55 60.1698 130.04 58.3798C132.52 60.1598 135.6 61.2198 138.93 61.2198C147.18 61.2198 153.87 54.7498 153.87 46.7698C153.87 40.8498 150.17 35.7498 144.89 33.5198Z" fill="#D0FBEB"/>
<path d="M144.66 35.9402C144.72 35.4302 144.75 34.9102 144.75 34.3802C144.75 26.4002 138.06 19.9302 129.81 19.9302C121.56 19.9302 114.87 26.4002 114.87 34.3802C114.87 34.9102 114.9 35.4302 114.96 35.9402C109.68 38.1702 105.98 43.2602 105.98 49.1902C105.98 57.1702 112.67 63.6402 120.92 63.6402C124.25 63.6402 127.32 62.5902 129.81 60.8002C132.29 62.5802 135.37 63.6402 138.7 63.6402C146.95 63.6402 153.64 57.1702 153.64 49.1902C153.64 43.2602 149.94 38.1702 144.66 35.9402Z" fill="#CFFBEA"/>
<path d="M144.08 38.24C144.14 37.73 144.17 37.21 144.17 36.68C144.17 28.7 137.48 22.23 129.23 22.23C120.98 22.23 114.29 28.7 114.29 36.68C114.29 37.21 114.32 37.73 114.38 38.24C109.1 40.47 105.4 45.56 105.4 51.49C105.4 59.47 112.09 65.94 120.34 65.94C123.67 65.94 126.74 64.89 129.23 63.1C131.71 64.88 134.79 65.94 138.12 65.94C146.37 65.94 153.06 59.47 153.06 51.49C153.06 45.56 149.37 40.47 144.08 38.24Z" fill="#CEFBEA"/>
<path d="M143.14 40.4099C143.2 39.8999 143.23 39.3799 143.23 38.8499C143.23 30.8699 136.54 24.3999 128.29 24.3999C120.04 24.3999 113.35 30.8699 113.35 38.8499C113.35 39.3799 113.38 39.8999 113.44 40.4099C108.16 42.6399 104.46 47.7299 104.46 53.6599C104.46 61.6399 111.15 68.1099 119.4 68.1099C122.73 68.1099 125.8 67.0599 128.29 65.2699C130.77 67.0499 133.85 68.1099 137.18 68.1099C145.43 68.1099 152.12 61.6399 152.12 53.6599C152.11 47.7399 148.42 42.6399 143.14 40.4099Z" fill="#CDFAE9"/>
<path d="M141.86 42.3699C141.92 41.8599 141.95 41.3399 141.95 40.8099C141.95 32.8299 135.26 26.3599 127.01 26.3599C118.76 26.3599 112.07 32.8299 112.07 40.8099C112.07 41.3399 112.1 41.8599 112.16 42.3699C106.88 44.5999 103.18 49.6899 103.18 55.6199C103.18 63.5999 109.87 70.0699 118.12 70.0699C121.45 70.0699 124.52 69.0199 127.01 67.2299C129.49 69.0099 132.57 70.0699 135.9 70.0699C144.15 70.0699 150.84 63.5999 150.84 55.6199C150.84 49.6899 147.15 44.5899 141.86 42.3699Z" fill="#CDFAE8"/>
<path d="M140.28 44.0998C140.34 43.5898 140.37 43.0698 140.37 42.5398C140.37 34.5598 133.68 28.0898 125.43 28.0898C117.18 28.0898 110.49 34.5598 110.49 42.5398C110.49 43.0698 110.52 43.5898 110.58 44.0998C105.3 46.3298 101.6 51.4198 101.6 57.3498C101.6 65.3298 108.29 71.7998 116.54 71.7998C119.87 71.7998 122.94 70.7498 125.43 68.9598C127.91 70.7398 130.99 71.7998 134.32 71.7998C142.57 71.7998 149.26 65.3298 149.26 57.3498C149.26 51.4198 145.57 46.3198 140.28 44.0998Z" fill="#CCFAE8"/>
<path d="M138.42 45.6101C138.48 45.1001 138.51 44.5801 138.51 44.0501C138.51 36.0701 131.82 29.6001 123.57 29.6001C115.32 29.6001 108.63 36.0701 108.63 44.0501C108.63 44.5801 108.66 45.1001 108.72 45.6101C103.44 47.8401 99.74 52.9301 99.74 58.8601C99.74 66.8401 106.43 73.3101 114.68 73.3101C118.01 73.3101 121.08 72.2601 123.57 70.4701C126.05 72.2501 129.13 73.3101 132.46 73.3101C140.71 73.3101 147.4 66.8401 147.4 58.8601C147.4 52.9401 143.7 47.8401 138.42 45.6101Z" fill="#CBFAE7"/>
<path d="M136.29 46.9299C136.35 46.4199 136.38 45.8999 136.38 45.3699C136.38 37.3899 129.69 30.9199 121.44 30.9199C113.19 30.9199 106.5 37.3899 106.5 45.3699C106.5 45.8999 106.53 46.4199 106.59 46.9299C101.31 49.1599 97.61 54.2499 97.61 60.1799C97.61 68.1599 104.3 74.6299 112.55 74.6299C115.88 74.6299 118.95 73.5799 121.44 71.7899C123.92 73.5699 127 74.6299 130.33 74.6299C138.58 74.6299 145.27 68.1599 145.27 60.1799C145.27 54.2599 141.57 49.1599 136.29 46.9299Z" fill="#CAF9E7"/>
<path d="M133.92 48.0701C133.98 47.5601 134.01 47.0401 134.01 46.5101C134.01 38.5301 127.32 32.0601 119.07 32.0601C110.82 32.0601 104.13 38.5301 104.13 46.5101C104.13 47.0401 104.16 47.5601 104.22 48.0701C98.94 50.3001 95.24 55.3901 95.24 61.3201C95.24 69.3001 101.93 75.7701 110.18 75.7701C113.51 75.7701 116.58 74.7201 119.07 72.9301C121.55 74.7101 124.63 75.7701 127.96 75.7701C136.21 75.7701 142.9 69.3001 142.9 61.3201C142.89 55.3901 139.2 50.2901 133.92 48.0701Z" fill="#C9F9E6"/>
<path d="M131.32 49.03C131.38 48.52 131.41 48 131.41 47.47C131.41 39.49 124.72 33.02 116.47 33.02C108.22 33.02 101.53 39.49 101.53 47.47C101.53 48 101.56 48.52 101.62 49.03C96.34 51.26 92.64 56.35 92.64 62.28C92.64 70.26 99.33 76.73 107.58 76.73C110.91 76.73 113.98 75.68 116.47 73.89C118.95 75.67 122.03 76.73 125.36 76.73C133.61 76.73 140.3 70.26 140.3 62.28C140.29 56.35 136.6 51.25 131.32 49.03Z" fill="#C8F9E6"/>
<path d="M128.51 49.8201C128.57 49.3101 128.6 48.7901 128.6 48.2601C128.6 40.2801 121.91 33.8101 113.66 33.8101C105.41 33.8101 98.72 40.2801 98.72 48.2601C98.72 48.7901 98.75 49.3101 98.81 49.8201C93.53 52.0501 89.83 57.1401 89.83 63.0701C89.83 71.0501 96.52 77.5201 104.77 77.5201C108.1 77.5201 111.17 76.4701 113.66 74.6801C116.14 76.4601 119.22 77.5201 122.55 77.5201C130.8 77.5201 137.49 71.0501 137.49 63.0701C137.49 57.1401 133.79 52.0501 128.51 49.8201Z" fill="#C7F8E5"/>
<path d="M125.52 50.47C125.58 49.96 125.61 49.44 125.61 48.91C125.61 40.93 118.92 34.46 110.67 34.46C102.42 34.46 95.73 40.93 95.73 48.91C95.73 49.44 95.76 49.96 95.82 50.47C90.54 52.7 86.84 57.79 86.84 63.72C86.84 71.7 93.53 78.17 101.78 78.17C105.11 78.17 108.18 77.12 110.67 75.33C113.15 77.11 116.23 78.17 119.56 78.17C127.81 78.17 134.5 71.7 134.5 63.72C134.49 57.79 130.8 52.7 125.52 50.47Z" fill="#C6F8E4"/>
<path d="M122.35 50.9802C122.41 50.4702 122.44 49.9502 122.44 49.4202C122.44 41.4402 115.75 34.9702 107.5 34.9702C99.25 34.9702 92.56 41.4402 92.56 49.4202C92.56 49.9502 92.59 50.4702 92.65 50.9802C87.37 53.2102 83.67 58.3002 83.67 64.2302C83.67 72.2102 90.36 78.6802 98.61 78.6802C101.94 78.6802 105.01 77.6302 107.5 75.8402C109.98 77.6202 113.06 78.6802 116.39 78.6802C124.64 78.6802 131.33 72.2102 131.33 64.2302C131.33 58.3002 127.64 53.2102 122.35 50.9802Z" fill="#C5F8E4"/>
<path d="M119.05 51.3601C119.11 50.8501 119.14 50.3301 119.14 49.8001C119.14 41.8201 112.45 35.3501 104.2 35.3501C95.95 35.3501 89.26 41.8201 89.26 49.8001C89.26 50.3301 89.29 50.8501 89.35 51.3601C84.07 53.5901 80.37 58.6801 80.37 64.6101C80.37 72.5901 87.06 79.0601 95.31 79.0601C98.64 79.0601 101.71 78.0101 104.2 76.2201C106.68 78.0001 109.76 79.0601 113.09 79.0601C121.34 79.0601 128.03 72.5901 128.03 64.6101C128.02 58.6801 124.33 53.5901 119.05 51.3601Z" fill="#C4F7E3"/>
<path d="M115.61 51.6301C115.67 51.1201 115.7 50.6001 115.7 50.0701C115.7 42.0901 109.01 35.6201 100.76 35.6201C92.51 35.6201 85.8201 42.0901 85.8201 50.0701C85.8201 50.6001 85.8501 51.1201 85.9101 51.6301C80.6301 53.8601 76.9301 58.9501 76.9301 64.8801C76.9301 72.8601 83.6201 79.3301 91.8701 79.3301C95.2001 79.3301 98.27 78.2801 100.76 76.4901C103.24 78.2701 106.32 79.3301 109.65 79.3301C117.9 79.3301 124.59 72.8601 124.59 64.8801C124.58 58.9501 120.89 53.8601 115.61 51.6301Z" fill="#C3F7E3"/>
<path d="M112.06 51.8C112.12 51.29 112.15 50.77 112.15 50.24C112.15 42.26 105.46 35.79 97.21 35.79C88.96 35.79 82.27 42.26 82.27 50.24C82.27 50.77 82.3 51.29 82.36 51.8C77.08 54.03 73.38 59.12 73.38 65.05C73.38 73.03 80.07 79.5 88.32 79.5C91.65 79.5 94.72 78.45 97.21 76.66C99.69 78.44 102.77 79.5 106.1 79.5C114.35 79.5 121.04 73.03 121.04 65.05C121.03 59.12 117.34 54.03 112.06 51.8Z" fill="#C2F7E2"/>
<path d="M108.42 51.8801C108.48 51.3701 108.51 50.8501 108.51 50.3201C108.51 42.3401 101.82 35.8701 93.57 35.8701C85.32 35.8701 78.63 42.3401 78.63 50.3201C78.63 50.8501 78.66 51.3701 78.72 51.8801C73.44 54.1101 69.74 59.2001 69.74 65.1301C69.74 73.1101 76.43 79.5801 84.68 79.5801C88.01 79.5801 91.08 78.5301 93.57 76.7401C96.05 78.5201 99.13 79.5801 102.46 79.5801C110.71 79.5801 117.4 73.1101 117.4 65.1301C117.4 59.2001 113.7 54.1101 108.42 51.8801Z" fill="#C1F6E2"/>
<path d="M104.71 51.8899C104.77 51.3799 104.8 50.8599 104.8 50.3299C104.8 42.3499 98.11 35.8799 89.86 35.8799C81.61 35.8799 74.92 42.3499 74.92 50.3299C74.92 50.8599 74.95 51.3799 75.01 51.8899C69.73 54.1199 66.03 59.2099 66.03 65.1399C66.03 73.1199 72.72 79.5899 80.97 79.5899C84.3 79.5899 87.37 78.5399 89.86 76.7499C92.34 78.5299 95.42 79.5899 98.75 79.5899C107 79.5899 113.69 73.1199 113.69 65.1399C113.69 59.2099 110 54.1099 104.71 51.8899Z" fill="#C0F6E1"/>
<path d="M100.96 51.8298C101.02 51.3198 101.05 50.7998 101.05 50.2698C101.05 42.2898 94.36 35.8198 86.11 35.8198C77.86 35.8198 71.17 42.2898 71.17 50.2698C71.17 50.7998 71.2 51.3198 71.26 51.8298C65.98 54.0598 62.28 59.1498 62.28 65.0798C62.28 73.0598 68.97 79.5298 77.22 79.5298C80.55 79.5298 83.62 78.4798 86.11 76.6898C88.59 78.4698 91.67 79.5298 95 79.5298C103.25 79.5298 109.94 73.0598 109.94 65.0798C109.93 59.1498 106.24 54.0498 100.96 51.8298Z" fill="#BFF6E0"/>
<path d="M97.17 51.7102C97.23 51.2002 97.26 50.6802 97.26 50.1502C97.26 42.1702 90.57 35.7002 82.32 35.7002C74.07 35.7002 67.38 42.1702 67.38 50.1502C67.38 50.6802 67.41 51.2002 67.47 51.7102C62.19 53.9402 58.49 59.0302 58.49 64.9602C58.49 72.9402 65.18 79.4102 73.43 79.4102C76.76 79.4102 79.83 78.3602 82.32 76.5702C84.8 78.3502 87.88 79.4102 91.21 79.4102C99.46 79.4102 106.15 72.9402 106.15 64.9602C106.14 59.0402 102.45 53.9402 97.17 51.7102Z" fill="#BEF5E0"/>
<path d="M93.3699 51.5598C93.4299 51.0498 93.4599 50.5298 93.4599 49.9998C93.4599 42.0198 86.7699 35.5498 78.5199 35.5498C70.2699 35.5498 63.5799 42.0198 63.5799 49.9998C63.5799 50.5298 63.6099 51.0498 63.6699 51.5598C58.3899 53.7898 54.6899 58.8798 54.6899 64.8098C54.6899 72.7898 61.3799 79.2598 69.6299 79.2598C72.9599 79.2598 76.0299 78.2098 78.5199 76.4198C80.9999 78.1998 84.0799 79.2598 87.4099 79.2598C95.6599 79.2598 102.35 72.7898 102.35 64.8098C102.34 58.8798 98.6499 53.7898 93.3699 51.5598Z" fill="#BDF5DF"/>
<path d="M89.57 51.3801C89.63 50.8701 89.66 50.3501 89.66 49.8201C89.66 41.8401 82.97 35.3701 74.72 35.3701C66.47 35.3701 59.78 41.8401 59.78 49.8201C59.78 50.3501 59.81 50.8701 59.87 51.3801C54.59 53.6101 50.89 58.7001 50.89 64.6301C50.89 72.6101 57.58 79.0801 65.83 79.0801C69.16 79.0801 72.23 78.0301 74.72 76.2401C77.2 78.0201 80.28 79.0801 83.61 79.0801C91.86 79.0801 98.55 72.6101 98.55 64.6301C98.55 58.7101 94.85 53.6101 89.57 51.3801Z" fill="#BCF5DF"/>
<path d="M85.81 51.1902C85.87 50.6802 85.9 50.1602 85.9 49.6302C85.9 41.6502 79.21 35.1802 70.96 35.1802C62.71 35.1802 56.02 41.6502 56.02 49.6302C56.02 50.1602 56.05 50.6802 56.11 51.1902C50.83 53.4202 47.13 58.5102 47.13 64.4402C47.13 72.4202 53.82 78.8902 62.07 78.8902C65.4 78.8902 68.47 77.8402 70.96 76.0502C73.44 77.8302 76.52 78.8902 79.85 78.8902C88.1 78.8902 94.79 72.4202 94.79 64.4402C94.78 58.5102 91.09 53.4202 85.81 51.1902Z" fill="#BBF4DE"/>
<path d="M82.09 50.99C82.15 50.48 82.18 49.96 82.18 49.43C82.18 41.45 75.49 34.98 67.24 34.98C58.99 34.98 52.3 41.45 52.3 49.43C52.3 49.96 52.33 50.48 52.39 50.99C47.11 53.22 43.41 58.31 43.41 64.24C43.41 72.22 50.1 78.69 58.35 78.69C61.68 78.69 64.75 77.64 67.24 75.85C69.72 77.63 72.8 78.69 76.13 78.69C84.38 78.69 91.07 72.22 91.07 64.24C91.06 58.31 87.37 53.22 82.09 50.99Z" fill="#BAF4DE"/>
<path d="M78.43 50.8C78.49 50.29 78.52 49.77 78.52 49.24C78.52 41.26 71.83 34.79 63.58 34.79C55.33 34.79 48.64 41.26 48.64 49.24C48.64 49.77 48.67 50.29 48.73 50.8C43.45 53.03 39.75 58.12 39.75 64.05C39.75 72.03 46.44 78.5 54.69 78.5C58.02 78.5 61.09 77.45 63.58 75.66C66.06 77.44 69.14 78.5 72.47 78.5C80.72 78.5 87.41 72.03 87.41 64.05C87.41 58.12 83.71 53.03 78.43 50.8Z" fill="#B9F4DD"/>
<path d="M74.8601 50.6301C74.9201 50.1201 74.9501 49.6001 74.9501 49.0701C74.9501 41.0901 68.2601 34.6201 60.0101 34.6201C51.7601 34.6201 45.0701 41.0901 45.0701 49.0701C45.0701 49.6001 45.1001 50.1201 45.1601 50.6301C39.8801 52.8601 36.1801 57.9501 36.1801 63.8801C36.1801 71.8601 42.8701 78.3301 51.1201 78.3301C54.4501 78.3301 57.5201 77.2801 60.0101 75.4901C62.4901 77.2701 65.5701 78.3301 68.9001 78.3301C77.1501 78.3301 83.84 71.8601 83.84 63.8801C83.84 57.9601 80.1501 52.8601 74.8601 50.6301Z" fill="#B8F3DC"/>
<path d="M71.4 50.5002C71.46 49.9902 71.49 49.4702 71.49 48.9402C71.49 40.9602 64.8 34.4902 56.55 34.4902C48.3 34.4902 41.61 40.9602 41.61 48.9402C41.61 49.4702 41.64 49.9902 41.7 50.5002C36.42 52.7302 32.72 57.8202 32.72 63.7502C32.72 71.7302 39.41 78.2002 47.66 78.2002C50.99 78.2002 54.06 77.1502 56.55 75.3602C59.03 77.1402 62.11 78.2002 65.44 78.2002C73.69 78.2002 80.38 71.7302 80.38 63.7502C80.38 57.8202 76.68 52.7302 71.4 50.5002Z" fill="#B7F3DC"/>
<path d="M68.06 50.4099C68.12 49.8999 68.15 49.3799 68.15 48.8499C68.15 40.8699 61.46 34.3999 53.21 34.3999C44.96 34.3999 38.27 40.8699 38.27 48.8499C38.27 49.3799 38.3 49.8999 38.36 50.4099C33.08 52.6399 29.38 57.7299 29.38 63.6599C29.38 71.6399 36.07 78.1099 44.32 78.1099C47.65 78.1099 50.72 77.0599 53.21 75.2699C55.69 77.0499 58.77 78.1099 62.1 78.1099C70.35 78.1099 77.04 71.6399 77.04 63.6599C77.04 57.7399 73.34 52.6399 68.06 50.4099Z" fill="#B6F3DB"/>
<path d="M64.8699 50.3801C64.9299 49.8701 64.9599 49.3501 64.9599 48.8201C64.9599 40.8401 58.2699 34.3701 50.0199 34.3701C41.7699 34.3701 35.0799 40.8401 35.0799 48.8201C35.0799 49.3501 35.1099 49.8701 35.1699 50.3801C29.8899 52.6101 26.1899 57.7001 26.1899 63.6301C26.1899 71.6101 32.8799 78.0801 41.1299 78.0801C44.4599 78.0801 47.5299 77.0301 50.0199 75.2401C52.4999 77.0201 55.5799 78.0801 58.9099 78.0801C67.1599 78.0801 73.8499 71.6101 73.8499 63.6301C73.8399 57.7101 70.1499 52.6101 64.8699 50.3801Z" fill="#B5F2DB"/>
<path d="M61.83 50.4202C61.89 49.9102 61.92 49.3902 61.92 48.8602C61.92 40.8802 55.23 34.4102 46.98 34.4102C38.73 34.4102 32.04 40.8802 32.04 48.8602C32.04 49.3902 32.07 49.9102 32.13 50.4202C26.85 52.6502 23.15 57.7402 23.15 63.6702C23.15 71.6502 29.84 78.1202 38.09 78.1202C41.42 78.1202 44.49 77.0702 46.98 75.2802C49.46 77.0602 52.54 78.1202 55.87 78.1202C64.12 78.1202 70.81 71.6502 70.81 63.6702C70.81 57.7502 67.12 52.6502 61.83 50.4202Z" fill="#B4F2DA"/>
<path d="M58.99 50.55C59.05 50.04 59.0801 49.52 59.0801 48.99C59.0801 41.01 52.39 34.54 44.14 34.54C35.89 34.54 29.2 41.01 29.2 48.99C29.2 49.52 29.2301 50.04 29.2901 50.55C24.0001 52.78 20.3 57.87 20.3 63.8C20.3 71.78 26.99 78.25 35.24 78.25C38.57 78.25 41.64 77.2 44.13 75.41C46.61 77.19 49.69 78.25 53.02 78.25C61.27 78.25 67.96 71.78 67.96 63.8C67.96 57.87 64.27 52.78 58.99 50.55Z" fill="#B3F2DA"/>
<path d="M56.34 50.76C56.4 50.25 56.43 49.73 56.43 49.2C56.43 41.22 49.74 34.75 41.49 34.75C33.24 34.75 26.55 41.22 26.55 49.2C26.55 49.73 26.58 50.25 26.64 50.76C21.36 52.99 17.66 58.08 17.66 64.01C17.66 71.99 24.35 78.46 32.6 78.46C35.93 78.46 39 77.41 41.49 75.62C43.97 77.4 47.05 78.46 50.38 78.46C58.63 78.46 65.32 71.99 65.32 64.01C65.32 58.09 61.62 52.99 56.34 50.76Z" fill="#B2F1D9"/>
<path d="M53.92 51.0901C53.98 50.5801 54.01 50.0601 54.01 49.5301C54.01 41.5501 47.32 35.0801 39.07 35.0801C30.82 35.0801 24.13 41.5501 24.13 49.5301C24.13 50.0601 24.16 50.5801 24.22 51.0901C18.94 53.3201 15.24 58.4101 15.24 64.3401C15.24 72.3201 21.93 78.7901 30.18 78.7901C33.51 78.7901 36.58 77.7401 39.07 75.9501C41.55 77.7301 44.63 78.7901 47.96 78.7901C56.21 78.7901 62.9 72.3201 62.9 64.3401C62.89 58.4101 59.2 53.3201 53.92 51.0901Z" fill="#B1F1D8"/>
<path d="M51.7301 51.53C51.7901 51.02 51.82 50.5 51.82 49.97C51.82 41.99 45.13 35.52 36.88 35.52C28.63 35.52 21.94 41.99 21.94 49.97C21.94 50.5 21.97 51.02 22.03 51.53C16.75 53.76 13.05 58.85 13.05 64.78C13.05 72.76 19.7401 79.23 27.9901 79.23C31.3201 79.23 34.39 78.18 36.88 76.39C39.36 78.17 42.44 79.23 45.77 79.23C54.02 79.23 60.71 72.76 60.71 64.78C60.71 58.86 57.0101 53.76 51.7301 51.53Z" fill="#B1F1D8"/>
<path d="M49.81 52.1101C49.87 51.6001 49.9 51.0801 49.9 50.5501C49.9 42.5701 43.21 36.1001 34.96 36.1001C26.71 36.1001 20.02 42.5701 20.02 50.5501C20.02 51.0801 20.05 51.6001 20.11 52.1101C14.83 54.3401 11.13 59.4301 11.13 65.3601C11.13 73.3401 17.82 79.8101 26.07 79.8101C29.4 79.8101 32.47 78.7601 34.96 76.9701C37.44 78.7501 40.52 79.8101 43.85 79.8101C52.1 79.8101 58.79 73.3401 58.79 65.3601C58.79 59.4301 55.09 54.3401 49.81 52.1101Z" fill="#B0F0D7"/>
<path d="M48.17 52.8298C48.23 52.3198 48.26 51.7998 48.26 51.2698C48.26 43.2898 41.57 36.8198 33.32 36.8198C25.07 36.8198 18.38 43.2898 18.38 51.2698C18.38 51.7998 18.41 52.3198 18.47 52.8298C13.19 55.0598 9.48999 60.1498 9.48999 66.0798C9.48999 74.0598 16.18 80.5298 24.43 80.5298C27.76 80.5298 30.83 79.4798 33.32 77.6898C35.8 79.4698 38.88 80.5298 42.21 80.5298C50.46 80.5298 57.15 74.0598 57.15 66.0798C57.14 60.1498 53.45 55.0598 48.17 52.8298Z" fill="#AFF0D7"/>
<path d="M46.83 53.6999C46.89 53.1899 46.92 52.6699 46.92 52.1399C46.92 44.1599 40.23 37.6899 31.98 37.6899C23.73 37.6899 17.04 44.1599 17.04 52.1399C17.04 52.6699 17.07 53.1899 17.13 53.6999C11.85 55.9299 8.15002 61.0199 8.15002 66.9499C8.15002 74.9299 14.84 81.3999 23.09 81.3999C26.42 81.3999 29.49 80.3499 31.98 78.5599C34.46 80.3399 37.54 81.3999 40.87 81.3999C49.12 81.3999 55.81 74.9299 55.81 66.9499C55.8 61.0299 52.11 55.9299 46.83 53.6999Z" fill="#AEF0D6"/>
<path d="M45.8 54.7502C45.86 54.2402 45.89 53.7202 45.89 53.1902C45.89 45.2102 39.2 38.7402 30.95 38.7402C22.7 38.7402 16.01 45.2102 16.01 53.1902C16.01 53.7202 16.04 54.2402 16.1 54.7502C10.82 56.9802 7.12 62.0702 7.12 68.0002C7.12 75.9802 13.81 82.4502 22.06 82.4502C25.39 82.4502 28.46 81.4002 30.95 79.6102C33.43 81.3902 36.51 82.4502 39.84 82.4502C48.09 82.4502 54.78 75.9802 54.78 68.0002C54.78 62.0702 51.08 56.9802 45.8 54.7502Z" fill="#ADEFD6"/>
<path d="M45.16 55.8699C45.22 55.3599 45.25 54.8399 45.25 54.3099C45.25 46.3299 38.56 39.8599 30.31 39.8599C22.06 39.8599 15.37 46.3299 15.37 54.3099C15.37 54.8399 15.4 55.3599 15.46 55.8699C10.18 58.0999 6.47998 63.1899 6.47998 69.1199C6.47998 77.0999 13.17 83.5699 21.42 83.5699C24.75 83.5699 27.82 82.5199 30.31 80.7299C32.79 82.5099 35.87 83.5699 39.2 83.5699C47.45 83.5699 54.14 77.0999 54.14 69.1199C54.14 63.1899 50.44 58.0899 45.16 55.8699Z" fill="#ACEFD5"/>
<path d="M44.95 56.4802C45.01 55.9702 45.04 55.4502 45.04 54.9202C45.04 46.9402 38.35 40.4702 30.1 40.4702C21.85 40.4702 15.16 46.9402 15.16 54.9202C15.16 55.4502 15.19 55.9702 15.25 56.4802C9.97002 58.7102 6.27002 63.8002 6.27002 69.7302C6.27002 77.7102 12.96 84.1802 21.21 84.1802C24.54 84.1802 27.61 83.1302 30.1 81.3402C32.58 83.1202 35.66 84.1802 38.99 84.1802C47.24 84.1802 53.93 77.7102 53.93 69.7302C53.93 63.8002 50.24 58.7102 44.95 56.4802Z" fill="#ABEFD4"/>
<path d="M44.83 57.1199C44.89 56.6099 44.92 56.0899 44.92 55.5599C44.92 47.5799 38.23 41.1099 29.98 41.1099C21.73 41.1099 15.04 47.5799 15.04 55.5599C15.04 56.0899 15.07 56.6099 15.13 57.1199C9.85002 59.3499 6.15002 64.4399 6.15002 70.3699C6.15002 78.3499 12.84 84.8199 21.09 84.8199C24.42 84.8199 27.49 83.7699 29.98 81.9799C32.46 83.7599 35.54 84.8199 38.87 84.8199C47.12 84.8199 53.81 78.3499 53.81 70.3699C53.8 64.4499 50.11 59.3499 44.83 57.1199Z" fill="#AAEFD4"/>
<path d="M44.78 57.8098C44.84 57.2998 44.87 56.7798 44.87 56.2498C44.87 48.2698 38.18 41.7998 29.93 41.7998C21.68 41.7998 14.99 48.2698 14.99 56.2498C14.99 56.7798 15.02 57.2998 15.08 57.8098C9.79998 60.0398 6.09998 65.1298 6.09998 71.0598C6.09998 79.0398 12.79 85.5098 21.04 85.5098C24.37 85.5098 27.44 84.4598 29.93 82.6698C32.41 84.4498 35.49 85.5098 38.82 85.5098C47.07 85.5098 53.76 79.0398 53.76 71.0598C53.75 65.1298 50.06 60.0398 44.78 57.8098Z" fill="#A9EED3"/>
<path d="M44.81 58.53C44.87 58.02 44.9 57.5 44.9 56.97C44.9 48.99 38.21 42.52 29.96 42.52C21.71 42.52 15.02 48.99 15.02 56.97C15.02 57.5 15.05 58.02 15.11 58.53C9.83 60.76 6.13 65.85 6.13 71.78C6.13 79.76 12.82 86.23 21.07 86.23C24.4 86.23 27.47 85.18 29.96 83.39C32.44 85.17 35.52 86.23 38.85 86.23C47.1 86.23 53.79 79.76 53.79 71.78C53.78 65.85 50.09 60.76 44.81 58.53Z" fill="#A8EED3"/>
<path d="M44.92 59.2898C44.98 58.7798 45.01 58.2598 45.01 57.7298C45.01 49.7498 38.32 43.2798 30.07 43.2798C21.82 43.2798 15.13 49.7498 15.13 57.7298C15.13 58.2598 15.16 58.7798 15.22 59.2898C9.93999 61.5198 6.23999 66.6098 6.23999 72.5398C6.23999 80.5198 12.93 86.9898 21.18 86.9898C24.51 86.9898 27.58 85.9398 30.07 84.1498C32.55 85.9298 35.63 86.9898 38.96 86.9898C47.21 86.9898 53.9 80.5198 53.9 72.5398C53.89 66.6098 50.2 61.5198 44.92 59.2898Z" fill="#A7EED2"/>
<path d="M45.1199 60.0901C45.1799 59.5801 45.2099 59.0601 45.2099 58.5301C45.2099 50.5501 38.5199 44.0801 30.2699 44.0801C22.0199 44.0801 15.3299 50.5501 15.3299 58.5301C15.3299 59.0601 15.3599 59.5801 15.4199 60.0901C10.1399 62.3201 6.43994 67.4101 6.43994 73.3401C6.43994 81.3201 13.1299 87.7901 21.3799 87.7901C24.7099 87.7901 27.7799 86.7401 30.2699 84.9501C32.7499 86.7301 35.8299 87.7901 39.1599 87.7901C47.4099 87.7901 54.0999 81.3201 54.0999 73.3401C54.0899 67.4101 50.3999 62.3201 45.1199 60.0901Z" fill="#A6EDD2"/>
<path d="M45.4 60.9299C45.46 60.4199 45.49 59.8999 45.49 59.3699C45.49 51.3899 38.8 44.9199 30.55 44.9199C22.3 44.9199 15.61 51.3899 15.61 59.3699C15.61 59.8999 15.64 60.4199 15.7 60.9299C10.42 63.1599 6.71997 68.2499 6.71997 74.1799C6.71997 82.1599 13.41 88.6299 21.66 88.6299C24.99 88.6299 28.06 87.5799 30.55 85.7899C33.03 87.5699 36.11 88.6299 39.44 88.6299C47.69 88.6299 54.38 82.1599 54.38 74.1799C54.38 68.2499 50.68 63.1599 45.4 60.9299Z" fill="#A5EDD1"/>
<path d="M45.77 61.8098C45.83 61.2998 45.86 60.7798 45.86 60.2498C45.86 52.2698 39.17 45.7998 30.92 45.7998C22.67 45.7998 15.98 52.2698 15.98 60.2498C15.98 60.7798 16.01 61.2998 16.07 61.8098C10.79 64.0398 7.08997 69.1298 7.08997 75.0598C7.08997 83.0398 13.78 89.5098 22.03 89.5098C25.36 89.5098 28.43 88.4598 30.92 86.6698C33.4 88.4498 36.48 89.5098 39.81 89.5098C48.06 89.5098 54.75 83.0398 54.75 75.0598C54.75 69.1298 51.05 64.0398 45.77 61.8098Z" fill="#A4EDD0"/>
<path d="M46.2301 62.7302C46.2901 62.2202 46.32 61.7002 46.32 61.1702C46.32 53.1902 39.63 46.7202 31.38 46.7202C23.13 46.7202 16.44 53.1902 16.44 61.1702C16.44 61.7002 16.47 62.2202 16.53 62.7302C11.25 64.9602 7.55005 70.0502 7.55005 75.9802C7.55005 83.9602 14.2401 90.4302 22.4901 90.4302C25.8201 90.4302 28.89 89.3802 31.38 87.5902C33.86 89.3702 36.94 90.4302 40.27 90.4302C48.52 90.4302 55.21 83.9602 55.21 75.9802C55.21 70.0502 51.5101 64.9602 46.2301 62.7302Z" fill="#A3ECD0"/>
<path d="M46.78 63.6999C46.84 63.1899 46.87 62.6699 46.87 62.1399C46.87 54.1599 40.18 47.6899 31.93 47.6899C23.68 47.6899 16.99 54.1599 16.99 62.1399C16.99 62.6699 17.02 63.1899 17.08 63.6999C11.8 65.9299 8.09998 71.0199 8.09998 76.9499C8.09998 84.9299 14.79 91.3999 23.04 91.3999C26.37 91.3999 29.44 90.3499 31.93 88.5599C34.41 90.3399 37.49 91.3999 40.82 91.3999C49.07 91.3999 55.76 84.9299 55.76 76.9499C55.76 71.0199 52.06 65.9199 46.78 63.6999Z" fill="#A2ECCF"/>
<path d="M47.43 64.6999C47.49 64.1899 47.52 63.6699 47.52 63.1399C47.52 55.1599 40.83 48.6899 32.58 48.6899C24.33 48.6899 17.64 55.1599 17.64 63.1399C17.64 63.6699 17.67 64.1899 17.73 64.6999C12.45 66.9299 8.75 72.0199 8.75 77.9499C8.75 85.9299 15.44 92.3999 23.69 92.3999C27.02 92.3999 30.09 91.3499 32.58 89.5599C35.06 91.3399 38.14 92.3999 41.47 92.3999C49.72 92.3999 56.41 85.9299 56.41 77.9499C56.4 72.0199 52.71 66.9299 47.43 64.6999Z" fill="#A1ECCF"/>
<path d="M48.16 65.7502C48.22 65.2402 48.25 64.7202 48.25 64.1902C48.25 56.2102 41.56 49.7402 33.31 49.7402C25.06 49.7402 18.37 56.2102 18.37 64.1902C18.37 64.7202 18.4 65.2402 18.46 65.7502C13.18 67.9802 9.47998 73.0702 9.47998 79.0002C9.47998 86.9802 16.17 93.4502 24.42 93.4502C27.75 93.4502 30.82 92.4002 33.31 90.6102C35.79 92.3902 38.87 93.4502 42.2 93.4502C50.45 93.4502 57.14 86.9802 57.14 79.0002C57.14 73.0702 53.45 67.9802 48.16 65.7502Z" fill="#A0EBCE"/>
<path d="M49.0001 66.8401C49.0601 66.3301 49.0901 65.8101 49.0901 65.2801C49.0901 57.3001 42.4001 50.8301 34.1501 50.8301C25.9001 50.8301 19.2001 57.3001 19.2001 65.2801C19.2001 65.8101 19.2301 66.3301 19.2901 66.8401C14.0101 69.0701 10.3101 74.1601 10.3101 80.0901C10.3101 88.0701 17.0001 94.5401 25.2501 94.5401C28.5801 94.5401 31.6501 93.4901 34.1401 91.7001C36.6201 93.4801 39.7001 94.5401 43.0301 94.5401C51.2801 94.5401 57.9701 88.0701 57.9701 80.0901C57.9701 74.1601 54.2801 69.0701 49.0001 66.8401Z" fill="#9FEBCE"/>
<path d="M49.93 67.9802C49.99 67.4702 50.02 66.9502 50.02 66.4202C50.02 58.4402 43.33 51.9702 35.08 51.9702C26.83 51.9702 20.14 58.4402 20.14 66.4202C20.14 66.9502 20.17 67.4702 20.23 67.9802C14.95 70.2102 11.25 75.3002 11.25 81.2302C11.25 89.2102 17.94 95.6802 26.19 95.6802C29.52 95.6802 32.59 94.6302 35.08 92.8402C37.56 94.6202 40.64 95.6802 43.97 95.6802C52.22 95.6802 58.91 89.2102 58.91 81.2302C58.9 75.3002 55.21 70.2102 49.93 67.9802Z" fill="#9EEBCD"/>
<path d="M50.96 69.1599C51.02 68.6499 51.05 68.1299 51.05 67.5999C51.05 59.6199 44.36 53.1499 36.11 53.1499C27.86 53.1499 21.16 59.6199 21.16 67.5999C21.16 68.1299 21.19 68.6499 21.25 69.1599C15.97 71.3899 12.27 76.4799 12.27 82.4099C12.27 90.3899 18.96 96.8599 27.21 96.8599C30.54 96.8599 33.61 95.8099 36.1 94.0199C38.58 95.7999 41.66 96.8599 44.99 96.8599C53.24 96.8599 59.93 90.3899 59.93 82.4099C59.93 76.4799 56.24 71.3899 50.96 69.1599Z" fill="#9DEACC"/>
<path d="M52.09 70.3899C52.15 69.8799 52.18 69.3599 52.18 68.8299C52.18 60.8499 45.49 54.3799 37.24 54.3799C28.99 54.3799 22.3 60.8499 22.3 68.8299C22.3 69.3599 22.33 69.8799 22.39 70.3899C17.11 72.6199 13.41 77.7099 13.41 83.6399C13.41 91.6199 20.1 98.0899 28.35 98.0899C31.68 98.0899 34.75 97.0399 37.24 95.2499C39.72 97.0299 42.8 98.0899 46.13 98.0899C54.38 98.0899 61.07 91.6199 61.07 83.6399C61.06 77.7099 57.37 72.6099 52.09 70.3899Z" fill="#9CEACC"/>
<path d="M53.32 71.6599C53.38 71.1499 53.41 70.6299 53.41 70.0999C53.41 62.1199 46.72 55.6499 38.47 55.6499C30.22 55.6499 23.53 62.1199 23.53 70.0999C23.53 70.6299 23.56 71.1499 23.62 71.6599C18.34 73.8899 14.64 78.9799 14.64 84.9099C14.64 92.8899 21.33 99.3599 29.58 99.3599C32.91 99.3599 35.98 98.3099 38.47 96.5199C40.95 98.2999 44.03 99.3599 47.36 99.3599C55.61 99.3599 62.3 92.8899 62.3 84.9099C62.3 78.9799 58.61 73.8899 53.32 71.6599Z" fill="#9BEACB"/>
<path d="M54.66 72.9802C54.72 72.4702 54.75 71.9502 54.75 71.4202C54.75 63.4402 48.06 56.9702 39.81 56.9702C31.56 56.9702 24.87 63.4402 24.87 71.4202C24.87 71.9502 24.9 72.4702 24.96 72.9802C19.68 75.2102 15.98 80.3002 15.98 86.2302C15.98 94.2102 22.67 100.68 30.92 100.68C34.25 100.68 37.32 99.6302 39.81 97.8402C42.29 99.6202 45.37 100.68 48.7 100.68C56.95 100.68 63.64 94.2102 63.64 86.2302C63.64 80.3002 59.94 75.2102 54.66 72.9802Z" fill="#9AE9CB"/>
<path d="M56.1101 74.3498C56.1701 73.8398 56.2001 73.3198 56.2001 72.7898C56.2001 64.8098 49.5101 58.3398 41.2601 58.3398C33.0101 58.3398 26.3201 64.8098 26.3201 72.7898C26.3201 73.3198 26.3501 73.8398 26.4101 74.3498C21.1301 76.5798 17.4301 81.6698 17.4301 87.5998C17.4301 95.5798 24.1201 102.05 32.3701 102.05C35.7001 102.05 38.7701 101 41.2601 99.2098C43.7401 100.99 46.8201 102.05 50.1501 102.05C58.4001 102.05 65.09 95.5798 65.09 87.5998C65.0801 81.6698 61.3901 76.5798 56.1101 74.3498Z" fill="#99E9CA"/>
<path d="M57.66 75.7698C57.72 75.2598 57.75 74.7398 57.75 74.2098C57.75 66.2298 51.06 59.7598 42.81 59.7598C34.56 59.7598 27.87 66.2298 27.87 74.2098C27.87 74.7398 27.9 75.2598 27.96 75.7698C22.68 77.9998 18.98 83.0898 18.98 89.0198C18.98 96.9998 25.67 103.47 33.92 103.47C37.25 103.47 40.32 102.42 42.81 100.63C45.29 102.41 48.37 103.47 51.7 103.47C59.95 103.47 66.64 96.9998 66.64 89.0198C66.63 83.0898 62.94 77.9898 57.66 75.7698Z" fill="#98E9CA"/>
<path d="M59.32 77.2302C59.38 76.7202 59.41 76.2002 59.41 75.6702C59.41 67.6902 52.72 61.2202 44.47 61.2202C36.22 61.2202 29.53 67.6902 29.53 75.6702C29.53 76.2002 29.56 76.7202 29.62 77.2302C24.34 79.4602 20.64 84.5502 20.64 90.4802C20.64 98.4602 27.33 104.93 35.58 104.93C38.91 104.93 41.98 103.88 44.47 102.09C46.95 103.87 50.03 104.93 53.36 104.93C61.61 104.93 68.3 98.4602 68.3 90.4802C68.29 84.5502 64.6 79.4602 59.32 77.2302Z" fill="#97E8C9"/>
<path d="M61.09 78.7502C61.15 78.2402 61.18 77.7202 61.18 77.1902C61.18 69.2102 54.49 62.7402 46.24 62.7402C37.99 62.7402 31.3 69.2102 31.3 77.1902C31.3 77.7202 31.33 78.2402 31.39 78.7502C26.11 80.9802 22.41 86.0702 22.41 92.0002C22.41 99.9802 29.1 106.45 37.35 106.45C40.68 106.45 43.75 105.4 46.24 103.61C48.72 105.39 51.8 106.45 55.13 106.45C63.38 106.45 70.07 99.9802 70.07 92.0002C70.07 86.0702 66.37 80.9802 61.09 78.7502Z" fill="#96E8C8"/>
<path d="M62.97 80.3098C63.03 79.7998 63.06 79.2798 63.06 78.7498C63.06 70.7698 56.37 64.2998 48.12 64.2998C39.87 64.2998 33.18 70.7698 33.18 78.7498C33.18 79.2798 33.21 79.7998 33.27 80.3098C27.99 82.5398 24.29 87.6298 24.29 93.5598C24.29 101.54 30.98 108.01 39.23 108.01C42.56 108.01 45.63 106.96 48.12 105.17C50.6 106.95 53.68 108.01 57.01 108.01C65.26 108.01 71.95 101.54 71.95 93.5598C71.95 87.6398 68.26 82.5398 62.97 80.3098Z" fill="#96E8C8"/>
<path d="M64.97 81.9299C65.03 81.4199 65.06 80.8999 65.06 80.3699C65.06 72.3899 58.37 65.9199 50.12 65.9199C41.87 65.9199 35.18 72.3899 35.18 80.3699C35.18 80.8999 35.21 81.4199 35.27 81.9299C29.99 84.1599 26.29 89.2499 26.29 95.1799C26.29 103.16 32.98 109.63 41.23 109.63C44.56 109.63 47.63 108.58 50.12 106.79C52.6 108.57 55.68 109.63 59.01 109.63C67.26 109.63 73.95 103.16 73.95 95.1799C73.95 89.2499 70.26 84.1599 64.97 81.9299Z" fill="#95E7C7"/>
<path d="M67.09 83.5998C67.15 83.0898 67.18 82.5698 67.18 82.0398C67.18 74.0598 60.49 67.5898 52.24 67.5898C43.99 67.5898 37.3 74.0598 37.3 82.0398C37.3 82.5698 37.33 83.0898 37.39 83.5998C32.11 85.8298 28.41 90.9198 28.41 96.8498C28.41 104.83 35.1 111.3 43.35 111.3C46.68 111.3 49.75 110.25 52.24 108.46C54.72 110.24 57.8 111.3 61.13 111.3C69.38 111.3 76.07 104.83 76.07 96.8498C76.06 90.9198 72.37 85.8298 67.09 83.5998Z" fill="#94E7C7"/>
<path d="M69.32 85.3201C69.38 84.8101 69.41 84.2901 69.41 83.7601C69.41 75.7801 62.72 69.3101 54.47 69.3101C46.22 69.3101 39.53 75.7801 39.53 83.7601C39.53 84.2901 39.56 84.8101 39.62 85.3201C34.34 87.5501 30.64 92.6401 30.64 98.5701C30.64 106.55 37.33 113.02 45.58 113.02C48.91 113.02 51.98 111.97 54.47 110.18C56.95 111.96 60.03 113.02 63.36 113.02C71.61 113.02 78.3 106.55 78.3 98.5701C78.3 92.6401 74.6 87.5501 69.32 85.3201Z" fill="#93E7C6"/>
<path d="M71.67 87.0998C71.73 86.5898 71.76 86.0698 71.76 85.5398C71.76 77.5598 65.07 71.0898 56.82 71.0898C48.57 71.0898 41.88 77.5598 41.88 85.5398C41.88 86.0698 41.91 86.5898 41.97 87.0998C36.69 89.3298 32.99 94.4198 32.99 100.35C32.99 108.33 39.68 114.8 47.93 114.8C51.26 114.8 54.33 113.75 56.82 111.96C59.3 113.74 62.38 114.8 65.71 114.8C73.96 114.8 80.65 108.33 80.65 100.35C80.65 94.4198 76.96 89.3198 71.67 87.0998Z" fill="#92E6C6"/>
<path d="M74.15 88.9202C74.21 88.4102 74.24 87.8902 74.24 87.3602C74.24 79.3802 67.55 72.9102 59.3 72.9102C51.05 72.9102 44.36 79.3802 44.36 87.3602C44.36 87.8902 44.39 88.4102 44.45 88.9202C39.17 91.1502 35.47 96.2402 35.47 102.17C35.47 110.15 42.16 116.62 50.41 116.62C53.74 116.62 56.81 115.57 59.3 113.78C61.78 115.56 64.86 116.62 68.19 116.62C76.44 116.62 83.13 110.15 83.13 102.17C83.12 96.2502 79.43 91.1502 74.15 88.9202Z" fill="#91E6C5"/>
<path d="M76.7401 90.8098C76.8001 90.2998 76.8301 89.7798 76.8301 89.2498C76.8301 81.2698 70.1401 74.7998 61.8901 74.7998C53.6401 74.7998 46.9501 81.2698 46.9501 89.2498C46.9501 89.7798 46.9801 90.2998 47.0401 90.8098C41.7601 93.0398 38.0601 98.1298 38.0601 104.06C38.0601 112.04 44.7501 118.51 53.0001 118.51C56.3301 118.51 59.4001 117.46 61.8901 115.67C64.3701 117.45 67.4501 118.51 70.7801 118.51C79.0301 118.51 85.7201 112.04 85.7201 104.06C85.7201 98.1298 82.0201 93.0298 76.7401 90.8098Z" fill="#90E6C4"/>
<path d="M79.46 92.74C79.52 92.23 79.55 91.71 79.55 91.18C79.55 83.2 72.86 76.73 64.61 76.73C56.36 76.73 49.67 83.2 49.67 91.18C49.67 91.71 49.7 92.23 49.76 92.74C44.48 94.97 40.78 100.06 40.78 105.99C40.78 113.97 47.47 120.44 55.72 120.44C59.05 120.44 62.12 119.39 64.61 117.6C67.09 119.38 70.17 120.44 73.5 120.44C81.75 120.44 88.44 113.97 88.44 105.99C88.44 100.07 84.74 94.97 79.46 92.74Z" fill="#8FE5C4"/>
<path d="M82.31 94.74C82.37 94.23 82.4 93.71 82.4 93.18C82.4 85.2 75.71 78.73 67.46 78.73C59.21 78.73 52.52 85.2 52.52 93.18C52.52 93.71 52.55 94.23 52.61 94.74C47.33 96.97 43.63 102.06 43.63 107.99C43.63 115.97 50.32 122.44 58.57 122.44C61.9 122.44 64.97 121.39 67.46 119.6C69.94 121.38 73.02 122.44 76.35 122.44C84.6 122.44 91.29 115.97 91.29 107.99C91.28 102.06 87.59 96.96 82.31 94.74Z" fill="#8EE5C3"/>
<path d="M85.28 96.7898C85.34 96.2798 85.37 95.7598 85.37 95.2298C85.37 87.2498 78.68 80.7798 70.43 80.7798C62.18 80.7798 55.49 87.2498 55.49 95.2298C55.49 95.7598 55.52 96.2798 55.58 96.7898C50.3 99.0198 46.6 104.11 46.6 110.04C46.6 118.02 53.29 124.49 61.54 124.49C64.87 124.49 67.94 123.44 70.43 121.65C72.91 123.43 75.99 124.49 79.32 124.49C87.57 124.49 94.26 118.02 94.26 110.04C94.26 104.11 90.56 99.0098 85.28 96.7898Z" fill="#8DE5C3"/>
<path d="M88.39 98.8899C88.45 98.3799 88.48 97.8599 88.48 97.3299C88.48 89.3499 81.79 82.8799 73.54 82.8799C65.29 82.8799 58.6 89.3499 58.6 97.3299C58.6 97.8599 58.63 98.3799 58.69 98.8899C53.41 101.12 49.71 106.21 49.71 112.14C49.71 120.12 56.4 126.59 64.65 126.59C67.98 126.59 71.05 125.54 73.54 123.75C76.02 125.53 79.1 126.59 82.43 126.59C90.68 126.59 97.37 120.12 97.37 112.14C97.36 106.21 93.67 101.12 88.39 98.8899Z" fill="#8CE4C2"/>
<path d="M91.6199 101.06C91.6799 100.55 91.7099 100.03 91.7099 99.4998C91.7099 91.5198 85.0199 85.0498 76.7699 85.0498C68.5199 85.0498 61.8299 91.5198 61.8299 99.4998C61.8299 100.03 61.8599 100.55 61.9199 101.06C56.6399 103.29 52.9399 108.38 52.9399 114.31C52.9399 122.29 59.6299 128.76 67.8799 128.76C71.2099 128.76 74.2799 127.71 76.7699 125.92C79.2499 127.7 82.3299 128.76 85.6599 128.76C93.9099 128.76 100.6 122.29 100.6 114.31C100.6 108.38 96.8999 103.29 91.6199 101.06Z" fill="#8BE4C2"/>
<path d="M94.9901 103.28C95.0501 102.77 95.0801 102.25 95.0801 101.72C95.0801 93.74 88.3901 87.27 80.1401 87.27C71.8901 87.27 65.2001 93.74 65.2001 101.72C65.2001 102.25 65.2301 102.77 65.2901 103.28C60.0101 105.51 56.3101 110.6 56.3101 116.53C56.3101 124.51 63.0001 130.98 71.2501 130.98C74.5801 130.98 77.6501 129.93 80.1401 128.14C82.6201 129.92 85.7001 130.98 89.0301 130.98C97.2801 130.98 103.97 124.51 103.97 116.53C103.96 110.6 100.27 105.51 94.9901 103.28Z" fill="#8AE4C1"/>
<path d="M98.4901 105.56C98.5501 105.05 98.5801 104.53 98.5801 104C98.5801 96.0198 91.8901 89.5498 83.6401 89.5498C75.3901 89.5498 68.7001 96.0198 68.7001 104C68.7001 104.53 68.7301 105.05 68.7901 105.56C63.5101 107.79 59.8101 112.88 59.8101 118.81C59.8101 126.79 66.5001 133.26 74.7501 133.26C78.0801 133.26 81.1501 132.21 83.6401 130.42C86.1201 132.2 89.2001 133.26 92.5301 133.26C100.78 133.26 107.47 126.79 107.47 118.81C107.46 112.88 103.77 107.79 98.4901 105.56Z" fill="#89E4C0"/>
<path d="M102.13 107.9C102.19 107.39 102.22 106.87 102.22 106.34C102.22 98.3601 95.53 91.8901 87.28 91.8901C79.03 91.8901 72.34 98.3601 72.34 106.34C72.34 106.87 72.37 107.39 72.43 107.9C67.15 110.13 63.45 115.22 63.45 121.15C63.45 129.13 70.14 135.6 78.39 135.6C81.72 135.6 84.79 134.55 87.28 132.76C89.76 134.54 92.84 135.6 96.17 135.6C104.42 135.6 111.11 129.13 111.11 121.15C111.1 115.23 107.41 110.13 102.13 107.9Z" fill="#88E3C0"/>
<path d="M105.9 110.3C105.96 109.79 105.99 109.27 105.99 108.74C105.99 100.76 99.3 94.29 91.05 94.29C82.8 94.29 76.11 100.76 76.11 108.74C76.11 109.27 76.14 109.79 76.2 110.3C70.92 112.53 67.22 117.62 67.22 123.55C67.22 131.53 73.91 138 82.16 138C85.49 138 88.56 136.95 91.05 135.16C93.53 136.94 96.61 138 99.94 138C108.19 138 114.88 131.53 114.88 123.55C114.88 117.63 111.18 112.53 105.9 110.3Z" fill="#87E3BF"/>
<path d="M109.82 112.77C109.88 112.26 109.91 111.74 109.91 111.21C109.91 103.23 103.22 96.7598 94.97 96.7598C86.72 96.7598 80.03 103.23 80.03 111.21C80.03 111.74 80.06 112.26 80.12 112.77C74.84 115 71.14 120.09 71.14 126.02C71.14 134 77.83 140.47 86.08 140.47C89.41 140.47 92.48 139.42 94.97 137.63C97.45 139.41 100.53 140.47 103.86 140.47C112.11 140.47 118.8 134 118.8 126.02C118.79 120.09 115.1 115 109.82 112.77Z" fill="#86E3BF"/>
<path d="M113.87 115.29C113.93 114.78 113.96 114.26 113.96 113.73C113.96 105.75 107.27 99.2798 99.0199 99.2798C90.7699 99.2798 84.0799 105.75 84.0799 113.73C84.0799 114.26 84.1099 114.78 84.1699 115.29C78.8899 117.52 75.1899 122.61 75.1899 128.54C75.1899 136.52 81.8799 142.99 90.1299 142.99C93.4599 142.99 96.5299 141.94 99.0199 140.15C101.5 141.93 104.58 142.99 107.91 142.99C116.16 142.99 122.85 136.52 122.85 128.54C122.85 122.61 119.16 117.52 113.87 115.29Z" fill="#85E2BE"/>
<path d="M118.07 117.88C118.13 117.37 118.16 116.85 118.16 116.32C118.16 108.34 111.47 101.87 103.22 101.87C94.97 101.87 88.28 108.34 88.28 116.32C88.28 116.85 88.31 117.37 88.37 117.88C83.09 120.11 79.39 125.2 79.39 131.13C79.39 139.11 86.08 145.58 94.33 145.58C97.66 145.58 100.73 144.53 103.22 142.74C105.7 144.52 108.78 145.58 112.11 145.58C120.36 145.58 127.05 139.11 127.05 131.13C127.05 125.2 123.35 120.11 118.07 117.88Z" fill="#84E2BE"/>
<path d="M122.42 120.53C122.48 120.02 122.51 119.5 122.51 118.97C122.51 110.99 115.82 104.52 107.57 104.52C99.32 104.52 92.63 110.99 92.63 118.97C92.63 119.5 92.66 120.02 92.72 120.53C87.44 122.76 83.74 127.85 83.74 133.78C83.74 141.76 90.43 148.23 98.68 148.23C102.01 148.23 105.08 147.18 107.57 145.39C110.05 147.17 113.13 148.23 116.46 148.23C124.71 148.23 131.4 141.76 131.4 133.78C131.39 127.85 127.7 122.76 122.42 120.53Z" fill="#83E2BD"/>
<path d="M126.91 123.24C126.97 122.73 127 122.21 127 121.68C127 113.7 120.31 107.23 112.06 107.23C103.81 107.23 97.12 113.7 97.12 121.68C97.12 122.21 97.15 122.73 97.21 123.24C91.93 125.47 88.23 130.56 88.23 136.49C88.23 144.47 94.92 150.94 103.17 150.94C106.5 150.94 109.57 149.89 112.06 148.1C114.54 149.88 117.62 150.94 120.95 150.94C129.2 150.94 135.89 144.47 135.89 136.49C135.88 130.57 132.19 125.47 126.91 123.24Z" fill="#82E1BC"/>
<path d="M131.54 126.02C131.6 125.51 131.63 124.99 131.63 124.46C131.63 116.48 124.94 110.01 116.69 110.01C108.44 110.01 101.75 116.48 101.75 124.46C101.75 124.99 101.78 125.51 101.84 126.02C96.56 128.25 92.86 133.34 92.86 139.27C92.86 147.25 99.55 153.72 107.8 153.72C111.13 153.72 114.2 152.67 116.69 150.88C119.17 152.66 122.25 153.72 125.58 153.72C133.83 153.72 140.52 147.25 140.52 139.27C140.52 133.34 136.83 128.25 131.54 126.02Z" fill="#81E1BC"/>
<path d="M136.33 128.86C136.39 128.35 136.42 127.83 136.42 127.3C136.42 119.32 129.73 112.85 121.48 112.85C113.23 112.85 106.54 119.32 106.54 127.3C106.54 127.83 106.57 128.35 106.63 128.86C101.35 131.09 97.65 136.18 97.65 142.11C97.65 150.09 104.34 156.56 112.59 156.56C115.92 156.56 118.99 155.51 121.48 153.72C123.96 155.5 127.04 156.56 130.37 156.56C138.62 156.56 145.31 150.09 145.31 142.11C145.31 136.19 141.61 131.09 136.33 128.86Z" fill="#80E1BB"/>
<path d="M141.27 131.77C141.33 131.26 141.36 130.74 141.36 130.21C141.36 122.23 134.67 115.76 126.42 115.76C118.17 115.76 111.48 122.23 111.48 130.21C111.48 130.74 111.51 131.26 111.57 131.77C106.29 134 102.59 139.09 102.59 145.02C102.59 153 109.28 159.47 117.53 159.47C120.86 159.47 123.93 158.42 126.42 156.63C128.9 158.41 131.98 159.47 135.31 159.47C143.56 159.47 150.25 153 150.25 145.02C150.24 139.1 146.55 134 141.27 131.77Z" fill="#7FE0BB"/>
<path d="M146.36 134.75C146.42 134.24 146.45 133.72 146.45 133.19C146.45 125.21 139.76 118.74 131.51 118.74C123.26 118.74 116.57 125.21 116.57 133.19C116.57 133.72 116.6 134.24 116.66 134.75C111.38 136.98 107.68 142.07 107.68 148C107.68 155.98 114.37 162.45 122.62 162.45C125.95 162.45 129.02 161.4 131.51 159.61C133.99 161.39 137.07 162.45 140.4 162.45C148.65 162.45 155.34 155.98 155.34 148C155.34 142.07 151.64 136.98 146.36 134.75Z" fill="#7EE0BA"/>
<path d="M151.61 137.79C151.67 137.28 151.7 136.76 151.7 136.23C151.7 128.25 145.01 121.78 136.76 121.78C128.51 121.78 121.82 128.25 121.82 136.23C121.82 136.76 121.85 137.28 121.91 137.79C116.63 140.02 112.93 145.11 112.93 151.04C112.93 159.02 119.62 165.49 127.87 165.49C131.2 165.49 134.27 164.44 136.76 162.65C139.24 164.43 142.32 165.49 145.65 165.49C153.9 165.49 160.59 159.02 160.59 151.04C160.58 145.11 156.89 140.02 151.61 137.79Z" fill="#7DE0BA"/>
<path d="M157.01 140.9C157.07 140.39 157.1 139.87 157.1 139.34C157.1 131.36 150.41 124.89 142.16 124.89C133.91 124.89 127.22 131.36 127.22 139.34C127.22 139.87 127.25 140.39 127.31 140.9C122.03 143.13 118.33 148.22 118.33 154.15C118.33 162.13 125.02 168.6 133.27 168.6C136.6 168.6 139.67 167.55 142.16 165.76C144.64 167.54 147.72 168.6 151.05 168.6C159.3 168.6 165.99 162.13 165.99 154.15C165.98 148.22 162.29 143.13 157.01 140.9Z" fill="#7CDFB9"/>
<path d="M156.53 140.2C156.59 139.69 156.62 139.17 156.62 138.64C156.62 130.66 149.93 124.19 141.68 124.19C133.43 124.19 126.74 130.66 126.74 138.64C126.74 139.17 126.77 139.69 126.83 140.2C121.55 142.43 117.85 147.52 117.85 153.45C117.85 161.43 124.54 167.9 132.79 167.9C136.12 167.9 139.19 166.85 141.68 165.06C144.16 166.84 147.24 167.9 150.57 167.9C158.82 167.9 165.51 161.43 165.51 153.45C165.5 147.52 161.81 142.43 156.53 140.2Z" fill="#7BDFB8"/>
<path d="M151.21 136.45C151.27 135.94 151.3 135.42 151.3 134.89C151.3 126.91 144.61 120.44 136.36 120.44C128.11 120.44 121.42 126.91 121.42 134.89C121.42 135.42 121.45 135.94 121.51 136.45C116.23 138.68 112.53 143.77 112.53 149.7C112.53 157.68 119.22 164.15 127.47 164.15C130.8 164.15 133.87 163.1 136.36 161.31C138.84 163.09 141.92 164.15 145.25 164.15C153.5 164.15 160.19 157.68 160.19 149.7C160.18 143.78 156.49 138.68 151.21 136.45Z" fill="#7ADFB8"/>
<path d="M146.24 133.01C146.3 132.5 146.33 131.98 146.33 131.45C146.33 123.47 139.64 117 131.39 117C123.14 117 116.45 123.47 116.45 131.45C116.45 131.98 116.48 132.5 116.54 133.01C111.26 135.24 107.56 140.33 107.56 146.26C107.56 154.24 114.25 160.71 122.5 160.71C125.83 160.71 128.9 159.66 131.39 157.87C133.87 159.65 136.95 160.71 140.28 160.71C148.53 160.71 155.22 154.24 155.22 146.26C155.21 140.34 151.52 135.24 146.24 133.01Z" fill="#7ADEB7"/>
<path d="M141.61 129.87C141.67 129.36 141.7 128.84 141.7 128.31C141.7 120.33 135.01 113.86 126.76 113.86C118.51 113.86 111.82 120.33 111.82 128.31C111.82 128.84 111.85 129.36 111.91 129.87C106.63 132.1 102.93 137.19 102.93 143.12C102.93 151.1 109.62 157.57 117.87 157.57C121.2 157.57 124.27 156.52 126.76 154.73C129.24 156.51 132.32 157.57 135.65 157.57C143.9 157.57 150.59 151.1 150.59 143.12C150.59 137.19 146.89 132.1 141.61 129.87Z" fill="#79DEB7"/>
<path d="M137.32 127.01C137.38 126.5 137.41 125.98 137.41 125.45C137.41 117.47 130.72 111 122.47 111C114.22 111 107.53 117.47 107.53 125.45C107.53 125.98 107.56 126.5 107.62 127.01C102.34 129.24 98.64 134.33 98.64 140.26C98.64 148.24 105.33 154.71 113.58 154.71C116.91 154.71 119.98 153.66 122.47 151.87C124.95 153.65 128.03 154.71 131.36 154.71C139.61 154.71 146.3 148.24 146.3 140.26C146.29 134.34 142.6 129.24 137.32 127.01Z" fill="#78DEB6"/>
<path d="M133.34 124.43C133.4 123.92 133.43 123.4 133.43 122.87C133.43 114.89 126.74 108.42 118.49 108.42C110.24 108.42 103.55 114.89 103.55 122.87C103.55 123.4 103.58 123.92 103.64 124.43C98.36 126.66 94.66 131.75 94.66 137.68C94.66 145.66 101.35 152.13 109.6 152.13C112.93 152.13 116 151.08 118.49 149.29C120.97 151.07 124.05 152.13 127.38 152.13C135.63 152.13 142.32 145.66 142.32 137.68C142.32 131.75 138.62 126.66 133.34 124.43Z" fill="#77DDB5"/>
<path d="M129.67 122.11C129.73 121.6 129.76 121.08 129.76 120.55C129.76 112.57 123.07 106.1 114.82 106.1C106.57 106.1 99.88 112.57 99.88 120.55C99.88 121.08 99.91 121.6 99.97 122.11C94.69 124.34 90.99 129.43 90.99 135.36C90.99 143.34 97.68 149.81 105.93 149.81C109.26 149.81 112.33 148.76 114.82 146.97C117.3 148.75 120.38 149.81 123.71 149.81C131.96 149.81 138.65 143.34 138.65 135.36C138.64 129.43 134.95 124.34 129.67 122.11Z" fill="#76DDB5"/>
<path d="M126.29 120.04C126.35 119.53 126.38 119.01 126.38 118.48C126.38 110.5 119.69 104.03 111.44 104.03C103.19 104.03 96.5 110.5 96.5 118.48C96.5 119.01 96.53 119.53 96.59 120.04C91.31 122.27 87.61 127.36 87.61 133.29C87.61 141.27 94.3 147.74 102.55 147.74C105.88 147.74 108.95 146.69 111.44 144.9C113.92 146.68 117 147.74 120.33 147.74C128.58 147.74 135.27 141.27 135.27 133.29C135.27 127.37 131.58 122.27 126.29 120.04Z" fill="#75DDB4"/>
<path d="M123.2 118.21C123.26 117.7 123.29 117.18 123.29 116.65C123.29 108.67 116.6 102.2 108.35 102.2C100.1 102.2 93.41 108.67 93.41 116.65C93.41 117.18 93.44 117.7 93.5 118.21C88.22 120.44 84.52 125.53 84.52 131.46C84.52 139.44 91.21 145.91 99.46 145.91C102.79 145.91 105.86 144.86 108.35 143.07C110.83 144.85 113.91 145.91 117.24 145.91C125.49 145.91 132.18 139.44 132.18 131.46C132.18 125.54 128.48 120.44 123.2 118.21Z" fill="#74DCB4"/>
<path d="M120.38 116.62C120.44 116.11 120.47 115.59 120.47 115.06C120.47 107.08 113.78 100.61 105.53 100.61C97.28 100.61 90.59 107.08 90.59 115.06C90.59 115.59 90.62 116.11 90.68 116.62C85.4 118.85 81.7 123.94 81.7 129.87C81.7 137.85 88.39 144.32 96.64 144.32C99.97 144.32 103.04 143.27 105.53 141.48C108.01 143.26 111.09 144.32 114.42 144.32C122.67 144.32 129.36 137.85 129.36 129.87C129.35 123.94 125.66 118.84 120.38 116.62Z" fill="#73DCB3"/>
<path d="M117.82 115.23C117.88 114.72 117.91 114.2 117.91 113.67C117.91 105.69 111.22 99.2202 102.97 99.2202C94.72 99.2202 88.03 105.69 88.03 113.67C88.03 114.2 88.06 114.72 88.12 115.23C82.84 117.46 79.14 122.55 79.14 128.48C79.14 136.46 85.83 142.93 94.08 142.93C97.41 142.93 100.48 141.88 102.97 140.09C105.45 141.87 108.53 142.93 111.86 142.93C120.11 142.93 126.8 136.46 126.8 128.48C126.79 122.56 123.1 117.46 117.82 115.23Z" fill="#72DCB3"/>
<path d="M115.5 114.06C115.56 113.55 115.59 113.03 115.59 112.5C115.59 104.52 108.9 98.0498 100.65 98.0498C92.3999 98.0498 85.7099 104.52 85.7099 112.5C85.7099 113.03 85.7399 113.55 85.7999 114.06C80.5199 116.29 76.8199 121.38 76.8199 127.31C76.8199 135.29 83.5099 141.76 91.7599 141.76C95.0899 141.76 98.1599 140.71 100.65 138.92C103.13 140.7 106.21 141.76 109.54 141.76C117.79 141.76 124.48 135.29 124.48 127.31C124.48 121.38 120.78 116.29 115.5 114.06Z" fill="#71DBB2"/>
<path d="M113.42 113.08C113.48 112.57 113.51 112.05 113.51 111.52C113.51 103.54 106.82 97.0698 98.57 97.0698C90.32 97.0698 83.63 103.54 83.63 111.52C83.63 112.05 83.66 112.57 83.72 113.08C78.44 115.31 74.74 120.4 74.74 126.33C74.74 134.31 81.43 140.78 89.68 140.78C93.01 140.78 96.08 139.73 98.57 137.94C101.05 139.72 104.13 140.78 107.46 140.78C115.71 140.78 122.4 134.31 122.4 126.33C122.4 120.4 118.7 115.31 113.42 113.08Z" fill="#70DBB1"/>
<path d="M111.57 112.28C111.63 111.77 111.66 111.25 111.66 110.72C111.66 102.74 104.97 96.27 96.72 96.27C88.47 96.27 81.78 102.74 81.78 110.72C81.78 111.25 81.81 111.77 81.87 112.28C76.59 114.51 72.89 119.6 72.89 125.53C72.89 133.51 79.58 139.98 87.83 139.98C91.16 139.98 94.23 138.93 96.72 137.14C99.2 138.92 102.28 139.98 105.61 139.98C113.86 139.98 120.55 133.51 120.55 125.53C120.54 119.61 116.85 114.51 111.57 112.28Z" fill="#6FDBB1"/>
<path d="M109.92 111.66C109.98 111.15 110.01 110.63 110.01 110.1C110.01 102.12 103.32 95.6499 95.07 95.6499C86.82 95.6499 80.13 102.12 80.13 110.1C80.13 110.63 80.16 111.15 80.22 111.66C74.94 113.89 71.24 118.98 71.24 124.91C71.24 132.89 77.93 139.36 86.18 139.36C89.51 139.36 92.58 138.31 95.07 136.52C97.55 138.3 100.63 139.36 103.96 139.36C112.21 139.36 118.9 132.89 118.9 124.91C118.9 118.98 115.2 113.89 109.92 111.66Z" fill="#6EDAB0"/>
<path d="M108.48 111.2C108.54 110.69 108.57 110.17 108.57 109.64C108.57 101.66 101.88 95.1899 93.6301 95.1899C85.3801 95.1899 78.69 101.66 78.69 109.64C78.69 110.17 78.72 110.69 78.78 111.2C73.5 113.43 69.8 118.52 69.8 124.45C69.8 132.43 76.49 138.9 84.74 138.9C88.07 138.9 91.1401 137.85 93.6301 136.06C96.1101 137.84 99.1901 138.9 102.52 138.9C110.77 138.9 117.46 132.43 117.46 124.45C117.45 118.52 113.76 113.42 108.48 111.2Z" fill="#6DDAB0"/>
<path d="M107.22 110.88C107.28 110.37 107.31 109.85 107.31 109.32C107.31 101.34 100.62 94.8701 92.37 94.8701C84.12 94.8701 77.43 101.34 77.43 109.32C77.43 109.85 77.46 110.37 77.52 110.88C72.24 113.11 68.54 118.2 68.54 124.13C68.54 132.11 75.23 138.58 83.48 138.58C86.81 138.58 89.88 137.53 92.37 135.74C94.85 137.52 97.93 138.58 101.26 138.58C109.51 138.58 116.2 132.11 116.2 124.13C116.2 118.21 112.5 113.11 107.22 110.88Z" fill="#6CDAAF"/>
<path d="M106.14 110.71C106.2 110.2 106.23 109.68 106.23 109.15C106.23 101.17 99.54 94.7002 91.29 94.7002C83.04 94.7002 76.35 101.17 76.35 109.15C76.35 109.68 76.38 110.2 76.44 110.71C71.16 112.94 67.46 118.03 67.46 123.96C67.46 131.94 74.15 138.41 82.4 138.41C85.73 138.41 88.8 137.36 91.29 135.57C93.77 137.35 96.85 138.41 100.18 138.41C108.43 138.41 115.12 131.94 115.12 123.96C115.12 118.03 111.42 112.94 106.14 110.71Z" fill="#6BD9AF"/>
<path d="M105.23 110.66C105.29 110.15 105.32 109.63 105.32 109.1C105.32 101.12 98.63 94.6499 90.38 94.6499C82.13 94.6499 75.44 101.12 75.44 109.1C75.44 109.63 75.47 110.15 75.53 110.66C70.25 112.89 66.55 117.98 66.55 123.91C66.55 131.89 73.24 138.36 81.49 138.36C84.82 138.36 87.89 137.31 90.38 135.52C92.86 137.3 95.9401 138.36 99.2701 138.36C107.52 138.36 114.21 131.89 114.21 123.91C114.2 117.98 110.51 112.89 105.23 110.66Z" fill="#6AD9AE"/>
<path d="M104.46 110.73C104.52 110.22 104.55 109.7 104.55 109.17C104.55 101.19 97.86 94.7202 89.61 94.7202C81.36 94.7202 74.67 101.19 74.67 109.17C74.67 109.7 74.7 110.22 74.76 110.73C69.48 112.96 65.78 118.05 65.78 123.98C65.78 131.96 72.47 138.43 80.72 138.43C84.05 138.43 87.12 137.38 89.61 135.59C92.09 137.37 95.17 138.43 98.5 138.43C106.75 138.43 113.44 131.96 113.44 123.98C113.44 118.05 109.75 112.96 104.46 110.73Z" fill="#69D9AD"/>
<path d="M103.84 110.9C103.9 110.39 103.93 109.87 103.93 109.34C103.93 101.36 97.24 94.8901 88.99 94.8901C80.74 94.8901 74.05 101.36 74.05 109.34C74.05 109.87 74.08 110.39 74.14 110.9C68.86 113.13 65.16 118.22 65.16 124.15C65.16 132.13 71.85 138.6 80.1 138.6C83.43 138.6 86.5 137.55 88.99 135.76C91.47 137.54 94.55 138.6 97.88 138.6C106.13 138.6 112.82 132.13 112.82 124.15C112.82 118.22 109.12 113.13 103.84 110.9Z" fill="#68D9AD"/>
<path d="M103.35 111.16C103.41 110.65 103.44 110.13 103.44 109.6C103.44 101.62 96.75 95.1499 88.5 95.1499C80.25 95.1499 73.56 101.62 73.56 109.6C73.56 110.13 73.59 110.65 73.65 111.16C68.37 113.39 64.67 118.48 64.67 124.41C64.67 132.39 71.36 138.86 79.61 138.86C82.94 138.86 86.01 137.81 88.5 136.02C90.98 137.8 94.06 138.86 97.39 138.86C105.64 138.86 112.33 132.39 112.33 124.41C112.32 118.49 108.63 113.39 103.35 111.16Z" fill="#67D8AC"/>
<path d="M102.89 111.61C102.95 111.1 102.98 110.58 102.98 110.05C102.98 102.07 96.29 95.6001 88.04 95.6001C79.79 95.6001 73.1 102.07 73.1 110.05C73.1 110.58 73.13 111.1 73.19 111.61C67.91 113.84 64.21 118.93 64.21 124.86C64.21 132.84 70.9 139.31 79.15 139.31C82.48 139.31 85.55 138.26 88.04 136.47C90.52 138.25 93.6 139.31 96.93 139.31C105.18 139.31 111.87 132.84 111.87 124.86C111.87 118.94 108.18 113.84 102.89 111.61Z" fill="#66D8AC"/>
<path d="M102.56 112.44C102.62 111.93 102.65 111.41 102.65 110.88C102.65 102.9 95.96 96.4302 87.71 96.4302C79.46 96.4302 72.77 102.9 72.77 110.88C72.77 111.41 72.8 111.93 72.86 112.44C67.58 114.67 63.88 119.76 63.88 125.69C63.88 133.67 70.57 140.14 78.82 140.14C82.15 140.14 85.22 139.09 87.71 137.3C90.19 139.08 93.27 140.14 96.6 140.14C104.85 140.14 111.54 133.67 111.54 125.69C111.53 119.76 107.84 114.66 102.56 112.44Z" fill="#65D8AB"/>
<path d="M102.55 113.46C102.61 112.95 102.64 112.43 102.64 111.9C102.64 103.92 95.95 97.4502 87.7 97.4502C79.45 97.4502 72.76 103.92 72.76 111.9C72.76 112.43 72.79 112.95 72.85 113.46C67.57 115.69 63.87 120.78 63.87 126.71C63.87 134.69 70.56 141.16 78.81 141.16C82.14 141.16 85.21 140.11 87.7 138.32C90.18 140.1 93.26 141.16 96.59 141.16C104.84 141.16 111.53 134.69 111.53 126.71C111.53 120.79 107.84 115.69 102.55 113.46Z" fill="#64D7AB"/>
<path d="M102.86 114.69C102.92 114.18 102.95 113.66 102.95 113.13C102.95 105.15 96.2601 98.6802 88.0101 98.6802C79.7601 98.6802 73.0701 105.15 73.0701 113.13C73.0701 113.66 73.1001 114.18 73.1601 114.69C67.8801 116.92 64.1801 122.01 64.1801 127.94C64.1801 135.92 70.8701 142.39 79.1201 142.39C82.4501 142.39 85.5201 141.34 88.0101 139.55C90.4901 141.33 93.57 142.39 96.9 142.39C105.15 142.39 111.84 135.92 111.84 127.94C111.84 122.01 108.14 116.92 102.86 114.69Z" fill="#63D7AA"/>
<path d="M103.45 116.11C103.51 115.6 103.54 115.08 103.54 114.55C103.54 106.57 96.85 100.1 88.6 100.1C80.35 100.1 73.66 106.57 73.66 114.55C73.66 115.08 73.69 115.6 73.75 116.11C68.47 118.34 64.77 123.43 64.77 129.36C64.77 137.34 71.46 143.81 79.71 143.81C83.04 143.81 86.11 142.76 88.6 140.97C91.08 142.75 94.16 143.81 97.49 143.81C105.74 143.81 112.43 137.34 112.43 129.36C112.42 123.43 108.73 118.34 103.45 116.11Z" fill="#62D7A9"/>
<path d="M104.28 117.71C104.34 117.2 104.37 116.68 104.37 116.15C104.37 108.17 97.68 101.7 89.43 101.7C81.18 101.7 74.49 108.17 74.49 116.15C74.49 116.68 74.52 117.2 74.58 117.71C69.3 119.94 65.6 125.03 65.6 130.96C65.6 138.94 72.29 145.41 80.54 145.41C83.87 145.41 86.94 144.36 89.43 142.57C91.91 144.35 94.99 145.41 98.32 145.41C106.57 145.41 113.26 138.94 113.26 130.96C113.26 125.03 109.57 119.94 104.28 117.71Z" fill="#61D6A9"/>
<path d="M105.34 119.5C105.4 118.99 105.43 118.47 105.43 117.94C105.43 109.96 98.74 103.49 90.49 103.49C82.24 103.49 75.55 109.96 75.55 117.94C75.55 118.47 75.58 118.99 75.64 119.5C70.36 121.73 66.66 126.82 66.66 132.75C66.66 140.73 73.35 147.2 81.6 147.2C84.93 147.2 88 146.15 90.49 144.36C92.97 146.14 96.05 147.2 99.38 147.2C107.63 147.2 114.32 140.73 114.32 132.75C114.32 126.82 110.62 121.73 105.34 119.5Z" fill="#60D6A8"/>
<path d="M106.59 121.45C106.65 120.94 106.68 120.42 106.68 119.89C106.68 111.91 99.99 105.44 91.74 105.44C83.49 105.44 76.8 111.91 76.8 119.89C76.8 120.42 76.83 120.94 76.89 121.45C71.61 123.68 67.91 128.77 67.91 134.7C67.91 142.68 74.6 149.15 82.85 149.15C86.18 149.15 89.25 148.1 91.74 146.31C94.22 148.09 97.3 149.15 100.63 149.15C108.88 149.15 115.57 142.68 115.57 134.7C115.56 128.78 111.87 123.68 106.59 121.45Z" fill="#5FD6A8"/>
<path d="M107.99 123.58C108.05 123.07 108.08 122.55 108.08 122.02C108.08 114.04 101.39 107.57 93.1401 107.57C84.8901 107.57 78.2001 114.04 78.2001 122.02C78.2001 122.55 78.2301 123.07 78.2901 123.58C73.0101 125.81 69.3101 130.9 69.3101 136.83C69.3101 144.81 76.0001 151.28 84.2501 151.28C87.5801 151.28 90.6501 150.23 93.1401 148.44C95.6201 150.22 98.7001 151.28 102.03 151.28C110.28 151.28 116.97 144.81 116.97 136.83C116.97 130.9 113.28 125.81 107.99 123.58Z" fill="#5ED5A7"/>
<path d="M109.53 125.86C109.59 125.35 109.62 124.83 109.62 124.3C109.62 116.32 102.93 109.85 94.68 109.85C86.43 109.85 79.74 116.32 79.74 124.3C79.74 124.83 79.77 125.35 79.83 125.86C74.55 128.09 70.85 133.18 70.85 139.11C70.85 147.09 77.54 153.56 85.79 153.56C89.12 153.56 92.19 152.51 94.68 150.72C97.16 152.5 100.24 153.56 103.57 153.56C111.82 153.56 118.51 147.09 118.51 139.11C118.51 133.19 114.82 128.09 109.53 125.86Z" fill="#5ED5A7"/>
<path d="M111.17 128.3C111.23 127.79 111.26 127.27 111.26 126.74C111.26 118.76 104.57 112.29 96.32 112.29C88.07 112.29 81.38 118.76 81.38 126.74C81.38 127.27 81.41 127.79 81.47 128.3C76.19 130.53 72.49 135.62 72.49 141.55C72.49 149.53 79.18 156 87.43 156C90.76 156 93.83 154.95 96.32 153.16C98.8 154.94 101.88 156 105.21 156C113.46 156 120.15 149.53 120.15 141.55C120.15 135.63 116.46 130.53 111.17 128.3Z" fill="#5DD5A6"/>
<path d="M112.89 130.89C112.95 130.38 112.98 129.86 112.98 129.33C112.98 121.35 106.29 114.88 98.04 114.88C89.79 114.88 83.1 121.35 83.1 129.33C83.1 129.86 83.13 130.38 83.19 130.89C77.91 133.12 74.21 138.21 74.21 144.14C74.21 152.12 80.9 158.59 89.15 158.59C92.48 158.59 95.55 157.54 98.04 155.75C100.52 157.53 103.6 158.59 106.93 158.59C115.18 158.59 121.87 152.12 121.87 144.14C121.86 138.21 118.17 133.12 112.89 130.89Z" fill="#5CD4A5"/>
<path d="M114.65 133.62C114.71 133.11 114.74 132.59 114.74 132.06C114.74 124.08 108.05 117.61 99.8 117.61C91.55 117.61 84.86 124.08 84.86 132.06C84.86 132.59 84.89 133.11 84.95 133.62C79.67 135.85 75.97 140.94 75.97 146.87C75.97 154.85 82.66 161.32 90.91 161.32C94.24 161.32 97.31 160.27 99.8 158.48C102.28 160.26 105.36 161.32 108.69 161.32C116.94 161.32 123.63 154.85 123.63 146.87C123.62 140.94 119.93 135.85 114.65 133.62Z" fill="#5BD4A5"/>
<path d="M116.42 136.48C116.48 135.97 116.51 135.45 116.51 134.92C116.51 126.94 109.82 120.47 101.57 120.47C93.32 120.47 86.63 126.94 86.63 134.92C86.63 135.45 86.66 135.97 86.72 136.48C81.44 138.71 77.74 143.8 77.74 149.73C77.74 157.71 84.43 164.18 92.68 164.18C96.01 164.18 99.08 163.13 101.57 161.34C104.05 163.12 107.13 164.18 110.46 164.18C118.71 164.18 125.4 157.71 125.4 149.73C125.39 143.8 121.7 138.71 116.42 136.48Z" fill="#5AD4A4"/>
<path d="M118.17 139.47C118.23 138.96 118.26 138.44 118.26 137.91C118.26 129.93 111.57 123.46 103.32 123.46C95.07 123.46 88.38 129.93 88.38 137.91C88.38 138.44 88.41 138.96 88.47 139.47C83.19 141.7 79.49 146.79 79.49 152.72C79.49 160.7 86.18 167.17 94.43 167.17C97.76 167.17 100.83 166.12 103.32 164.33C105.8 166.11 108.88 167.17 112.21 167.17C120.46 167.17 127.15 160.7 127.15 152.72C127.15 146.8 123.45 141.7 118.17 139.47Z" fill="#59D3A4"/>
<path d="M119.88 142.59C119.94 142.08 119.97 141.56 119.97 141.03C119.97 133.05 113.28 126.58 105.03 126.58C96.78 126.58 90.09 133.05 90.09 141.03C90.09 141.56 90.12 142.08 90.18 142.59C84.9 144.82 81.2 149.91 81.2 155.84C81.2 163.82 87.89 170.29 96.14 170.29C99.47 170.29 102.54 169.24 105.03 167.45C107.51 169.23 110.59 170.29 113.92 170.29C122.17 170.29 128.86 163.82 128.86 155.84C128.86 149.91 125.16 144.82 119.88 142.59Z" fill="#58D3A3"/>
<path d="M121.52 145.82C121.58 145.31 121.61 144.79 121.61 144.26C121.61 136.28 114.92 129.81 106.67 129.81C98.42 129.81 91.73 136.28 91.73 144.26C91.73 144.79 91.76 145.31 91.82 145.82C86.54 148.05 82.84 153.14 82.84 159.07C82.84 167.05 89.53 173.52 97.78 173.52C101.11 173.52 104.18 172.47 106.67 170.68C109.15 172.46 112.23 173.52 115.56 173.52C123.81 173.52 130.5 167.05 130.5 159.07C130.49 153.14 126.8 148.05 121.52 145.82Z" fill="#57D3A3"/>
<path d="M123.05 149.15C123.11 148.64 123.14 148.12 123.14 147.59C123.14 139.61 116.45 133.14 108.2 133.14C99.95 133.14 93.26 139.61 93.26 147.59C93.26 148.12 93.29 148.64 93.35 149.15C88.07 151.38 84.37 156.47 84.37 162.4C84.37 170.38 91.06 176.85 99.31 176.85C102.64 176.85 105.71 175.8 108.2 174.01C110.68 175.79 113.76 176.85 117.09 176.85C125.34 176.85 132.03 170.38 132.03 162.4C132.02 156.48 128.33 151.38 123.05 149.15Z" fill="#56D2A2"/>
<path d="M124.45 152.6C124.51 152.09 124.54 151.57 124.54 151.04C124.54 143.06 117.85 136.59 109.6 136.59C101.35 136.59 94.66 143.06 94.66 151.04C94.66 151.57 94.69 152.09 94.75 152.6C89.47 154.83 85.77 159.92 85.77 165.85C85.77 173.83 92.46 180.3 100.71 180.3C104.04 180.3 107.11 179.25 109.6 177.46C112.08 179.24 115.16 180.3 118.49 180.3C126.74 180.3 133.43 173.83 133.43 165.85C133.42 159.92 129.73 154.82 124.45 152.6Z" fill="#55D2A1"/>
<path d="M125.68 156.13C125.74 155.62 125.77 155.1 125.77 154.57C125.77 146.59 119.08 140.12 110.83 140.12C102.58 140.12 95.89 146.59 95.89 154.57C95.89 155.1 95.92 155.62 95.98 156.13C90.7 158.36 87 163.45 87 169.38C87 177.36 93.69 183.83 101.94 183.83C105.27 183.83 108.34 182.78 110.83 180.99C113.31 182.77 116.39 183.83 119.72 183.83C127.97 183.83 134.66 177.36 134.66 169.38C134.66 163.46 130.96 158.36 125.68 156.13Z" fill="#54D2A1"/>
<path d="M126.72 159.76C126.78 159.25 126.81 158.73 126.81 158.2C126.81 150.22 120.12 143.75 111.87 143.75C103.62 143.75 96.93 150.22 96.93 158.2C96.93 158.73 96.96 159.25 97.02 159.76C91.74 161.99 88.04 167.08 88.04 173.01C88.04 180.99 94.73 187.46 102.98 187.46C106.31 187.46 109.38 186.41 111.87 184.62C114.35 186.4 117.43 187.46 120.76 187.46C129.01 187.46 135.7 180.99 135.7 173.01C135.7 167.08 132 161.99 126.72 159.76Z" fill="#53D1A0"/>
<path d="M127.54 163.47C127.6 162.96 127.63 162.44 127.63 161.91C127.63 153.93 120.94 147.46 112.69 147.46C104.44 147.46 97.75 153.93 97.75 161.91C97.75 162.44 97.78 162.96 97.84 163.47C92.56 165.7 88.86 170.79 88.86 176.72C88.86 184.7 95.55 191.17 103.8 191.17C107.13 191.17 110.2 190.12 112.69 188.33C115.17 190.11 118.25 191.17 121.58 191.17C129.83 191.17 136.52 184.7 136.52 176.72C136.52 170.79 132.82 165.7 127.54 163.47Z" fill="#52D1A0"/>
<path d="M128.11 167.26C128.17 166.75 128.2 166.23 128.2 165.7C128.2 157.72 121.51 151.25 113.26 151.25C105.01 151.25 98.3201 157.72 98.3201 165.7C98.3201 166.23 98.3501 166.75 98.4101 167.26C93.1301 169.49 89.4301 174.58 89.4301 180.51C89.4301 188.49 96.12 194.96 104.37 194.96C107.7 194.96 110.77 193.91 113.26 192.12C115.74 193.9 118.82 194.96 122.15 194.96C130.4 194.96 137.09 188.49 137.09 180.51C137.09 174.58 133.39 169.49 128.11 167.26Z" fill="#51D19F"/>
<path d="M128.4 171.12C128.46 170.61 128.49 170.09 128.49 169.56C128.49 161.58 121.8 155.11 113.55 155.11C105.3 155.11 98.61 161.58 98.61 169.56C98.61 170.09 98.64 170.61 98.7 171.12C93.42 173.35 89.72 178.44 89.72 184.37C89.72 192.35 96.41 198.82 104.66 198.82C107.99 198.82 111.06 197.77 113.55 195.98C116.03 197.76 119.11 198.82 122.44 198.82C130.69 198.82 137.38 192.35 137.38 184.37C137.37 178.44 133.68 173.35 128.4 171.12Z" fill="#50D09F"/>
<path d="M128.38 175.04C128.44 174.53 128.47 174.01 128.47 173.48C128.47 165.5 121.78 159.03 113.53 159.03C105.28 159.03 98.59 165.5 98.59 173.48C98.59 174.01 98.6199 174.53 98.6799 175.04C93.3999 177.27 89.7 182.36 89.7 188.29C89.7 196.27 96.39 202.74 104.64 202.74C107.97 202.74 111.04 201.69 113.53 199.9C116.01 201.68 119.09 202.74 122.42 202.74C130.67 202.74 137.36 196.27 137.36 188.29C137.35 182.37 133.66 177.27 128.38 175.04Z" fill="#4FD09E"/>
</g>
<path d="M57.8508 81.688C54.8988 81.688 53.3868 81.184 53.3868 80.032C53.3868 78.88 54.8988 78.352 57.8508 78.352C60.8028 78.352 62.3148 78.88 62.3148 80.032C62.3148 81.184 60.8028 81.688 57.8508 81.688ZM57.8508 75.952C53.0748 75.952 50.1948 77.416 50.1948 80.032C50.1948 82.624 53.0748 84.088 57.8508 84.088C62.6268 84.088 65.5308 82.624 65.5308 80.032C65.5308 77.416 62.6268 75.952 57.8508 75.952ZM59.5068 72.352V70.528H65.6508V68.008H53.5068V65.416H65.5308V62.896H50.3628V70.528H56.3388V72.352H47.9388V74.872H67.9308V72.352H59.5068ZM75.9209 76.408C74.2649 76.408 73.1609 74.656 73.1609 71.368C73.1609 68.104 74.2649 66.352 75.9209 66.352C77.5529 66.352 78.6809 68.104 78.6809 71.368C78.6809 74.656 77.5529 76.408 75.9209 76.408ZM75.9209 63.496C72.5609 63.496 70.1129 66.52 70.1129 71.368C70.1129 76.24 72.5609 79.288 75.9209 79.288C79.2569 79.288 81.7289 76.24 81.7289 71.368C81.7289 66.52 79.2569 63.496 75.9209 63.496ZM90.5129 70.288H87.2969V61.96H84.1289V84.064H87.2969V72.904H90.5129V70.288ZM96.4871 72.376H103.663V63.832H93.2231V66.352H100.423V69.88H93.2471V78.976H95.2391C99.2471 78.976 102.487 78.832 106.087 78.208L105.751 75.64C102.631 76.168 99.8471 76.336 96.4871 76.36V72.376ZM107.287 61.936V84.112H110.455V61.936H107.287Z" fill="#2A2A2A"/>
<path d="M25.4382 94.31H28.7882V93.63H24.6182V99.52H25.3282C27.0182 99.52 28.1982 99.46 29.5682 99.2L29.4782 98.52C28.1782 98.75 27.0282 98.82 25.4382 98.82V94.31ZM32.6182 96.31H31.1382V92.77H30.3182V101.76H31.1382V96.99H32.6182V96.31ZM34.0074 95.41C34.0074 94.57 34.6474 93.99 35.5474 93.99C36.4374 93.99 37.0874 94.57 37.0874 95.41C37.0874 96.25 36.4374 96.84 35.5474 96.84C34.6474 96.84 34.0074 96.25 34.0074 95.41ZM37.8874 95.41C37.8874 94.17 36.8974 93.31 35.5474 93.31C34.1874 93.31 33.2074 94.17 33.2074 95.41C33.2074 96.66 34.1874 97.53 35.5474 97.53C36.8974 97.53 37.8874 96.66 37.8874 95.41ZM37.1474 101.08C35.8174 101.08 35.0074 100.69 35.0074 100.05C35.0074 99.4 35.8174 99.02 37.1474 99.02C38.4674 99.02 39.2774 99.4 39.2774 100.05C39.2774 100.69 38.4674 101.08 37.1474 101.08ZM37.1474 98.37C35.3274 98.37 34.1874 98.98 34.1874 100.05C34.1874 101.11 35.3274 101.73 37.1474 101.73C38.9574 101.73 40.0974 101.11 40.0974 100.05C40.0974 98.98 38.9574 98.37 37.1474 98.37ZM41.3074 94.78V94.11H39.9974V92.78H39.1774V98.09H39.9974V96.7H41.3074V96.02H39.9974V94.78H41.3074ZM47.1566 93.87H44.9166V92.78H44.0966V93.87H41.8666V94.53H47.1566V93.87ZM43.1466 96.69C43.1466 96.07 43.6866 95.67 44.5066 95.67C45.3166 95.67 45.8766 96.07 45.8766 96.69C45.8766 97.32 45.3166 97.72 44.5066 97.72C43.6866 97.72 43.1466 97.32 43.1466 96.69ZM46.6566 96.69C46.6566 95.69 45.7766 95.03 44.5066 95.03C43.2366 95.03 42.3666 95.69 42.3666 96.69C42.3666 97.7 43.2366 98.36 44.5066 98.36C45.7766 98.36 46.6566 97.7 46.6566 96.69ZM44.0366 98.97H43.2166V101.54H49.1966V100.87H44.0366V98.97ZM48.7966 95.73V92.78H47.9766V99.5H48.7966V96.42H50.1266V95.73H48.7966ZM55.8435 93.55H55.0335V95.16C55.0335 96.79 54.0135 98.51 52.7235 99.17L53.2135 99.83C54.2235 99.29 55.0535 98.17 55.4435 96.86C55.8535 98.09 56.6635 99.14 57.6135 99.65L58.1235 99C56.8635 98.37 55.8435 96.74 55.8435 95.16V93.55ZM61.2135 96.41H59.7335V92.78H58.9135V101.74H59.7335V97.09H61.2135V96.41ZM66.9127 96.69C65.5527 96.93 64.4027 96.98 62.8327 96.98V95.71H66.0427V93.26H62.0027V93.93H65.2327V95.08H62.0227V97.65H62.7327C64.3827 97.65 65.5727 97.6 66.9927 97.36L66.9127 96.69ZM63.7427 99.21H67.7927V100.96H63.7427V99.21ZM62.9427 101.62H68.5927V98.56H62.9427V101.62ZM69.9227 95.07H68.5927V92.78H67.7727V98.12H68.5927V95.75H69.9227V95.07ZM77.5819 95.13H72.3319V93.73H77.4919V93.07H71.5119V95.79H77.5819V95.13ZM72.2319 100.07H77.5019V97.96H71.4019V98.6H76.6919V99.46H71.4319V101.63H77.7719V100.99H72.2319V100.07ZM70.4319 96.51V97.18H78.5519V96.51H70.4319ZM83.2812 93.54C84.7512 93.54 85.5912 93.88 85.5912 94.48C85.5912 95.08 84.7512 95.42 83.2812 95.42C81.8112 95.42 80.9712 95.08 80.9712 94.48C80.9712 93.88 81.8112 93.54 83.2812 93.54ZM83.2812 96.03C85.2512 96.03 86.4312 95.49 86.4312 94.48C86.4312 93.47 85.2512 92.92 83.2812 92.92C81.3112 92.92 80.1312 93.47 80.1312 94.48C80.1312 95.49 81.3112 96.03 83.2812 96.03ZM81.0312 100.09H86.3012V98.07H80.2012V98.69H85.4912V99.49H80.2312V101.64H86.5712V101H81.0312V100.09ZM79.2212 96.64V97.3H87.3412V96.64H79.2212ZM91.498 94.3H94.758V93.62H90.678V99.54H91.368C93.068 99.54 94.148 99.48 95.448 99.24L95.348 98.56C94.138 98.79 93.088 98.85 91.498 98.85V94.3ZM96.798 92.77V96.02H94.228V96.7H96.798V101.76H97.618V92.77H96.798ZM103.077 93.63C104.497 93.63 105.387 94.03 105.387 94.7C105.387 95.39 104.497 95.78 103.077 95.78C101.657 95.78 100.767 95.39 100.767 94.7C100.767 94.03 101.657 93.63 103.077 93.63ZM103.077 96.42C105.017 96.42 106.227 95.79 106.227 94.7C106.227 93.62 105.017 92.98 103.077 92.98C101.147 92.98 99.9273 93.62 99.9273 94.7C99.9273 95.79 101.147 96.42 103.077 96.42ZM107.137 97.8V97.13H99.0273V97.8H102.667V98.86H99.9273V99.52H105.317V101.75H106.137V98.86H103.487V97.8H107.137ZM117.384 92.78H116.564V99.4H117.384V92.78ZM115.544 97.51C114.214 97.1 113.274 96.04 113.274 94.86V94.63H115.304V93.97H113.284V92.82H112.464V93.97H110.424V94.63H112.464V94.86C112.464 96.11 111.554 97.24 110.214 97.68L110.614 98.32C111.674 97.96 112.494 97.18 112.884 96.19C113.294 97.11 114.114 97.82 115.154 98.15L115.544 97.51ZM112.434 100.87V98.79H111.614V101.54H117.654V100.87H112.434ZM121.453 99.06C120.643 99.06 120.053 98.48 120.053 97.68C120.053 96.87 120.643 96.29 121.453 96.29C122.273 96.29 122.863 96.87 122.863 97.68C122.863 98.48 122.273 99.06 121.453 99.06ZM121.453 95.61C120.193 95.61 119.283 96.47 119.283 97.68C119.283 98.9 120.193 99.74 121.453 99.74C122.733 99.74 123.643 98.9 123.643 97.68C123.643 96.47 122.733 95.61 121.453 95.61ZM121.853 92.88H121.033V94.21H118.773V94.87H124.063V94.21H121.853V92.88ZM127.203 96.46H125.733V92.78H124.913V101.74H125.733V97.15H127.203V96.46ZM132.593 96.44H131.043C131.343 95.64 131.473 94.79 131.473 93.91H128.013V94.58H130.663C130.513 96.46 129.553 98.07 127.633 99.22L128.113 99.81C129.353 99.07 130.213 98.14 130.753 97.1H132.593V101.29H133.373V93.01H132.593V96.44ZM134.463 92.77V101.74H135.243V92.77H134.463Z" fill="#606060"/>
</g>
<rect x="0.5" y="0.5" width="159" height="159" rx="15.5" stroke="#E0E0E0"/>
<defs>
<clipPath id="clip0_1267_14279">
<rect width="160" height="160" rx="16" fill="white"/>
</clipPath>
<clipPath id="clip1_1267_14279">
<rect width="201.98" height="263.32" fill="white" transform="translate(-36 -13)"/>
</clipPath>
</defs>
</svg>
