<svg width="21" height="21" viewBox="0 0 21 21" fill="none" xmlns="http://www.w3.org/2000/svg">
<rect width="21" height="21" rx="10.5" fill="#606060"/>
<path d="M11.4787 6.01593C12.4913 6.24529 13.3312 6.77283 13.9987 7.59854C14.6662 8.42425 15 9.39141 15 10.5C15 11.1957 14.863 11.838 14.5891 12.4267C14.3155 13.0154 13.9425 13.52 13.47 13.9405H14.1C14.2275 13.9405 14.3343 13.9845 14.4204 14.0726C14.5068 14.1603 14.55 14.2692 14.55 14.3992C14.55 14.5292 14.5068 14.638 14.4204 14.7258C14.3343 14.8139 14.2275 14.8579 14.1 14.8579H12.3C12.1725 14.8579 12.0657 14.8139 11.9796 14.7258C11.8932 14.638 11.85 14.5292 11.85 14.3992V12.5643C11.85 12.4343 11.8932 12.3253 11.9796 12.2372C12.0657 12.1494 12.1725 12.1056 12.3 12.1056C12.4275 12.1056 12.5343 12.1494 12.6204 12.2372C12.7068 12.3253 12.75 12.4343 12.75 12.5643V13.3556C13.1625 13.0115 13.4907 12.5949 13.7346 12.1056C13.9782 11.6162 14.1 11.0811 14.1 10.5C14.1 9.62077 13.8357 8.85423 13.3071 8.20039C12.7782 7.54686 12.1125 7.12452 11.31 6.93339C11.205 6.91045 11.1188 6.85693 11.0512 6.77283C10.9837 6.68873 10.95 6.59316 10.95 6.48612C10.95 6.33322 11.0025 6.20707 11.1075 6.10767C11.2125 6.00828 11.3362 5.9777 11.4787 6.01593ZM9.52125 14.9841C8.50875 14.7547 7.66875 14.2272 7.00125 13.4015C6.33375 12.5757 6 11.6086 6 10.5C6 9.80426 6.13695 9.16204 6.41085 8.57334C6.68445 7.98464 7.0575 7.48004 7.53 7.05954H6.9C6.7725 7.05954 6.6657 7.0155 6.5796 6.92742C6.4932 6.83965 6.45 6.73078 6.45 6.60081C6.45 6.47083 6.4932 6.36181 6.5796 6.27373C6.6657 6.18596 6.7725 6.14208 6.9 6.14208H8.7C8.8275 6.14208 8.93445 6.18596 9.02085 6.27373C9.10695 6.36181 9.15 6.47083 9.15 6.60081V8.43572C9.15 8.56569 9.10695 8.67472 9.02085 8.7628C8.93445 8.85057 8.8275 8.89445 8.7 8.89445C8.5725 8.89445 8.46555 8.85057 8.37915 8.7628C8.29305 8.67472 8.25 8.56569 8.25 8.43572V7.64441C7.8375 7.98082 7.5093 8.39566 7.2654 8.88895C7.0218 9.38193 6.9 9.91894 6.9 10.5C6.9 11.3792 7.16445 12.1456 7.69335 12.7991C8.22195 13.453 8.8875 13.8755 9.69 14.0666C9.795 14.0896 9.88125 14.1431 9.94875 14.2272C10.0162 14.3113 10.05 14.4068 10.05 14.5139C10.05 14.6668 9.9975 14.7929 9.8925 14.8923C9.7875 14.9917 9.66375 15.0223 9.52125 14.9841Z" fill="white"/>
</svg>
