<svg width="17" height="17" viewBox="0 0 17 17" fill="none" xmlns="http://www.w3.org/2000/svg">
<path fill-rule="evenodd" clip-rule="evenodd" d="M8.49984 1.16675C4.44984 1.16675 1.1665 4.45008 1.1665 8.50008C1.1665 12.5501 4.44984 15.8334 8.49984 15.8334C12.5498 15.8334 15.8332 12.5501 15.8332 8.50008C15.8332 4.45008 12.5498 1.16675 8.49984 1.16675ZM11.6785 7.26008C11.737 7.19318 11.7816 7.11524 11.8096 7.03086C11.8375 6.94648 11.8483 6.85736 11.8414 6.76874C11.8344 6.68012 11.8097 6.59379 11.7689 6.51483C11.728 6.43588 11.6718 6.36588 11.6035 6.30898C11.5352 6.25207 11.4563 6.20939 11.3712 6.18346C11.2862 6.15752 11.1969 6.14886 11.1084 6.15797C11.02 6.16708 10.9343 6.19378 10.8563 6.2365C10.7784 6.27923 10.7098 6.33711 10.6545 6.40675L7.78784 9.84608L6.3045 8.36208C6.17877 8.24064 6.01037 8.17345 5.83557 8.17496C5.66077 8.17648 5.49356 8.2466 5.36996 8.3702C5.24635 8.49381 5.17624 8.66102 5.17472 8.83581C5.1732 9.01061 5.2404 9.17901 5.36184 9.30475L7.36184 11.3047C7.42734 11.3702 7.50577 11.4213 7.59211 11.4548C7.67846 11.4883 7.77084 11.5034 7.86335 11.4992C7.95586 11.495 8.04649 11.4715 8.12944 11.4304C8.2124 11.3892 8.28587 11.3312 8.34517 11.2601L11.6785 7.26008Z" fill="#19BE7E"/>
</svg>
