<svg width="17" height="17" viewBox="0 0 17 17" fill="none" xmlns="http://www.w3.org/2000/svg">
<path d="M13.236 4.46993C13.3042 4.4003 13.3857 4.34498 13.4756 4.30722C13.5655 4.26945 13.662 4.25 13.7595 4.25C13.857 4.25 13.9535 4.26945 14.0434 4.30722C14.1333 4.34498 14.2147 4.4003 14.283 4.46993C14.569 4.75893 14.573 5.22593 14.293 5.51993L8.37998 12.5099C8.31285 12.5837 8.23138 12.6429 8.14056 12.6841C8.04974 12.7252 7.95148 12.7474 7.85179 12.7493C7.7521 12.7511 7.65307 12.7327 7.56077 12.6949C7.46847 12.6572 7.38483 12.6011 7.31498 12.5299L3.71698 8.88393C3.57822 8.74242 3.50049 8.55213 3.50049 8.35393C3.50049 8.15574 3.57822 7.96545 3.71698 7.82393C3.78523 7.7543 3.86668 7.69898 3.95657 7.66122C4.04646 7.62345 4.14298 7.604 4.24048 7.604C4.33798 7.604 4.4345 7.62345 4.52439 7.66122C4.61428 7.69898 4.69573 7.7543 4.76398 7.82393L7.81598 10.9169L13.216 4.49193C13.2222 4.48421 13.2289 4.47686 13.236 4.46993Z" fill="white"/>
</svg>
