<svg width="18" height="18" viewBox="0 0 18 18" fill="none" xmlns="http://www.w3.org/2000/svg">
<path d="M14.6233 5.99159L9.00054 11.4726L3.37779 5.99159C3.27733 5.89346 3.14247 5.83853 3.00204 5.83853C2.86161 5.83853 2.72675 5.89346 2.62629 5.99159C2.57765 6.03925 2.53901 6.09613 2.51263 6.15891C2.48624 6.2217 2.47266 6.28911 2.47266 6.35721C2.47266 6.42531 2.48624 6.49273 2.51263 6.55551C2.53901 6.61829 2.57765 6.67518 2.62629 6.72284L8.60792 12.5548C8.71296 12.6572 8.85385 12.7145 9.00054 12.7145C9.14724 12.7145 9.28812 12.6572 9.39317 12.5548L15.3748 6.72396C15.4238 6.67627 15.4627 6.61924 15.4893 6.55625C15.5159 6.49326 15.5296 6.42558 15.5296 6.35721C15.5296 6.28884 15.5159 6.22116 15.4893 6.15817C15.4627 6.09518 15.4238 6.03816 15.3748 5.99046C15.2743 5.89234 15.1395 5.8374 14.999 5.8374C14.8586 5.8374 14.7238 5.89234 14.6233 5.99046V5.99159Z" fill="#A0A0A0" stroke="#A0A0A0" stroke-width="0.1"/>
</svg>
