<svg width="40" height="34" viewBox="0 0 40 34" fill="none" xmlns="http://www.w3.org/2000/svg">
<g id="heart">
<g id="Vector">
<g filter="url(#filter0_i_1282_12779)">
<path d="M38.9951 12.5531C38.8943 6.2836 34.1966 1 28.4127 1C24.9831 1 21.9345 2.77568 20 5.52771C18.0655 2.77568 15.0169 1 11.5874 1C5.80211 1 1.10502 6.2836 1.00491 12.5531C0.993861 12.3333 1.00491 12.7755 1.00491 12.5531C1.42288 23.5714 20 33 20 33C20 33 38.5771 23.5746 38.9951 12.5531C39.0061 12.3333 38.9951 12.7755 38.9951 12.5531Z" fill="#F1F1F1"/>
</g>
<path d="M38.9951 12.5531C38.8943 6.2836 34.1966 1 28.4127 1C24.9831 1 21.9345 2.77568 20 5.52771C18.0655 2.77568 15.0169 1 11.5874 1C5.80211 1 1.10502 6.2836 1.00491 12.5531M38.9951 12.5531C38.5771 23.5746 20 33 20 33C20 33 1.42288 23.5714 1.00491 12.5531M38.9951 12.5531C39.0061 12.3333 38.9951 12.7755 38.9951 12.5531ZM1.00491 12.5531C1.00491 12.7755 0.993861 12.3333 1.00491 12.5531Z" stroke="#F1F1F1" stroke-miterlimit="10"/>
</g>
</g>
<defs>
<filter id="filter0_i_1282_12779" x="0.5" y="0.5" width="39" height="34.0605" filterUnits="userSpaceOnUse" color-interpolation-filters="sRGB">
<feFlood flood-opacity="0" result="BackgroundImageFix"/>
<feBlend mode="normal" in="SourceGraphic" in2="BackgroundImageFix" result="shape"/>
<feColorMatrix in="SourceAlpha" type="matrix" values="0 0 0 0 0 0 0 0 0 0 0 0 0 0 0 0 0 0 127 0" result="hardAlpha"/>
<feOffset dy="1"/>
<feGaussianBlur stdDeviation="1"/>
<feComposite in2="hardAlpha" operator="arithmetic" k2="-1" k3="1"/>
<feColorMatrix type="matrix" values="0 0 0 0 0 0 0 0 0 0 0 0 0 0 0 0 0 0 0.25 0"/>
<feBlend mode="normal" in2="shape" result="effect1_innerShadow_1282_12779"/>
</filter>
</defs>
</svg>
