<svg width="16" height="83" viewBox="0 0 16 83" fill="none" xmlns="http://www.w3.org/2000/svg">
<path d="M7.785 1.98215L7.76714 0.982305L5.76746 1.01801L5.78532 2.01785L7.785 1.98215ZM7.51913 82.7069C7.91657 83.0904 8.54963 83.0791 8.93312 82.6816L15.1824 76.205C15.5659 75.8076 15.5546 75.1746 15.1572 74.7911C14.7598 74.4076 14.1267 74.4189 13.7432 74.8163L8.18825 80.5733L2.4313 75.0183C2.03386 74.6348 1.4008 74.6461 1.01731 75.0436C0.633821 75.441 0.645125 76.0741 1.04256 76.4575L7.51913 82.7069ZM5.78532 2.01785L7.21366 82.0051L9.21334 81.9694L7.785 1.98215L5.78532 2.01785Z" fill="url(#paint0_linear_2458_6877)"/>
<defs>
<linearGradient id="paint0_linear_2458_6877" x1="7.28508" y1="1.99107" x2="8.71342" y2="81.9783" gradientUnits="userSpaceOnUse">
<stop stop-opacity="0"/>
<stop offset="1"/>
</linearGradient>
</defs>
</svg>
