<svg width="108" height="36" viewBox="0 0 108 36" fill="none" xmlns="http://www.w3.org/2000/svg">
<g id="Component 51">
<path class="click_card_filter" d="M0 18C0 8.05887 8.05888 0 18 0H90C99.9411 0 108 8.05887 108 18V18C108 27.9411 99.9411 36 90 36H18C8.05888 36 0 27.9411 0 18V18Z" fill="#2A2A2A"/>
<g id="fluent:photo-filter-20-regular">
<path class="click_card_filter" id="Vector" d="M18 15.9999C18.0001 17.2871 18.4139 18.5401 19.1804 19.5742C19.9469 20.6083 21.0255 21.3686 22.257 21.7429C22.5585 22.7344 23.1116 23.6308 23.8624 24.345C24.6133 25.0591 25.5363 25.5666 26.5415 25.8181C27.5468 26.0695 28.6001 26.0564 29.5987 25.7798C30.5974 25.5033 31.5074 24.9728 32.2401 24.2401C32.9729 23.5073 33.5033 22.5973 33.7799 21.5987C34.0564 20.6 34.0696 19.5467 33.8182 18.5415C33.5667 17.5362 33.0592 16.6132 32.345 15.8623C31.6309 15.1115 30.7344 14.5584 29.743 14.2569C29.3262 12.879 28.4278 11.6968 27.2117 10.9261C25.9957 10.1555 24.5431 9.84781 23.1191 10.0592C21.695 10.2705 20.3944 10.9869 19.4547 12.0775C18.5149 13.1681 17.9986 14.5603 18 15.9999ZM24 10.9999C24.9787 10.9998 25.9359 11.2868 26.753 11.8254C27.5701 12.364 28.2113 13.1305 28.597 14.0299C27.7128 13.9416 26.8199 14.0507 25.983 14.3495C25.1461 14.6482 24.386 15.1292 23.7576 15.7575C23.1292 16.3859 22.6483 17.146 22.3495 17.9829C22.0508 18.8199 21.9416 19.7127 22.03 20.5969C20.9718 20.143 20.1026 19.3378 19.5692 18.3172C19.0359 17.2967 18.8711 16.1233 19.1026 14.9953C19.3342 13.8674 19.9479 12.8538 20.8401 12.1259C21.7324 11.398 22.8485 11.0003 24 10.9999ZM33 19.9999C33.0008 21.1521 32.6037 22.2691 31.8758 23.1622C31.1479 24.0552 30.134 24.6695 29.0054 24.9012C27.8768 25.1329 26.7029 24.9677 25.682 24.4336C24.6612 23.8995 23.8562 23.0292 23.403 21.9699C24.2872 22.0583 25.1801 21.9492 26.017 21.6504C26.8539 21.3516 27.614 20.8707 28.2424 20.2423C28.8708 19.614 29.3517 18.8539 29.6505 18.0169C29.9493 17.18 30.0584 16.2872 29.97 15.4029C30.8695 15.7887 31.636 16.4298 32.1746 17.2469C32.7132 18.0641 33.0002 19.0213 33 19.9999Z" fill="white"/>
</g>
<path class="click_card_filter" id="&#236;&#182;&#148;&#236;&#178;&#156;&#237;&#149;&#132;&#237;&#132;&#176;" d="M55.9972 19.3086H44.923V20.2109H49.9269V24.1348H50.9796V20.2109H55.9972V19.3086ZM45.6202 17.5039L46.0167 18.3652C47.8966 18.0781 49.6945 17.1484 50.4669 15.8154C51.2394 17.1348 53.0099 18.0781 54.8898 18.3652L55.2862 17.5039C53.1124 17.21 50.9933 15.877 50.9933 14.3594V14.3457H54.9308V13.4707H50.9796V11.9531H49.9269V13.4707H46.003V14.3457H49.9269V14.3594C49.92 15.8838 47.7872 17.21 45.6202 17.5039ZM60.7452 14.8652V14.4688H63.4932V13.5938H60.7725V12.0352H59.6924V13.5938H56.9444V14.4688H59.6924V14.8652C59.6856 16.5811 58.4414 18.0918 56.6436 18.6934L57.1768 19.5273C58.6055 19.0283 59.7129 17.9893 60.2393 16.6494C60.7862 17.9004 61.9004 18.8643 63.3018 19.3223L63.835 18.4609C62.0303 17.8936 60.752 16.4854 60.7452 14.8652ZM58.8721 23.8477H67.0205V22.9453H59.9522V20.2246H58.8721V23.8477ZM63.0694 16.6016H65.5987V21.0449H66.6787V11.9668H65.5987V15.7129H63.0694V16.6016ZM78.331 11.9531H77.2509V18.2695H78.331V11.9531ZM68.4873 16.9434L68.624 17.832C70.7705 17.8389 73.6279 17.7432 76.0615 17.3809L76.0068 16.5879C75.4189 16.6562 74.8037 16.7178 74.1748 16.7656V13.6484H75.4052V12.7871H68.8291V13.6484H70.0459V16.9297C69.499 16.9365 68.9726 16.9434 68.4873 16.9434ZM70.374 19.7188H77.2646V20.9492H70.415V23.9707H78.7959V23.0957H71.4677V21.7559H78.331V18.8574H70.374V19.7188ZM71.0849 16.9092V13.6484H73.1357V16.8271C72.4453 16.8682 71.7548 16.8887 71.0849 16.9092ZM90.038 11.9531H88.9716V16.5469H86.4013V17.4355H88.9716V24.1348H90.038V11.9531ZM80.5223 21.1953H81.452C83.8036 21.1953 85.287 21.1133 87.0575 20.8262L86.9345 19.9375C85.2665 20.2383 83.8309 20.2998 81.6024 20.3066V17.3672H85.663V16.4922H81.6024V13.9629H86.1962V13.0742H80.5223V21.1953Z" fill="white"/>
</g>
</svg>
