<svg width="24" height="24" viewBox="0 0 24 24" fill="none" xmlns="http://www.w3.org/2000/svg">
<circle cx="12" cy="12" r="12" fill="#19BE7E"/>
<path d="M6.66416 11.4488C6.25127 11.082 5.61921 11.1194 5.25241 11.5323C4.8856 11.9452 4.92296 12.5772 5.33584 12.944L6.66416 11.4488ZM10 15.75L9.33584 16.4976C9.70741 16.8277 10.265 16.8348 10.6449 16.5143L10 15.75ZM18.6449 9.76429C19.067 9.40814 19.1204 8.77724 18.7643 8.35513C18.4081 7.93302 17.7772 7.87956 17.3551 8.23571L18.6449 9.76429ZM5.33584 12.944L9.33584 16.4976L10.6642 15.0024L6.66416 11.4488L5.33584 12.944ZM10.6449 16.5143L18.6449 9.76429L17.3551 8.23571L9.35513 14.9857L10.6449 16.5143Z" fill="white"/>
</svg>
