<svg width="10" height="18" viewBox="0 0 10 18" fill="none" xmlns="http://www.w3.org/2000/svg">
<path d="M9.70711 1.70711C10.0976 1.31658 10.0976 0.683418 9.70711 0.292893C9.31658 -0.0976311 8.68342 -0.0976311 8.29289 0.292893L9.70711 1.70711ZM0.292893 8.29289C-0.0976308 8.68342 -0.0976309 9.31658 0.292893 9.70711C0.683417 10.0976 1.31658 10.0976 1.70711 9.70711L0.292893 8.29289ZM8.29289 0.292893L0.292893 8.29289L1.70711 9.70711L9.70711 1.70711L8.29289 0.292893Z" fill="#19BE7E"/>
<path d="M1.70711 8.29289C1.31658 7.90237 0.683417 7.90237 0.292893 8.29289C-0.0976311 8.68342 -0.0976311 9.31658 0.292893 9.70711L1.70711 8.29289ZM8.29289 17.7071C8.68342 18.0976 9.31658 18.0976 9.70711 17.7071C10.0976 17.3166 10.0976 16.6834 9.70711 16.2929L8.29289 17.7071ZM0.292893 9.70711L8.29289 17.7071L9.70711 16.2929L1.70711 8.29289L0.292893 9.70711Z" fill="#2A2A2A"/>
</svg>
