<svg width="49" height="40" viewBox="0 0 49 40" fill="none" xmlns="http://www.w3.org/2000/svg">
<g filter="url(#filter0_i_1257_21472)">
<path d="M47.9939 14.7193C47.8693 7.27428 42.0589 1 34.9051 1C30.6633 1 26.8926 3.10863 24.5 6.37665C22.1074 3.10863 18.3367 1 14.0949 1C6.93945 1 1.12989 7.27428 1.00607 14.7193C0.992407 14.4583 1.00607 14.9834 1.00607 14.7193C1.52303 27.8036 24.5 39 24.5 39C24.5 39 47.477 27.8074 47.9939 14.7193C48.0076 14.4583 47.9939 14.9834 47.9939 14.7193Z" fill="#F1F1F1"/>
</g>
<path d="M47.9939 14.7193C47.8693 7.27428 42.0589 1 34.9051 1C30.6633 1 26.8926 3.10863 24.5 6.37665C22.1074 3.10863 18.3367 1 14.0949 1C6.93945 1 1.12989 7.27428 1.00607 14.7193M47.9939 14.7193C47.477 27.8074 24.5 39 24.5 39C24.5 39 1.52303 27.8036 1.00607 14.7193M47.9939 14.7193C48.0076 14.4583 47.9939 14.9834 47.9939 14.7193ZM1.00607 14.7193C1.00607 14.9834 0.992407 14.4583 1.00607 14.7193Z" stroke="#F1F1F1" stroke-miterlimit="10"/>
<defs>
<filter id="filter0_i_1257_21472" x="0.5" y="0.5" width="48" height="40.0562" filterUnits="userSpaceOnUse" color-interpolation-filters="sRGB">
<feFlood flood-opacity="0" result="BackgroundImageFix"/>
<feBlend mode="normal" in="SourceGraphic" in2="BackgroundImageFix" result="shape"/>
<feColorMatrix in="SourceAlpha" type="matrix" values="0 0 0 0 0 0 0 0 0 0 0 0 0 0 0 0 0 0 127 0" result="hardAlpha"/>
<feOffset dy="1"/>
<feGaussianBlur stdDeviation="1"/>
<feComposite in2="hardAlpha" operator="arithmetic" k2="-1" k3="1"/>
<feColorMatrix type="matrix" values="0 0 0 0 0 0 0 0 0 0 0 0 0 0 0 0 0 0 0.25 0"/>
<feBlend mode="normal" in2="shape" result="effect1_innerShadow_1257_21472"/>
</filter>
</defs>
</svg>
