<svg width="56" height="56" viewBox="0 0 56 56" fill="none" xmlns="http://www.w3.org/2000/svg">
<g id="ic:twotone-image-search">
<path id="Vector" opacity="0.3" d="M40.6307 27.2366C38.9974 27.9599 37.2474 28.3333 35.4741 28.3333C28.4041 28.3333 22.6641 22.5699 22.6641 15.4999C22.6641 15.1033 22.6874 14.7066 22.7341 14.3333H8.66406V46.9999H41.3307V27.9366L40.6307 27.2366Z" fill="black" fill-opacity="0.5"/>
<path id="Vector_2" d="M46 15.5C46 9.69 41.31 5 35.5 5C29.69 5 25 9.69 25 15.5C25 21.31 29.69 26 35.4767 26C37.53 26 39.4433 25.3933 41.0533 24.3667L48.3333 31.6467L51.6467 28.3333L44.3667 21.0767C45.3933 19.4433 46 17.5533 46 15.5ZM35.5 21.3333C33.9529 21.3333 32.4692 20.7188 31.3752 19.6248C30.2812 18.5308 29.6667 17.0471 29.6667 15.5C29.6667 13.9529 30.2812 12.4692 31.3752 11.3752C32.4692 10.2812 33.9529 9.66667 35.5 9.66667C37.0471 9.66667 38.5308 10.2812 39.6248 11.3752C40.7188 12.4692 41.3333 13.9529 41.3333 15.5C41.3333 17.0471 40.7188 18.5308 39.6248 19.6248C38.5308 20.7188 37.0471 21.3333 35.5 21.3333ZM41.3333 47H8.66667V14.3333H22.7367C22.8767 12.6533 23.3667 11.09 24.09 9.66667H8.66667C6.1 9.66667 4 11.7667 4 14.3333V47C4 49.5667 6.1 51.6667 8.66667 51.6667H41.3333C43.9 51.6667 46 49.5667 46 47V32.6033L41.3333 27.9367V47Z" fill="#616161"/>
</g>
</svg>
