<svg width="21" height="18" viewBox="0 0 21 18" fill="none" xmlns="http://www.w3.org/2000/svg">
<path d="M4.21327 17.9982H4.12448C3.89093 17.8979 3.83302 17.7958 3.89672 17.5809C4.19783 16.5387 4.49894 15.4964 4.80004 14.4541C4.82514 14.3664 4.8483 14.2804 4.87339 14.1909C4.81935 14.164 4.77495 14.1425 4.73056 14.121C4.19783 13.8632 3.69019 13.5677 3.2115 13.2274C2.0669 12.4126 1.15007 11.424 0.56908 10.1884C0.051791 9.0888 -0.116135 7.94445 0.0788136 6.75892C0.24674 5.74173 0.66945 4.81765 1.30641 3.97954C2.2329 2.75998 3.45278 1.86277 4.87918 1.19837C6.40596 0.485622 8.03117 0.114919 9.73167 0.021795C10.9438 -0.0444659 12.1425 0.0397034 13.3276 0.283257C14.9297 0.612771 16.4101 1.19837 17.7284 2.11528C18.7842 2.84773 19.647 3.73599 20.2473 4.83198C20.9094 6.04259 21.141 7.31945 20.9171 8.66258C20.7492 9.66187 20.3284 10.5698 19.7069 11.3972C18.9348 12.4233 17.9427 13.2274 16.7826 13.8596C14.9547 14.8553 12.9686 15.3263 10.8589 15.3854C10.137 15.4051 9.41898 15.3657 8.70481 15.2761C8.65076 15.269 8.58321 15.2815 8.53881 15.3084C7.39035 16.0247 6.24768 16.7428 5.09922 17.461C4.80584 17.6454 4.50666 17.8209 4.20941 18L4.21327 17.9982Z" fill="#3C1E1E"/>
</svg>
