<svg width="157" height="72" viewBox="0 0 157 72" fill="none" xmlns="http://www.w3.org/2000/svg">
<g filter="url(#filter0_d_883_1773)">
<path fill-rule="evenodd" clip-rule="evenodd" d="M14.5686 18.7724L5.06171 13.7219C3.60575 12.9484 3.65835 10.8445 5.15114 10.1448L19.6776 3.33542C19.9058 3.22848 20.1397 3.16858 20.3707 3.15014C22.9107 1.17573 26.1024 0 29.5686 0H137.415C145.699 0 152.415 6.71573 152.415 15V48.7215C152.415 57.0058 145.699 63.7215 137.415 63.7215H29.5686C21.2844 63.7215 14.5686 57.0058 14.5686 48.7215V18.7724Z" fill="white"/>
</g>
<path d="M125.211 34.1685C125.236 30.9301 126.151 29.9395 127.751 28.9616C128.83 28.2631 129.668 27.4123 129.656 26.1423C129.668 24.72 128.551 23.8056 127.166 23.8056C125.909 23.8056 124.69 24.6184 124.601 26.3201H121.426C121.515 22.9039 124.055 21.1641 127.192 21.1641C130.621 21.1641 132.97 23.069 132.983 26.0915C132.97 28.1615 131.942 29.5077 130.291 30.4856C128.817 31.3872 128.208 32.2635 128.182 34.1685V34.397H125.211V34.1685ZM124.804 38.0291C124.792 36.9624 125.693 36.0861 126.786 36.0734C127.84 36.0861 128.741 36.9624 128.741 38.0291C128.741 39.1213 127.84 40.0103 126.786 40.0103C125.693 40.0103 124.792 39.1213 124.804 38.0291Z" fill="black"/>
<g clip-path="url(#clip0_883_1773)">
<path d="M103.291 19.0045C102.127 19.0034 100.964 19.0017 99.7995 19C99.8665 22.2233 99.9016 25.5375 99.8994 28.9376C99.8966 32.3696 99.8559 35.7147 99.7822 38.9667C100.946 38.9678 102.11 38.97 103.274 38.9712C103.206 35.7187 103.171 32.3741 103.174 28.9415C103.177 25.5415 103.218 22.2278 103.291 19.0045Z" fill="#0A0A0A"/>
<path d="M65.9285 20.0679C65.1796 20.0679 64.6177 20.257 64.2589 20.6284C63.8928 21.0065 63.7148 21.4907 63.7148 22.109C63.7148 22.6998 63.8995 23.1812 64.279 23.5813C64.6534 23.9723 65.2086 24.1715 65.9285 24.1715C66.6874 24.1715 67.2521 23.9768 67.607 23.5936C67.968 23.2014 68.1438 22.7155 68.1438 22.1096C68.1438 21.4896 67.9691 21.0049 67.6092 20.6278C67.2554 20.2564 66.6902 20.0679 65.9285 20.0679Z" fill="#19BE7E"/>
<path d="M93.024 31.8866C94.6439 30.3106 96.1187 29.1739 97.7386 27.5979C97.4607 27.5979 95.6818 27.5956 95.4039 27.5956C95.1567 27.5951 93.4548 27.5934 93.2076 27.5928C92.4799 28.2745 91.7166 28.9646 90.9164 29.6598C89.946 30.5031 88.9901 31.2936 88.0554 32.0353C88.0404 31.0737 88.0298 29.8146 88.0236 28.8423C88.0019 25.4686 88.0326 22.5915 88.1107 19.3356C86.7402 19.3266 86.0968 19.3171 84.7264 19.3081C84.8017 22.3171 84.843 24.9547 84.8458 28.095C84.8491 31.7537 84.7995 35.326 84.7046 38.8074C85.3212 38.7878 85.9534 38.7771 86.6002 38.776C87.3786 38.7743 87.4082 38.7872 88.1436 38.8119C88.1235 37.9136 88.1258 36.9716 88.1107 36.0632C88.9265 35.3428 89.7429 34.6224 90.5587 33.9026C90.9482 34.4485 91.3371 35.0011 91.7266 35.5611C92.4704 36.6305 93.1903 37.6914 93.8872 38.7429C93.8872 38.7429 93.8872 38.7434 93.8878 38.7434C95.2504 38.7474 96.6131 38.7519 97.9758 38.7569C96.8982 37.2297 95.8001 35.6946 94.6807 34.1528C94.1283 33.392 93.5764 32.6362 93.024 31.8866Z" fill="#0A0A0A"/>
<path d="M59.8001 20.0679C59.0512 20.0679 58.4893 20.257 58.1305 20.6284C57.7644 21.0065 57.5864 21.4907 57.5864 22.109C57.5864 22.6998 57.7711 23.1812 58.1506 23.5813C58.525 23.9723 59.0802 24.1715 59.8001 24.1715C60.559 24.1715 61.1237 23.9768 61.4786 23.5936C61.8396 23.2014 62.0154 22.7155 62.0154 22.1096C62.0154 21.4896 61.8407 21.0049 61.4808 20.6278C61.1264 20.2564 60.5612 20.0679 59.8001 20.0679Z" fill="#19BE7E"/>
<path d="M58.0376 25.9718C58.08 27.3632 58.1107 28.2794 58.1286 29.3309C58.147 30.3941 58.1464 31.1947 58.147 31.6194C58.1503 34.2755 58.0845 36.8907 58.0376 38.4459C58.6135 38.433 59.2011 38.4257 59.8004 38.4257C60.3997 38.4257 60.9872 38.4325 61.5637 38.4459C61.5168 36.8907 61.451 34.2761 61.4543 31.6194C61.4549 31.1953 61.4549 30.3946 61.4727 29.3309C61.4906 28.2789 61.5213 27.3632 61.5637 25.9712C60.3879 25.9718 59.2128 25.9718 58.0376 25.9718Z" fill="#0A0A0A"/>
<path d="M64.1665 26.0474C64.2089 27.4389 64.2396 28.3551 64.2575 29.4065C64.2759 30.4698 64.2753 31.2704 64.2759 31.6951C64.2792 34.3512 64.2134 36.9663 64.1665 38.5216C64.7424 38.5087 65.33 38.5014 65.9293 38.5014C66.5286 38.5014 67.1162 38.5082 67.6926 38.5216C67.6457 36.9663 67.5799 34.3518 67.5832 31.6951C67.5838 31.271 67.5838 30.4703 67.6016 29.4065C67.6195 28.3545 67.6502 27.4389 67.6926 26.0469C66.5174 26.0474 65.3417 26.0474 64.1665 26.0474Z" fill="#0A0A0A"/>
<path d="M119.357 31.3226C118.727 29.2522 117.166 28.1144 116.517 27.7076C114.835 26.6517 113.121 26.6337 112.382 26.6264C112.165 26.6242 112.002 26.6309 111.964 26.6326C111.412 26.6562 108.478 26.7818 106.572 29.0985C106.236 29.5069 105.121 30.9023 105.115 32.953C105.108 35.0851 106.301 36.5719 106.594 36.9214C106.69 37.037 106.771 37.1262 106.828 37.1874C108.629 39.141 111.063 39.2947 112.382 39.3778C113.396 39.4417 115.196 39.4462 117.123 38.42C118.053 37.9241 118.756 37.2889 119.22 36.5281C117.941 36.0535 116.855 35.6001 115.987 35.1771C115.629 35.5715 115.19 35.8919 114.678 36.1315C114.448 36.2386 114.212 36.3267 113.971 36.3963C113.887 36.4204 113.284 36.5904 112.594 36.5887C111.981 36.587 110.853 36.5842 109.939 35.7842C108.891 34.8662 108.832 33.5208 108.826 33.2459C112.424 33.2481 116.022 33.2504 119.62 33.2521C119.63 32.7892 119.594 32.103 119.357 31.3226ZM109.116 31.2025C109.356 30.2913 110.135 29.7993 110.4 29.6315C111.759 28.7719 114.1 28.8825 115.236 30.2896C115.638 30.7879 115.796 31.3332 115.864 31.7147C113.591 31.7147 111.318 31.7147 109.045 31.7147C109.048 31.5902 109.062 31.4101 109.116 31.2025Z" fill="#0A0A0A"/>
<path d="M56.2059 30.433C56.0987 29.9472 55.688 28.0895 54.1217 26.7743C51.7172 24.7556 48.5427 25.655 48.2414 25.7459C45.7973 26.4815 44.6417 28.4441 44.558 28.6668C44.4218 29.0281 44.3018 29.4422 44.3018 29.4422C44.3018 29.4428 44.3013 29.4445 44.3013 29.445L43.3448 25.6965V25.6971V25.6965H39.5264C39.6112 28.9311 39.6553 32.2442 39.653 35.633C39.6502 38.8266 39.6067 41.9529 39.5264 45.009C40.129 44.9899 40.7473 44.9787 41.3795 44.977C42.1406 44.9748 42.8817 44.9865 43.6004 45.009C43.5513 41.0406 43.5016 37.5047 43.4525 33.9027C43.6216 34.4924 44.1612 36.0819 45.7203 37.3229C46.0657 37.5979 47.1672 38.4181 48.8212 38.6785C49.4578 38.7789 52.1112 39.0841 54.2567 37.1917C56.0184 35.6375 56.3699 33.5296 56.3671 32.0787C56.3655 31.3122 56.2673 30.7108 56.2059 30.433ZM51.0415 35.6106C50.2402 36.097 49.4623 36.1133 49.166 36.1161C48.8797 36.1183 48.0517 36.1206 47.2794 35.6493C45.7426 34.7117 45.6946 32.5668 45.6941 32.2088C45.6929 31.7437 45.7571 29.7177 47.2308 28.7869C47.9998 28.301 48.8546 28.3016 49.166 28.3021C49.3965 28.3021 50.2536 28.3032 50.9639 28.7179C52.9873 30.0448 52.7747 34.3639 51.0415 35.6106Z" fill="#0A0A0A"/>
<path d="M73.6186 29.9567C75.0047 28.6298 77.2457 28.9619 78.5525 29.6122C78.9962 29.8327 79.331 30.0897 79.5592 30.29C80.5932 30.0005 81.6277 29.711 82.6617 29.4209C82.0429 28.4401 81.3432 27.828 80.8817 27.4818C79.2913 26.2913 77.5967 26.0775 76.8478 26.0337C76.8422 26.0332 76.8194 26.032 76.7909 26.0304C75.782 25.9782 73.1856 25.8581 71.2521 27.7921C70.087 28.9574 69.4966 30.5211 69.4966 32.4394C69.4966 33.0549 69.5317 35.3166 71.2515 37.0867C73.0589 38.9467 75.4539 38.9545 76.5052 38.9579C77.2317 38.9601 79.2997 38.9377 81.2221 37.5053C82.0608 36.8803 82.6031 36.1873 82.9274 35.7009C81.8018 35.3328 80.6763 34.9648 79.5508 34.5967C79.36 34.7897 79.0743 35.04 78.6842 35.2571C77.0069 36.1907 74.3892 35.9511 73.2124 34.37C72.6014 33.5492 72.5768 32.633 72.5762 32.4142C72.5757 32.3098 72.593 30.938 73.6186 29.9567Z" fill="#0A0A0A"/>
</g>
<defs>
<filter id="filter0_d_883_1773" x="0" y="0" width="156.415" height="71.7217" filterUnits="userSpaceOnUse" color-interpolation-filters="sRGB">
<feFlood flood-opacity="0" result="BackgroundImageFix"/>
<feColorMatrix in="SourceAlpha" type="matrix" values="0 0 0 0 0 0 0 0 0 0 0 0 0 0 0 0 0 0 127 0" result="hardAlpha"/>
<feOffset dy="4"/>
<feGaussianBlur stdDeviation="2"/>
<feComposite in2="hardAlpha" operator="out"/>
<feColorMatrix type="matrix" values="0 0 0 0 0 0 0 0 0 0 0 0 0 0 0 0 0 0 0.25 0"/>
<feBlend mode="normal" in2="BackgroundImageFix" result="effect1_dropShadow_883_1773"/>
<feBlend mode="normal" in="SourceGraphic" in2="effect1_dropShadow_883_1773" result="shape"/>
</filter>
<clipPath id="clip0_883_1773">
<rect width="80.0952" height="26.0088" fill="white" transform="translate(39.5264 19)"/>
</clipPath>
</defs>
</svg>
