<svg width="62" height="20" viewBox="0 0 62 20" fill="none" xmlns="http://www.w3.org/2000/svg">
<g id="logo" clip-path="url(#clip0_1086_11382)">
<path id="Vector" d="M49.0331 0.00345155C48.138 0.00258866 47.2434 0.00129433 46.3483 0C46.3998 2.47864 46.4268 5.02718 46.4251 7.64173C46.4229 10.2809 46.3916 12.8531 46.335 15.3538C47.2301 15.3546 48.1251 15.3564 49.0202 15.3572C48.9679 12.8562 48.9409 10.2843 48.9434 7.64475C48.9456 5.0302 48.9773 2.4821 49.0331 0.00345155Z" fill="#2A2A2A"/>
<path id="Vector_2" d="M20.3028 0.820312C19.727 0.820312 19.2949 0.965709 19.019 1.25132C18.7375 1.54212 18.6006 1.91445 18.6006 2.3899C18.6006 2.84421 18.7426 3.21439 19.0344 3.52201C19.3223 3.82273 19.7493 3.97589 20.3028 3.97589C20.8864 3.97589 21.3206 3.82618 21.5935 3.5315C21.8711 3.22993 22.0063 2.85629 22.0063 2.39034C22.0063 1.91359 21.872 1.54082 21.5952 1.25089C21.3232 0.965278 20.8885 0.820312 20.3028 0.820312Z" fill="#19BE7E"/>
<path id="Vector_3" d="M41.1386 9.90886C42.3842 8.69694 43.5183 7.82283 44.764 6.61091C44.5503 6.61091 43.1824 6.60918 42.9687 6.60918C42.7786 6.60875 41.4698 6.60746 41.2797 6.60702C40.7202 7.13123 40.1332 7.6619 39.5179 8.19646C38.7717 8.84492 38.0367 9.45283 37.3179 10.0232C37.3063 9.2837 37.2982 8.31554 37.2935 7.56785C37.2767 4.97358 37.3003 2.76114 37.3604 0.257469C36.3065 0.250566 35.8118 0.243231 34.7579 0.236328C34.8159 2.55016 34.8476 4.57838 34.8498 6.99317C34.8523 9.80661 34.8142 12.5536 34.7412 15.2307C35.2154 15.2156 35.7015 15.2074 36.1988 15.2066C36.7974 15.2053 36.8202 15.2152 37.3857 15.2342C37.3703 14.5434 37.372 13.819 37.3604 13.1205C37.9877 12.5666 38.6155 12.0126 39.2428 11.459C39.5423 11.8788 39.8414 12.3038 40.1409 12.7344C40.7129 13.5567 41.2664 14.3726 41.8024 15.1811C41.8024 15.1811 41.8024 15.1815 41.8028 15.1815C42.8507 15.1846 43.8985 15.188 44.9464 15.1919C44.1178 14.0175 43.2733 12.8371 42.4126 11.6515C41.9878 11.0664 41.5634 10.4853 41.1386 9.90886Z" fill="#2A2A2A"/>
<path id="Vector_4" d="M15.5899 0.820312C15.0141 0.820312 14.582 0.965709 14.3061 1.25132C14.0246 1.54212 13.8877 1.91445 13.8877 2.3899C13.8877 2.84421 14.0297 3.21439 14.3215 3.52201C14.6094 3.82273 15.0364 3.97589 15.5899 3.97589C16.1735 3.97589 16.6077 3.82618 16.8806 3.5315C17.1583 3.22993 17.2934 2.85629 17.2934 2.39034C17.2934 1.91359 17.1591 1.54082 16.8823 1.25089C16.6099 0.965278 16.1752 0.820312 15.5899 0.820312Z" fill="#19BE7E"/>
<path id="Vector_5" d="M14.2344 5.36176C14.267 6.43174 14.2906 7.13629 14.3043 7.94481C14.3185 8.7624 14.318 9.37807 14.3185 9.70467C14.3211 11.7471 14.2704 13.7581 14.2344 14.954C14.6772 14.9441 15.129 14.9385 15.5899 14.9385C16.0507 14.9385 16.5026 14.9437 16.9458 14.954C16.9098 13.7581 16.8591 11.7476 16.8617 9.70467C16.8621 9.3785 16.8621 8.76283 16.8759 7.94481C16.8896 7.13586 16.9132 6.43174 16.9458 5.36133C16.0417 5.36176 15.138 5.36176 14.2344 5.36176Z" fill="#2A2A2A"/>
<path id="Vector_6" d="M18.9473 5.4184C18.9799 6.48838 19.0035 7.19293 19.0172 8.00145C19.0314 8.81904 19.0309 9.43471 19.0314 9.76131C19.0339 11.8038 18.9833 13.8147 18.9473 15.0107C19.3901 15.0008 19.8419 14.9952 20.3028 14.9952C20.7636 14.9952 21.2155 15.0003 21.6587 15.0107C21.6227 13.8147 21.572 11.8042 21.5746 9.76131C21.575 9.43514 21.575 8.81947 21.5888 8.00145C21.6025 7.1925 21.6261 6.48838 21.6587 5.41797C20.755 5.4184 19.8509 5.4184 18.9473 5.4184Z" fill="#2A2A2A"/>
<path id="Vector_7" d="M61.3873 9.47677C60.9033 7.88474 59.7023 7.00977 59.2037 6.69697C57.91 5.885 56.5918 5.87119 56.0241 5.86558C55.8572 5.86386 55.7315 5.86903 55.7027 5.87033C55.2783 5.88845 53.0222 5.98509 51.5559 7.76652C51.2976 8.08062 50.4407 9.15361 50.4356 10.7305C50.43 12.37 51.3478 13.5134 51.5727 13.7821C51.6469 13.871 51.7091 13.9396 51.7529 13.9866C53.138 15.4889 55.0097 15.6071 56.0241 15.671C56.8033 15.7202 58.188 15.7236 59.6692 14.9345C60.3846 14.5531 60.9256 14.0647 61.2818 13.4797C60.2983 13.1147 59.4637 12.7661 58.796 12.4408C58.521 12.7441 58.1833 12.9904 57.7894 13.1747C57.6126 13.2571 57.4311 13.3248 57.2457 13.3783C57.1814 13.3969 56.7171 13.5276 56.1867 13.5263C55.7151 13.525 54.8484 13.5228 54.1455 12.9076C53.3393 12.2018 53.2942 11.1672 53.289 10.9558C56.0558 10.9575 58.8226 10.9592 61.5894 10.9605C61.5972 10.6046 61.5697 10.0769 61.3873 9.47677ZM53.5126 9.38444C53.6971 8.68377 54.2957 8.3054 54.5 8.1764C55.5448 7.51542 57.3448 7.60042 58.2185 8.68248C58.5279 9.0656 58.6493 9.48496 58.7012 9.77835C56.9535 9.77835 55.2058 9.77835 53.4577 9.77835C53.4598 9.68256 53.471 9.54407 53.5126 9.38444Z" fill="#2A2A2A"/>
<path id="Vector_8" d="M12.8261 8.79239C12.7437 8.41876 12.4279 6.99025 11.2234 5.97894C9.37442 4.42661 6.93331 5.11821 6.70159 5.18811C4.82216 5.75373 3.93351 7.26292 3.86914 7.4342C3.76444 7.71205 3.67219 8.03046 3.67219 8.03046C3.67219 8.03089 3.67176 8.03218 3.67176 8.03261L2.93629 5.15014V5.15057V5.15014H0C0.0652223 7.63741 0.0991208 10.1851 0.0974044 12.791C0.0952589 15.2468 0.0617896 17.6508 0 20.0009C0.463422 19.9862 0.938858 19.9776 1.42502 19.9763C2.01031 19.9745 2.58014 19.9836 3.13282 20.0009C3.09506 16.9493 3.05687 14.2303 3.01911 11.4604C3.14912 11.9139 3.56406 13.1362 4.76295 14.0905C5.02856 14.3019 5.87559 14.9327 7.14742 15.1329C7.63702 15.2101 9.67736 15.4448 11.3272 13.9896C12.6819 12.7945 12.9522 11.1735 12.9501 10.0578C12.9488 9.46846 12.8733 9.00595 12.8261 8.79239ZM8.85479 12.7737C8.23861 13.1478 7.64045 13.1603 7.4126 13.1625C7.19248 13.1642 6.5557 13.1659 5.96184 12.8035C4.78011 12.0826 4.74321 10.4332 4.74278 10.1579C4.74192 9.80024 4.79127 8.2423 5.92451 7.52653C6.5158 7.1529 7.17317 7.15333 7.4126 7.15376C7.58982 7.15376 8.24891 7.15463 8.79515 7.47346C10.351 8.49383 10.1876 11.8151 8.85479 12.7737Z" fill="#2A2A2A"/>
<path id="Vector_9" d="M26.2156 8.42525C27.2815 7.40489 29.0047 7.6603 30.0097 8.16034C30.3508 8.3299 30.6083 8.5275 30.7838 8.68153C31.5789 8.4589 32.3744 8.23628 33.1695 8.01322C32.6937 7.25906 32.1556 6.78835 31.8007 6.52215C30.5778 5.60663 29.2746 5.44225 28.6988 5.4086C28.6945 5.40816 28.6769 5.4073 28.655 5.40601C27.8792 5.36588 25.8826 5.27355 24.3958 6.76074C23.4999 7.65685 23.0459 8.85928 23.0459 10.3344C23.0459 10.8077 23.0729 12.5468 24.3954 13.908C25.7852 15.3383 27.6269 15.3443 28.4353 15.3469C28.994 15.3486 30.5842 15.3314 32.0625 14.2299C32.7074 13.7493 33.1245 13.2164 33.3738 12.8424C32.5083 12.5593 31.6428 12.2763 30.7773 11.9933C30.6306 12.1417 30.4109 12.3341 30.1109 12.5011C28.8211 13.219 26.8082 13.0348 25.9032 11.819C25.4334 11.1878 25.4145 10.4832 25.4141 10.315C25.4136 10.2347 25.4269 9.17984 26.2156 8.42525Z" fill="#2A2A2A"/>
</g>
<defs>
<clipPath id="clip0_1086_11382">
<rect width="61.5909" height="20" fill="white"/>
</clipPath>
</defs>
</svg>
