<svg width="58" height="58" viewBox="0 0 58 58" fill="none" xmlns="http://www.w3.org/2000/svg">
<mask id="mask0_1267_14231" style="mask-type:alpha" maskUnits="userSpaceOnUse" x="0" y="0" width="58" height="58">
<circle cx="29" cy="29" r="29" fill="#D9D9D9"/>
</mask>
<g mask="url(#mask0_1267_14231)">
<rect width="58" height="58" fill="#2A2A2A"/>
<path d="M13.8571 31.5625H15.0926C17.3531 36.749 22.4964 40.375 28.5 40.375C34.5036 40.375 39.6469 36.749 41.9074 31.5625H43.1429C43.9482 31.5625 44.6071 30.9016 44.6071 30.0938V21.2812C44.6071 20.4734 43.9482 19.8125 43.1429 19.8125H41.9074C39.6469 14.626 34.5036 11 28.5 11C22.4964 11 17.3531 14.626 15.0926 19.8125H13.8571C13.0518 19.8125 12.3929 20.4734 12.3929 21.2812V30.0938C12.3929 30.9016 13.0518 31.5625 13.8571 31.5625ZM17.5179 23.4844C17.5179 21.4557 19.4855 19.8125 21.9107 19.8125H35.0893C37.5145 19.8125 39.4821 21.4557 39.4821 23.4844V25.6875C39.4821 30.5527 35.5469 34.5 30.6964 34.5H26.3036C21.4531 34.5 17.5179 30.5527 17.5179 25.6875V23.4844ZM24.1071 30.0938L25.2054 26.7891L28.5 25.6875L25.2054 24.5859L24.1071 21.2812L23.0089 24.5859L19.7143 25.6875L23.0089 26.7891L24.1071 30.0938ZM37.9813 40.5035C35.2449 42.2752 31.996 43.3125 28.5 43.3125C25.004 43.3125 21.7551 42.2752 19.0188 40.5035C12.8413 41.1553 8 46.3418 8 52.7125V53.5938C8 56.0264 9.96763 58 12.3929 58H19.7143V52.125C19.7143 50.5002 21.023 49.1875 22.6429 49.1875H34.3571C35.977 49.1875 37.2857 50.5002 37.2857 52.125V58H44.6071C47.0324 58 49 56.0264 49 53.5938V52.7125C49 46.3418 44.1587 41.1553 37.9813 40.5035ZM32.8929 52.125C32.0875 52.125 31.4286 52.7859 31.4286 53.5938C31.4286 54.4016 32.0875 55.0625 32.8929 55.0625C33.6982 55.0625 34.3571 54.4016 34.3571 53.5938C34.3571 52.7859 33.6982 52.125 32.8929 52.125ZM24.1071 52.125C23.3018 52.125 22.6429 52.7859 22.6429 53.5938V58H25.5714V53.5938C25.5714 52.7859 24.9125 52.125 24.1071 52.125Z" fill="white"/>
</g>
</svg>
