<svg width="32" height="32" viewBox="0 0 32 32" fill="none" xmlns="http://www.w3.org/2000/svg">
<g id="carbon:next-filled">
<path id="Vector" d="M1.5 15.4995C1.5 18.2684 2.32109 20.9752 3.85943 23.2775C5.39777 25.5798 7.58427 27.3742 10.1424 28.4338C12.7006 29.4935 15.5155 29.7707 18.2313 29.2305C20.947 28.6903 23.4416 27.3569 25.3995 25.399C27.3574 23.4411 28.6908 20.9465 29.231 18.2308C29.7712 15.515 29.4939 12.7001 28.4343 10.1419C27.3747 7.58378 25.5803 5.39728 23.278 3.85894C20.9757 2.3206 18.2689 1.49951 15.5 1.49951C11.787 1.49951 8.22601 2.97451 5.6005 5.60002C2.975 8.22553 1.5 11.7865 1.5 15.4995ZM7.5 14.4995H19.65L14.07 8.89251L15.5 7.49951L23.5 15.4995L15.5 23.4995L14.07 22.0725L19.65 16.4995H7.5V14.4995Z" fill="black"/>
</g>
</svg>
