<svg width="157" height="72" viewBox="0 0 157 72" fill="none" xmlns="http://www.w3.org/2000/svg">
<g filter="url(#filter0_d_883_1789)">
<path fill-rule="evenodd" clip-rule="evenodd" d="M141.847 45.4862L151.26 50.2597C152.761 51.0207 152.708 53.1818 151.172 53.869L135.835 60.7319C133.33 62.6094 130.218 63.7217 126.847 63.7217L19.0001 63.7217C10.7158 63.7217 4.00011 57.006 4.00011 48.7217L4.0001 15.0002C4.0001 6.71588 10.7158 0.00016497 19.0001 0.000164246L126.847 0.000154818C135.131 0.000154094 141.847 6.71588 141.847 15.0002L141.847 45.4862Z" fill="white"/>
</g>
<path d="M117.844 21.418L117.564 34.397H114.694L114.389 21.418H117.844ZM114.161 38.029C114.148 36.9623 115.05 36.086 116.142 36.0733C117.196 36.086 118.098 36.9623 118.098 38.029C118.098 39.1212 117.196 40.0102 116.142 40.0102C115.05 40.0102 114.148 39.1212 114.161 38.029Z" fill="black"/>
<g clip-path="url(#clip0_883_1789)">
<path d="M92.7646 19.0045C91.6006 19.0034 90.4372 19.0017 89.2732 19C89.3401 22.2233 89.3753 25.5375 89.373 28.9376C89.3703 32.3696 89.3295 35.7147 89.2559 38.9667C90.4199 38.9678 91.5839 38.97 92.7479 38.9712C92.6798 35.7187 92.6447 32.3741 92.648 28.9415C92.6508 25.5415 92.6921 22.2278 92.7646 19.0045Z" fill="#0A0A0A"/>
<path d="M55.4021 20.0679C54.6533 20.0679 54.0913 20.257 53.7325 20.6284C53.3665 21.0065 53.1885 21.4907 53.1885 22.109C53.1885 22.6998 53.3732 23.1812 53.7526 23.5813C54.1271 23.9723 54.6823 24.1715 55.4021 24.1715C56.161 24.1715 56.7257 23.9768 57.0806 23.5936C57.4416 23.2014 57.6174 22.7155 57.6174 22.1096C57.6174 21.4896 57.4428 21.0049 57.0828 20.6278C56.7291 20.2564 56.1638 20.0679 55.4021 20.0679Z" fill="#19BE7E"/>
<path d="M82.4976 31.8866C84.1175 30.3106 85.5923 29.1739 87.2122 27.5979C86.9344 27.5979 85.1554 27.5956 84.8775 27.5956C84.6303 27.5951 82.9284 27.5934 82.6812 27.5928C81.9535 28.2745 81.1902 28.9646 80.39 29.6598C79.4196 30.5031 78.4637 31.2936 77.5291 32.0353C77.514 31.0737 77.5034 29.8146 77.4973 28.8423C77.4755 25.4686 77.5062 22.5915 77.5843 19.3356C76.2138 19.3266 75.5705 19.3171 74.2 19.3081C74.2753 22.3171 74.3166 24.9547 74.3194 28.095C74.3227 31.7537 74.2731 35.326 74.1782 38.8074C74.7948 38.7878 75.427 38.7771 76.0738 38.776C76.8522 38.7743 76.8818 38.7872 77.6172 38.8119C77.5972 37.9136 77.5994 36.9716 77.5843 36.0632C78.4001 35.3428 79.2165 34.6224 80.0323 33.9026C80.4218 34.4485 80.8107 35.0011 81.2002 35.5611C81.9441 36.6305 82.6639 37.6914 83.3609 38.7429C83.3609 38.7429 83.3609 38.7434 83.3614 38.7434C84.7241 38.7474 86.0867 38.7519 87.4494 38.7569C86.3719 37.2297 85.2737 35.6946 84.1543 34.1528C83.6019 33.392 83.05 32.6362 82.4976 31.8866Z" fill="#0A0A0A"/>
<path d="M49.2737 20.0679C48.5248 20.0679 47.9629 20.257 47.6041 20.6284C47.2381 21.0065 47.0601 21.4907 47.0601 22.109C47.0601 22.6998 47.2448 23.1812 47.6242 23.5813C47.9986 23.9723 48.5539 24.1715 49.2737 24.1715C50.0326 24.1715 50.5973 23.9768 50.9522 23.5936C51.3132 23.2014 51.489 22.7155 51.489 22.1096C51.489 21.4896 51.3143 21.0049 50.9544 20.6278C50.6001 20.2564 50.0348 20.0679 49.2737 20.0679Z" fill="#19BE7E"/>
<path d="M47.5112 25.9718C47.5536 27.3632 47.5843 28.2794 47.6022 29.3309C47.6206 30.3941 47.62 31.1947 47.6206 31.6194C47.6239 34.2755 47.5581 36.8907 47.5112 38.4459C48.0871 38.433 48.6747 38.4257 49.274 38.4257C49.8733 38.4257 50.4609 38.4325 51.0373 38.4459C50.9904 36.8907 50.9246 34.2761 50.9279 31.6194C50.9285 31.1953 50.9285 30.3946 50.9463 29.3309C50.9642 28.2789 50.9949 27.3632 51.0373 25.9712C49.8616 25.9718 48.6864 25.9718 47.5112 25.9718Z" fill="#0A0A0A"/>
<path d="M53.6401 26.0474C53.6825 27.4389 53.7132 28.3551 53.7311 29.4065C53.7495 30.4698 53.7489 31.2704 53.7495 31.6951C53.7529 34.3512 53.687 36.9663 53.6401 38.5216C54.216 38.5087 54.8036 38.5014 55.4029 38.5014C56.0022 38.5014 56.5898 38.5082 57.1662 38.5216C57.1193 36.9663 57.0535 34.3518 57.0568 31.6951C57.0574 31.271 57.0574 30.4703 57.0753 29.4065C57.0931 28.3545 57.1238 27.4389 57.1662 26.0469C55.991 26.0474 54.8153 26.0474 53.6401 26.0474Z" fill="#0A0A0A"/>
<path d="M108.831 31.3226C108.201 29.2522 106.639 28.1144 105.991 27.7076C104.308 26.6517 102.594 26.6337 101.856 26.6264C101.639 26.6242 101.475 26.6309 101.438 26.6326C100.886 26.6562 97.9521 26.7818 96.0454 29.0985C95.7095 29.5069 94.5951 30.9023 94.5884 32.953C94.5812 35.0851 95.7747 36.5719 96.0671 36.9214C96.1637 37.037 96.2446 37.1262 96.3015 37.1874C98.1028 39.141 100.537 39.2947 101.856 39.3778C102.869 39.4417 104.67 39.4462 106.596 38.42C107.526 37.9241 108.23 37.2889 108.693 36.5281C107.414 36.0535 106.329 35.6001 105.461 35.1771C105.103 35.5715 104.664 35.8919 104.152 36.1315C103.922 36.2386 103.686 36.3267 103.445 36.3963C103.361 36.4204 102.757 36.5904 102.067 36.5887C101.454 36.587 100.327 36.5842 99.413 35.7842C98.3645 34.8662 98.3059 33.5208 98.2992 33.2459C101.897 33.2481 105.495 33.2504 109.093 33.2521C109.103 32.7892 109.068 32.103 108.831 31.3226ZM98.5899 31.2025C98.8299 30.2913 99.6083 29.7993 99.8739 29.6315C101.233 28.7719 103.574 28.8825 104.71 30.2896C105.112 30.7879 105.27 31.3332 105.337 31.7147C103.065 31.7147 100.792 31.7147 98.5185 31.7147C98.5213 31.5902 98.5358 31.4101 98.5899 31.2025Z" fill="#0A0A0A"/>
<path d="M45.6795 30.433C45.5724 29.9472 45.1617 28.0895 43.5953 26.7743C41.1909 24.7556 38.0163 25.655 37.715 25.7459C35.2709 26.4815 34.1153 28.4441 34.0316 28.6668C33.8954 29.0281 33.7755 29.4422 33.7755 29.4422C33.7755 29.4428 33.7749 29.4445 33.7749 29.445L32.8185 25.6965V25.6971V25.6965H29C29.0848 28.9311 29.1289 32.2442 29.1267 35.633C29.1239 38.8266 29.0804 41.9529 29 45.009C29.6027 44.9899 30.2209 44.9787 30.8532 44.977C31.6143 44.9748 32.3553 44.9865 33.074 45.009C33.0249 41.0406 32.9753 37.5047 32.9262 33.9027C33.0952 34.4924 33.6348 36.0819 35.1939 37.3229C35.5393 37.5979 36.6408 38.4181 38.2948 38.6785C38.9315 38.7789 41.5848 39.0841 43.7304 37.1917C45.492 35.6375 45.8436 33.5296 45.8408 32.0787C45.8391 31.3122 45.7409 30.7108 45.6795 30.433ZM40.5151 35.6106C39.7138 36.097 38.9359 36.1133 38.6396 36.1161C38.3534 36.1183 37.5253 36.1206 36.753 35.6493C35.2162 34.7117 35.1683 32.5668 35.1677 32.2088C35.1666 31.7437 35.2308 29.7177 36.7045 28.7869C37.4734 28.301 38.3283 28.3016 38.6396 28.3021C38.8701 28.3021 39.7272 28.3032 40.4376 28.7179C42.4609 30.0448 42.2483 34.3639 40.5151 35.6106Z" fill="#0A0A0A"/>
<path d="M63.0922 29.9567C64.4783 28.6298 66.7193 28.9619 68.0262 29.6122C68.4698 29.8327 68.8046 30.0897 69.0328 30.29C70.0668 30.0005 71.1014 29.711 72.1354 29.4209C71.5165 28.4401 70.8168 27.828 70.3553 27.4818C68.765 26.2913 67.0703 26.0775 66.3215 26.0337C66.3159 26.0332 66.293 26.032 66.2645 26.0304C65.2556 25.9782 62.6592 25.8581 60.7257 27.7921C59.5606 28.9574 58.9702 30.5211 58.9702 32.4394C58.9702 33.0549 59.0054 35.3166 60.7252 37.0867C62.5326 38.9467 64.9275 38.9545 65.9788 38.9579C66.7054 38.9601 68.7733 38.9377 70.6957 37.5053C71.5344 36.8803 72.0768 36.1873 72.401 35.7009C71.2755 35.3328 70.15 34.9648 69.0245 34.5967C68.8336 34.7897 68.5479 35.04 68.1579 35.2571C66.4805 36.1907 63.8629 35.9511 62.686 34.37C62.075 33.5492 62.0504 32.633 62.0499 32.4142C62.0493 32.3098 62.0666 30.938 63.0922 29.9567Z" fill="#0A0A0A"/>
</g>
<defs>
<filter id="filter0_d_883_1789" x="0" y="0" width="156.355" height="71.7217" filterUnits="userSpaceOnUse" color-interpolation-filters="sRGB">
<feFlood flood-opacity="0" result="BackgroundImageFix"/>
<feColorMatrix in="SourceAlpha" type="matrix" values="0 0 0 0 0 0 0 0 0 0 0 0 0 0 0 0 0 0 127 0" result="hardAlpha"/>
<feOffset dy="4"/>
<feGaussianBlur stdDeviation="2"/>
<feComposite in2="hardAlpha" operator="out"/>
<feColorMatrix type="matrix" values="0 0 0 0 0 0 0 0 0 0 0 0 0 0 0 0 0 0 0.25 0"/>
<feBlend mode="normal" in2="BackgroundImageFix" result="effect1_dropShadow_883_1789"/>
<feBlend mode="normal" in="SourceGraphic" in2="effect1_dropShadow_883_1789" result="shape"/>
</filter>
<clipPath id="clip0_883_1789">
<rect width="80.0952" height="26.0088" fill="white" transform="translate(29 19)"/>
</clipPath>
</defs>
</svg>
