<svg width="26" height="26" viewBox="0 0 26 26" fill="none" xmlns="http://www.w3.org/2000/svg">
<g filter="url(#filter0_i_1727_15032)">
<path d="M23.9974 11.1376C23.9444 7.80691 21.4719 5 18.4277 5C16.6227 5 15.0181 5.94333 14 7.40534C12.9819 5.94333 11.3773 5 9.57229 5C6.52743 5 4.05527 7.80691 4.00258 11.1376C3.99677 11.0208 4.00258 11.2557 4.00258 11.1376C4.22257 16.9911 14 22 14 22C14 22 23.7774 16.9928 23.9974 11.1376C23.9974 11.2557 24.0032 11.0208 23.9974 11.1376Z" fill="#F1F1F1"/>
</g>
<path d="M23.9974 11.1376C23.9444 7.80691 21.4719 5 18.4277 5C16.6227 5 15.0181 5.94333 14 7.40534C12.9819 5.94333 11.3773 5 9.57229 5C6.52743 5 4.05527 7.80691 4.00258 11.1376M23.9974 11.1376C23.7774 16.9928 14 22 14 22C14 22 4.22257 16.9911 4.00258 11.1376M23.9974 11.1376C24.0032 11.0208 23.9974 11.2557 23.9974 11.1376ZM4.00258 11.1376C4.00258 11.2557 3.99677 11.0208 4.00258 11.1376Z" stroke="#F1F1F1" stroke-miterlimit="10"/>
<defs>
<filter id="filter0_i_1727_15032" x="3.5" y="4.5" width="21" height="19.0618" filterUnits="userSpaceOnUse" color-interpolation-filters="sRGB">
<feFlood flood-opacity="0" result="BackgroundImageFix"/>
<feBlend mode="normal" in="SourceGraphic" in2="BackgroundImageFix" result="shape"/>
<feColorMatrix in="SourceAlpha" type="matrix" values="0 0 0 0 0 0 0 0 0 0 0 0 0 0 0 0 0 0 127 0" result="hardAlpha"/>
<feOffset dy="1"/>
<feGaussianBlur stdDeviation="1"/>
<feComposite in2="hardAlpha" operator="arithmetic" k2="-1" k3="1"/>
<feColorMatrix type="matrix" values="0 0 0 0 0 0 0 0 0 0 0 0 0 0 0 0 0 0 0.25 0"/>
<feBlend mode="normal" in2="shape" result="effect1_innerShadow_1727_15032"/>
</filter>
</defs>
</svg>
