<svg width="20" height="20" viewBox="0 0 20 20" fill="none" xmlns="http://www.w3.org/2000/svg">
<circle cx="10" cy="10" r="10" fill="#19BE7E"/>
<path d="M5.66416 9.4161C5.25127 9.04929 4.61921 9.08665 4.25241 9.49953C3.8856 9.91242 3.92296 10.5445 4.33584 10.9113L5.66416 9.4161ZM8.33333 13.125L7.66918 13.8726C8.04074 14.2027 8.59834 14.2098 8.9782 13.8893L8.33333 13.125ZM15.6449 8.26429C16.067 7.90814 16.1204 7.27724 15.7643 6.85513C15.4081 6.43302 14.7772 6.37956 14.3551 6.73571L15.6449 8.26429ZM4.33584 10.9113L7.66918 13.8726L8.99749 12.3774L5.66416 9.4161L4.33584 10.9113ZM8.9782 13.8893L15.6449 8.26429L14.3551 6.73571L7.68846 12.3607L8.9782 13.8893Z" fill="white"/>
</svg>
