<svg width="48" height="49" viewBox="0 0 48 49" fill="none" xmlns="http://www.w3.org/2000/svg">
<circle cx="24" cy="24.5" r="24" fill="#D9D9D9"/>
<path d="M31.75 23.7402L29.6875 25.9269L32.4375 28.8336H14.5625L17.3125 25.9269L15.25 23.7402L11.125 28.1002V34.1669C11.125 35.6336 12.3625 36.8336 13.875 36.8336H33.125C34.6375 36.8336 35.875 35.6336 35.875 34.1669V28.1136L31.75 23.7402V23.7402Z" fill="black"/>
<path d="M21.5615 26.7265C22.634 27.7798 24.3802 27.7932 25.4665 26.7398L32.314 20.0998C33.3865 19.0598 33.3865 17.3665 32.314 16.3265L27.4465 11.6198C26.374 10.5798 24.6277 10.5798 23.5552 11.6198L16.749 18.2198C16.2349 18.7177 15.945 19.3926 15.9424 20.0971C15.9398 20.8016 16.2248 21.4785 16.7352 21.9798L21.5615 26.7265ZM25.5077 13.4998L30.3615 18.2065L23.569 24.7932L18.7152 20.0865L25.5077 13.4998V13.4998Z" fill="black"/>
</svg>
